<?xml version="1.0" standalone="no"?>
<!DOCTYPE svg PUBLIC "-//W3C//DTD SVG 1.1//EN" "http://www.w3.org/Graphics/SVG/1.1/DTD/svg11.dtd" >
<svg xmlns="http://www.w3.org/2000/svg">
<metadata></metadata>
<defs>
<font id="fontin_sans_cr_scregular" horiz-adv-x="1024" >
<font-face units-per-em="2048" ascent="1548" descent="-500" />
<missing-glyph horiz-adv-x="552" />
<glyph horiz-adv-x="2048" />
<glyph horiz-adv-x="2048" />
<glyph unicode="&#xd;" horiz-adv-x="2048" />
<glyph unicode=" "  horiz-adv-x="552" />
<glyph unicode="&#x09;" horiz-adv-x="552" />
<glyph unicode="&#xa0;" horiz-adv-x="552" />
<glyph unicode="!" horiz-adv-x="540" d="M150 102q0 51 38.5 88t92.5 37t92.5 -37t38.5 -88q0 -54 -38.5 -91.5t-92.5 -37.5t-92.5 37.5t-38.5 91.5zM170 1217l205 22l-27 -877l-129 -16l-24 723z" />
<glyph unicode="&#x22;" horiz-adv-x="802" d="M145 1341l185 33l-2 -500l-150 -2l4 240zM473 1341l184 33l-2 -500l-149 -2l4 240z" />
<glyph unicode="#" horiz-adv-x="1441" d="M59 377v131h312l41 381h-295v131h309l35 328h155l-34 -328h299l34 328h158l-35 -328h308l-17 -131h-303l-41 -381h305l-16 -131h-303l-39 -377h-158l39 377h-299l-39 -377h-158l39 377h-297zM528 508h299l41 381h-299z" />
<glyph unicode="$" horiz-adv-x="983" d="M113 123l18 168q5 -6 15.5 -16.5t43.5 -37t68 -48t87 -41.5t104 -25v483q-40 22 -54.5 30t-51.5 30t-52.5 33.5t-45.5 35t-44 40.5t-34 43t-29 50.5t-16 55t-7 63.5q0 144 93 251.5t241 129.5v178h106v-176q160 -9 293 -94l-53 -160q-3 6 -33 25t-89 42.5t-118 30.5v-440 q138 -73 194 -118q141 -115 142 -285q0 -160 -90.5 -264.5t-245.5 -126.5v-173h-106v168q-62 3 -120 19t-96 37t-66.5 42t-41.5 35t-12 15zM307 1042q0 -67 37 -116.5t105 -91.5v378q-62 -15 -102 -58.5t-40 -111.5zM555 131q64 21 102.5 76t38.5 137q0 60 -37 107t-104 92 v-412z" />
<glyph unicode="%" horiz-adv-x="1634" d="M135 1038q0 125 92.5 216.5t214.5 91.5q125 0 219.5 -91.5t94.5 -216.5t-94 -216t-220 -91q-123 0 -215 91t-92 216zM256 1042q0 -74 54.5 -136t133.5 -62q86 0 138.5 61t52.5 137q0 74 -59 129.5t-132 55.5q-76 0 -132 -55t-56 -130zM285 0l934 1380l135 -55l-903 -1325 h-166zM903 281q0 125 92 216t215 91q126 0 220 -91t94 -216t-94.5 -216.5t-219.5 -91.5q-122 0 -214.5 91.5t-92.5 216.5zM1024 285q0 -74 55 -136.5t133 -62.5q86 0 138.5 61.5t52.5 137.5q0 74 -59 129t-132 55q-77 0 -132.5 -54.5t-55.5 -129.5z" />
<glyph unicode="&#x26;" horiz-adv-x="1425" d="M137 297q0 51 19.5 99t57.5 91t79 78.5t98 75.5q-151 200 -151 322q0 126 94 200t256 74q141 0 223 -63t82 -166q0 -54 -24 -104.5t-72.5 -98.5t-92 -82t-112.5 -82l-4 -4q141 -170 334 -322q71 133 71 306v186h375l-37 -127h-196v-45q0 -106 -27.5 -211t-77.5 -186 q200 -145 342 -175l-112 -100h-5q-136 45 -313 164q-78 -70 -186 -108.5t-234 -38.5q-167 0 -277 84.5t-110 232.5zM309 332q0 -42 14.5 -80.5t45 -72t86 -53.5t129.5 -20q143 0 250 101q-191 143 -369 348q-79 -61 -117.5 -112t-38.5 -111zM401 985q0 -97 117 -256 q103 71 161 132t58 118q0 51 -43.5 94t-124.5 43q-75 0 -121.5 -34.5t-46.5 -96.5z" />
<glyph unicode="'" horiz-adv-x="475" d="M145 1341l185 33l-2 -500l-150 -2l4 240z" />
<glyph unicode="(" horiz-adv-x="675" d="M135 485q0 187 47.5 374.5t131.5 331.5t184 200l120 -43q-13 -6 -38.5 -33.5t-61.5 -76.5t-72 -124.5t-67 -165t-50.5 -211.5t-19.5 -252q0 -154 28 -303t68 -254t85 -189t78.5 -127t49.5 -50l-120 -43q-99 56 -184 216t-132 361.5t-47 388.5z" />
<glyph unicode=")" horiz-adv-x="675" d="M57 -438q16 7 49.5 50t79 127t85.5 189t68 254t28 303q0 130 -19.5 252t-51 211.5t-67.5 165t-72 124.5t-61.5 76.5t-38.5 33.5l121 43q100 -56 184 -200t131.5 -331.5t47.5 -374.5t-47 -388.5t-132 -361.5t-184 -216z" />
<glyph unicode="*" horiz-adv-x="823" d="M8 1124l62 127l237 -8l-151 262l131 11l121 -213l147 260l74 -111l-123 -209l301 8l-62 -127l-237 9l151 -263l-131 -10l-120 211l-148 -258l-74 111l121 209z" />
<glyph unicode="+" horiz-adv-x="964" d="M119 463v151h293v306l143 -39v-267h305l-41 -151h-264v-299h-143v299h-293z" />
<glyph unicode="," horiz-adv-x="552" d="M123 -217q42 40 78.5 99.5t36.5 105.5q0 39 -16 58.5t-58 37.5v18q0 55 34 92t89 37q51 0 87 -38t36 -109q0 -89 -55 -197t-158 -176z" />
<glyph unicode="-" horiz-adv-x="618" d="M63 461v151h506l-41 -151h-465z" />
<glyph unicode="." horiz-adv-x="552" d="M154 102q0 51 35.5 88t86.5 37t87 -37t36 -88q0 -54 -36 -91.5t-87 -37.5t-86.5 37.5t-35.5 91.5z" />
<glyph unicode="/" horiz-adv-x="595" d="M-55 -500l436 1846h151l-442 -1846h-145z" />
<glyph unicode="0" d="M86 674q0 109 12 203.5t42.5 187.5t78.5 158.5t126 106t179 40.5q81 0 146 -25t107.5 -63.5t74 -99t48 -117.5t26 -133.5t12 -132.5t2.5 -127q0 -76 -5.5 -144t-19.5 -140t-36.5 -131.5t-59 -113t-83.5 -90.5t-112.5 -58.5t-144.5 -21.5q-192 0 -292.5 183t-100.5 518z M274 696q0 -81 3 -146t11 -136t24.5 -123.5t41 -96.5t62 -67t86.5 -23q64 0 113.5 46t79.5 125.5t45.5 178t15.5 210.5q0 571 -244 571q-66 0 -114 -43.5t-74.5 -121.5t-38 -170t-11.5 -204z" />
<glyph unicode="1" d="M184 1231l441 145v-1241h233l-20 -135h-617v135h228v1036l-213 -65z" />
<glyph unicode="2" d="M106 90q33 38 106.5 118t126.5 138t121 145t110.5 159.5t73 159.5t30.5 165q0 129 -52.5 188.5t-138.5 59.5q-70 0 -146 -35.5t-136 -95.5l-74 143q71 58 172 96.5t205 38.5q168 0 268 -94.5t100 -261.5q0 -92 -33.5 -191t-83 -183.5t-124 -177t-138 -159.5t-143.5 -143 h574l-21 -160h-776z" />
<glyph unicode="3" d="M123 37l39 147q49 -29 117.5 -47t134.5 -18q43 0 84.5 10t80.5 32.5t68.5 56t47.5 83.5t18 111q0 121 -90.5 203.5t-243.5 86.5l27 121q237 110 237 250q0 69 -51.5 116.5t-126.5 47.5q-63 0 -128 -30.5t-110 -82.5l-71 138q58 47 146.5 77.5t178.5 30.5 q93 0 169.5 -29.5t124.5 -92t48 -148.5q0 -184 -231 -297q101 -13 172 -67.5t104 -131.5t33 -170q0 -200 -137.5 -330.5t-341.5 -130.5q-159 0 -299 64z" />
<glyph unicode="4" d="M72 449l561 923l153 -45v-829h201l-41 -160h-160v-184l21 -154h-193v338h-522zM268 498h350v516l11 119l-58 -129l-266 -455z" />
<glyph unicode="5" d="M102 37l39 147q51 -29 122 -47t134 -18q56 0 107.5 20.5t94 60t68 105t25.5 148.5q0 165 -104.5 249t-288.5 84l-74 -4l25 566h612l-41 -160h-428l-10 -268q75 0 145.5 -16.5t134.5 -52.5t111.5 -88t76 -128.5t28.5 -169.5q0 -113 -38 -207t-103 -155.5t-150 -95.5 t-180 -34q-163 0 -306 64z" />
<glyph unicode="6" d="M82 618q0 191 42 337.5t117 236t172.5 134t213.5 44.5q81 0 164 -30t131 -87l-72 -139q-31 48 -97.5 81.5t-136.5 33.5q-134 0 -229.5 -118t-116.5 -347q53 34 137.5 66t176.5 32q71 0 135 -24.5t114.5 -72t80.5 -124.5t30 -174q0 -100 -29 -189t-82 -157t-136 -108 t-185 -40q-110 0 -195 54t-135 146.5t-75 205t-25 239.5zM266 629q1 -100 15 -185.5t45 -161.5t87.5 -119.5t133.5 -43.5q100 0 155.5 88t55.5 203q0 151 -73 229t-187 78q-68 0 -131.5 -29.5t-100.5 -58.5z" />
<glyph unicode="7" d="M51 1346h864l31 -48l-577 -1316l-166 30l510 1174h-600z" />
<glyph unicode="8" d="M104 291q0 55 16.5 106t42 91t66 80.5t77 69.5t87.5 64q-114 89 -174.5 168t-60.5 172q0 143 103 235.5t276 92.5q155 0 248.5 -77.5t93.5 -194.5q0 -59 -19.5 -112t-56.5 -98t-75.5 -79.5t-90.5 -71.5q69 -53 110 -88t89 -84.5t71 -98t23 -97.5q0 -173 -127 -284.5 t-320 -111.5q-52 0 -102.5 10t-101.5 34t-89 59t-62 90.5t-24 124.5zM283 352q0 -110 59.5 -170.5t159.5 -60.5q95 0 172.5 57.5t77.5 138.5q0 39 -20 78t-65 83.5t-79.5 73.5t-102.5 81q-98 -67 -150 -132.5t-52 -148.5zM328 1075q0 -62 55 -125t158 -141 q78 58 119.5 113.5t41.5 119.5q0 83 -45.5 141t-142.5 58q-84 0 -135 -45t-51 -121z" />
<glyph unicode="9" d="M76 879q0 134 48.5 244.5t148.5 179.5t235 69q110 0 195 -54t135 -146.5t75 -205t25 -239.5q0 -191 -42 -338t-117 -236.5t-172.5 -134.5t-213.5 -45q-81 0 -164 30t-131 87l72 139q31 -48 96.5 -81t136.5 -33q134 0 230 119t117 348q-31 -20 -70.5 -39.5t-109.5 -39.5 t-134 -20q-150 0 -255 103t-105 293zM262 936q0 -151 73 -229t187 -78q68 0 131.5 29.5t100.5 58.5q-1 100 -15 185.5t-45 161.5t-87.5 119.5t-133.5 43.5q-100 0 -155.5 -88t-55.5 -203z" />
<glyph unicode=":" horiz-adv-x="528" d="M150 102q0 51 35.5 88t86.5 37t87 -37t36 -88q0 -54 -36 -91.5t-87 -37.5t-86.5 37.5t-35.5 91.5zM150 668q0 51 35.5 88t86.5 37t87 -37t36 -88q0 -54 -36 -91.5t-87 -37.5t-86.5 37.5t-35.5 91.5z" />
<glyph unicode=";" horiz-adv-x="528" d="M104 -217q42 40 78.5 99.5t36.5 105.5q0 39 -16 58.5t-58 37.5v18q0 55 34 92t89 37q51 0 87 -38t36 -109q0 -89 -55 -197t-158 -176zM150 668q0 51 35.5 88t86.5 37t87 -37t36 -88q0 -54 -36 -91.5t-87 -37.5t-86.5 37.5t-35.5 91.5z" />
<glyph unicode="&#x3c;" horiz-adv-x="755" d="M82 537l498 469l79 -132l-354 -339l354 -336l-79 -131z" />
<glyph unicode="=" horiz-adv-x="983" d="M119 295v151h729l-41 -151h-688zM119 633v151h749l-41 -151h-708z" />
<glyph unicode="&#x3e;" horiz-adv-x="755" d="M84 199l354 336l-354 339l80 132l498 -469l-498 -469z" />
<glyph unicode="?" horiz-adv-x="800" d="M92 1190q115 51 250 51q166 0 271.5 -76.5t105.5 -199.5q0 -62 -21 -115t-54 -91t-73.5 -72t-80.5 -64t-73 -60.5t-54 -68t-21 -80.5q0 -9 4.5 -30t9.5 -38l4 -16l-157 43q-8 36 -8 59q0 57 18.5 104.5t48.5 80.5t66 62t71.5 56t65.5 56t48.5 68t18.5 85q0 66 -49.5 111 t-140.5 45q-21 0 -47.5 -4t-50 -10t-42.5 -11.5t-33 -10.5t-15 -5zM164 102q0 51 38.5 88t92.5 37t92.5 -37t38.5 -88q0 -54 -38.5 -91.5t-92.5 -37.5t-92.5 37.5t-38.5 91.5z" />
<glyph unicode="@" horiz-adv-x="1847" d="M123 451q0 137 37.5 268.5t112 245t177.5 199.5t242.5 135t298.5 49q203 0 372.5 -92.5t268.5 -257.5t99 -367q0 -101 -21 -197t-64 -180.5t-103.5 -147.5t-146.5 -100t-186 -37q-19 0 -65 4q-23 24 -39 71.5t-19 94.5q-1 0 -14.5 -16t-37 -39.5t-54 -46.5t-74 -39 t-88.5 -16q-130 0 -225.5 119.5t-95.5 297.5q0 140 49 260.5t131 202t191 128t227 46.5q77 0 176 -30l-27 -154v-504q0 -105 8 -166t33 -82q82 1 149.5 70t103.5 178t36 230q0 185 -68.5 328t-209 228t-334.5 85q-143 0 -272 -67t-217.5 -175t-140.5 -245.5t-52 -276.5 q0 -120 42.5 -238.5t130 -222.5t205.5 -166l-135 -111q-189 114 -295 315t-106 419zM680 416q0 -109 55.5 -189t138.5 -80q107 0 197 93l-2 657q-9 0 -27 -2t-56.5 -13t-76.5 -29.5t-80.5 -55t-74.5 -85t-53 -125.5t-21 -171z" />
<glyph unicode="A" horiz-adv-x="1169" d="M-4 0l520 1348l125 26l418 -1149l102 -225h-223l-129 352h-502l-133 -352h-178zM362 508h396l-170 471l-21 80l-24 -82z" />
<glyph unicode="B" horiz-adv-x="1144" d="M203 1348l323 10h26q178 0 292 -78q122 -84 121 -242q0 -126 -154 -280q54 -25 93 -52t72 -67t49.5 -95t16.5 -126q0 -86 -27 -158.5t-84 -132t-157 -93.5t-235 -34h-310v1159zM414 147h149q79 0 136.5 21.5t88.5 58.5t45.5 79.5t14.5 92.5q0 136 -78.5 195t-239.5 59 h-116v-506zM414 805h147q22 0 45 -1.5t40.5 -3.5t32 -4t23 -3.5t9.5 -1.5q77 103 77 206q0 108 -69 159.5t-217 51.5q-26 0 -88 -4v-399z" />
<glyph unicode="C" horiz-adv-x="1263" d="M92 645q0 154 51.5 290t139 231.5t207.5 150.5t253 55q248 0 431 -168l-95 -139q-150 156 -344 156q-128 0 -231.5 -79.5t-159 -206t-55.5 -269.5q0 -120 40 -222.5t105 -169.5t147.5 -105t168.5 -38q52 0 112 17.5t108.5 43t89.5 51t64 43.5l23 17l45 -151 q-8 -7 -23 -19t-63.5 -43t-101 -54.5t-131 -43t-156.5 -19.5q-121 0 -232 44.5t-199 126.5t-141 212t-53 289z" />
<glyph unicode="D" horiz-adv-x="1368" d="M203 1348h510q110 0 209 -41t179 -120t127.5 -209.5t47.5 -295.5q0 -191 -76 -346t-219.5 -245.5t-329.5 -90.5h-422v1159zM414 147h262q114 0 206.5 71t143.5 190.5t51 261.5q0 144 -51 265t-143.5 193t-206.5 72h-262v-1053z" />
<glyph unicode="E" d="M203 1348h700v-152h-489v-430h428l-41 -152h-387v-462h512l-41 -152h-656v1159z" />
<glyph unicode="F" horiz-adv-x="985" d="M203 1348h700v-152h-489v-430h428l-41 -152h-387v-460l20 -154h-205v1159z" />
<glyph unicode="G" horiz-adv-x="1347" d="M92 645q0 206 85 373t231.5 260.5t324.5 93.5q258 0 441 -168l-95 -139q-150 156 -344 156q-93 0 -176.5 -47t-142 -123.5t-93 -177.5t-34.5 -207q0 -120 40 -224.5t105.5 -173.5t148.5 -108t171 -39q49 0 111.5 8.5t100.5 17.5l38 9l2 358l-35 152h211l2 -615 q-8 -3 -23.5 -8.5t-65.5 -19t-101.5 -23.5t-127.5 -18.5t-149 -8.5q-121 0 -232 44.5t-199 126.5t-141 212t-53 289z" />
<glyph unicode="H" horiz-adv-x="1546" d="M203 1348h211v-570h721v381l-27 189h211v-1194l20 -154h-204v614h-721v-460l20 -154h-205v1159z" />
<glyph unicode="I" horiz-adv-x="638" d="M203 1348h211v-1194l20 -154h-205v1159z" />
<glyph unicode="J" horiz-adv-x="608" d="M-111 -395l11 180q59 -27 100 -27q97 0 157 93.5t60 226.5v1081l-27 189h211v-1270q0 -97 -23.5 -182.5t-71 -154.5t-126 -109t-180.5 -40q-44 0 -111 13z" />
<glyph unicode="K" horiz-adv-x="1183" d="M203 1348h211v-641l415 507l60 134h264l-532 -639l550 -709h-243l-514 682v-528l20 -154h-205v1159z" />
<glyph unicode="L" horiz-adv-x="954" d="M203 1348h211v-1192h528l-41 -156h-672v1159z" />
<glyph unicode="M" horiz-adv-x="1830" d="M190 1348h136l610 -871l553 871h115v-1194l20 -154h-205v948l-71 -143l-420 -653l-475 653l-68 135v-786l21 -154h-189v1159z" />
<glyph unicode="N" horiz-adv-x="1531" d="M190 1348h125l752 -852l90 -134v797l-27 189h195v-1194l12 -154h-96l-768 860l-88 133v-839l21 -154h-189v1159z" />
<glyph unicode="O" horiz-adv-x="1392" d="M94 662q0 146 47.5 277t128.5 226.5t195.5 151t243.5 55.5q145 0 258.5 -51.5t185.5 -144t109.5 -217t37.5 -273.5q0 -196 -81 -359.5t-223 -258.5t-314 -95q-137 0 -249.5 54.5t-186 148t-113 218.5t-39.5 268zM295 674q0 -152 49.5 -278t142.5 -200.5t211 -74.5 t210.5 74.5t142 200.5t49.5 278t-49.5 278t-142 200.5t-210.5 74.5t-211 -74.5t-142.5 -200.5t-49.5 -278z" />
<glyph unicode="P" horiz-adv-x="1118" d="M203 1348h381q69 0 132.5 -15.5t120 -48.5t98.5 -80t66.5 -114.5t24.5 -147.5q0 -178 -147.5 -308t-364.5 -130h-100v-350l20 -154h-205v1159zM414 655h133q118 0 201 79.5t83 207.5q0 121 -81.5 187.5t-202.5 66.5h-133v-541z" />
<glyph unicode="Q" horiz-adv-x="1392" d="M94 662q0 146 47.5 277t128.5 226.5t195.5 151t243.5 55.5q145 0 258.5 -51.5t185.5 -144t109.5 -217t37.5 -273.5q0 -276 -154 -475.5t-388 -230.5l454 -193l-77 -172l-492 233v129q-170 10 -296.5 104.5t-189.5 245t-63 335.5zM295 674q0 -152 49.5 -278t142.5 -200.5 t211 -74.5t210.5 74.5t142 200.5t49.5 278t-49.5 278t-142 200.5t-210.5 74.5t-211 -74.5t-142.5 -200.5t-49.5 -278z" />
<glyph unicode="R" horiz-adv-x="1204" d="M203 1348h381q69 0 132.5 -15.5t120 -48.5t98.5 -80t66.5 -114.5t24.5 -147.5q0 -120 -70.5 -224t-191.5 -161l420 -557h-238l-360 506q-23 -2 -172 -2v-350l20 -154h-205v1159zM414 655h133q114 0 199 85t85 202q0 121 -81.5 187.5t-202.5 66.5h-133v-541z" />
<glyph unicode="S" horiz-adv-x="983" d="M111 125l20 176q6 -7 17.5 -19.5t48 -43.5t75 -54.5t96.5 -43t115 -19.5q92 0 155.5 60t63.5 163q0 54 -32.5 101t-84 82t-114.5 69t-125.5 71.5t-114 80.5t-84 104.5t-32.5 134.5q0 161 112 273t283 112q188 0 338 -96l-53 -150q-3 8 -40.5 30.5t-109 46.5t-141.5 24 q-78 0 -137.5 -50.5t-59.5 -134.5q0 -60 32 -108.5t83 -84t112.5 -68.5t123 -71t112.5 -82t83 -110t32 -147q0 -176 -111.5 -287t-296.5 -111q-68 0 -130.5 15.5t-103.5 38t-72.5 45t-45.5 38.5z" />
<glyph unicode="T" horiz-adv-x="1077" d="M10 1192v156h1057v-156h-442v-1038l20 -154h-205v1192h-430z" />
<glyph unicode="U" horiz-adv-x="1488" d="M197 1348h211v-846q0 -163 99 -271t249 -108t247 114t97 279v643l-27 189h199v-809q0 -251 -151.5 -408.5t-401.5 -157.5q-99 0 -179.5 27t-130.5 68t-87.5 97t-55.5 104t-28.5 100.5t-12.5 76t-2 39.5v674z" />
<glyph unicode="V" horiz-adv-x="1196" d="M8 1348h246l321 -902l43 -172l54 172l340 902h182l-530 -1375l-129 27l-408 1122z" />
<glyph unicode="W" horiz-adv-x="1892" d="M12 1348h242l321 -902l43 -172l54 172l205 539l-138 363h211l322 -902l43 -172l53 172l340 902h184l-530 -1375l-127 27l-244 668l-37 127l-34 -129l-267 -693l-114 27l-408 1122z" />
<glyph unicode="X" horiz-adv-x="1017" d="M18 0l400 684l-289 518l-106 146h239l240 -428l30 -64l27 64l244 428h192l-383 -648l394 -700h-220l-254 461l-30 67l-33 -71l-256 -457h-195z" />
<glyph unicode="Y" horiz-adv-x="1042" d="M12 1348h238l266 -506l29 -82l39 86l268 502h184l-415 -754v-440l20 -154h-205v594l-317 608z" />
<glyph unicode="Z" horiz-adv-x="1159" d="M66 51l641 1016l90 123h-686l45 158h913l8 -52l-639 -1013l-94 -127h756v-156h-1026z" />
<glyph unicode="[" horiz-adv-x="526" d="M160 -141v1624h329v-127h-165v-1368h165v-129h-329z" />
<glyph unicode="\" horiz-adv-x="729" d="M10 1346h156l563 -1846h-139z" />
<glyph unicode="]" horiz-adv-x="526" d="M37 -12h166v1368h-166v127h330v-1624h-330v129z" />
<glyph unicode="^" horiz-adv-x="1277" d="M145 655q103 180 211.5 379t165.5 308l58 108h114q405 -746 434 -795h-143q-98 180 -185 337.5t-125 224.5l-38 67q-127 -233 -348 -629h-144z" />
<glyph unicode="_" horiz-adv-x="921" d="M4 -154h975l-61 -122h-914v122z" />
<glyph unicode="`" horiz-adv-x="692" d="M74 1483h225l254 -293l-113 -41z" />
<glyph unicode="a" horiz-adv-x="1056" d="M-4 0l475 1087l104 23l375 -917l99 -193h-205l-117 283h-446l-121 -283h-164zM336 422h338l-144 354l-18 62l-23 -62z" />
<glyph unicode="b" horiz-adv-x="1071" d="M203 1087l323 9q168 0 270.5 -68.5t102.5 -191.5q0 -103 -129 -222q98 -41 148.5 -101t50.5 -169q0 -70 -25 -129.5t-77 -109t-143 -77.5t-212 -28h-283v928zM403 135h129q70 0 121.5 16.5t79 45.5t40.5 62t13 71q0 104 -68.5 146t-213.5 42h-101v-383zM403 655h129 q24 0 57.5 -2.5t54.5 -4.5l22 -3q65 73 65 158q0 82 -60.5 120t-193.5 38q-7 0 -74 -5v-301z" />
<glyph unicode="c" horiz-adv-x="1165" d="M92 518q0 167 79.5 302.5t215 211.5t297.5 76q223 0 395 -141l-94 -121q-134 125 -309 125q-114 0 -206.5 -62.5t-141.5 -162t-49 -211.5q0 -94 35.5 -174t93 -132t130.5 -81t150 -29q48 0 102.5 13.5t98.5 33t81.5 39.5t57.5 33l21 14l45 -133q-8 -6 -21.5 -16t-59 -35 t-93.5 -44t-119.5 -35t-141.5 -16q-110 0 -211 36t-181 102.5t-127.5 172t-47.5 234.5z" />
<glyph unicode="d" horiz-adv-x="1271" d="M203 1087h465q79 0 152.5 -19.5t139 -62t114.5 -104t77.5 -151.5t28.5 -199q0 -154 -69 -279t-199.5 -198.5t-299.5 -73.5h-383v928zM403 135h232q155 0 255.5 118.5t100.5 289.5q0 172 -101 291.5t-255 119.5h-232v-819z" />
<glyph unicode="e" horiz-adv-x="966" d="M203 1087h641v-137h-441v-323h390l-43 -138h-347v-352h465l-43 -137h-596v928z" />
<glyph unicode="f" horiz-adv-x="925" d="M203 1087h641v-137h-441v-323h390l-43 -138h-347v-356l21 -133h-195v928z" />
<glyph unicode="g" horiz-adv-x="1247" d="M92 518q0 167 77 302.5t210.5 211.5t294.5 76q233 0 405 -141l-94 -121q-134 125 -309 125q-110 0 -202.5 -62.5t-143.5 -162.5t-51 -211q0 -126 60.5 -226t154 -151.5t198.5 -51.5q42 0 97 7t89 13l35 7q0 46 1 139.5t1 139.5l-32 131h198l2 -508q-21 -7 -58.5 -17.5 t-148.5 -27.5t-217 -17q-110 0 -211 36t-181 102.5t-127.5 172t-47.5 234.5z" />
<glyph unicode="h" horiz-adv-x="1445" d="M203 1087h200v-452h641v293l-26 159h201v-954l20 -133h-195v487h-641v-354l21 -133h-195v928z" />
<glyph unicode="i" horiz-adv-x="628" d="M203 1087h200v-954l21 -133h-195v928z" />
<glyph unicode="j" horiz-adv-x="565" d="M-111 -315l11 161q52 -22 94 -22q85 0 137.5 71.5t52.5 174.5v860l-24 157h198v-1017q0 -79 -21.5 -148.5t-64.5 -126t-114.5 -89t-163.5 -32.5q-54 0 -105 11z" />
<glyph unicode="k" horiz-adv-x="1110" d="M203 1087h200v-501l359 393l-2 -2l57 110h256l-479 -512l504 -575h-238l-457 537v-404l21 -133h-195v928z" />
<glyph unicode="l" horiz-adv-x="892" d="M203 1087h200v-946h478l-41 -141h-611v928z" />
<glyph unicode="m" horiz-adv-x="1695" d="M190 1087l119 -4l555 -700l494 704h110v-954l21 -133h-195v739l-57 -98l-381 -528l-428 520l-57 104v-604l20 -133h-176v930z" />
<glyph unicode="n" horiz-adv-x="1419" d="M190 1087h115l680 -684l72 -96v623l-25 157h180v-956l13 -131h-99l-684 686l-71 96v-649l20 -133h-176v930z" />
<glyph unicode="o" horiz-adv-x="1280" d="M94 530q0 159 72.5 291.5t200.5 209.5t284 77q174 0 297 -73.5t181.5 -197.5t58.5 -286q0 -159 -73 -291.5t-201.5 -209.5t-284.5 -77q-124 0 -226.5 44t-169 119.5t-103 176.5t-36.5 217zM285 541q0 -184 100 -309.5t258 -125.5t257 125.5t99 309.5t-99 309t-257 125 t-258 -125t-100 -309z" />
<glyph unicode="p" horiz-adv-x="1046" d="M203 1087h348q79 0 150 -20.5t128 -59.5t91 -104t34 -147q0 -145 -134.5 -252t-330.5 -107h-86v-264l21 -133h-195v928zM403 535h115q105 0 178.5 60.5t73.5 160.5q0 92 -72.5 143t-179.5 51h-115v-415z" />
<glyph unicode="q" horiz-adv-x="1280" d="M94 530q0 159 72.5 291.5t200.5 209.5t284 77q174 0 297 -73.5t181.5 -197.5t58.5 -286q0 -214 -130 -373t-329 -196q97 -37 385 -144l-76 -153l-448 188v102q-153 9 -267 85.5t-171.5 198t-57.5 271.5zM285 541q0 -184 100 -309.5t258 -125.5t257 125.5t99 309.5 t-99 309t-257 125t-258 -125t-100 -309z" />
<glyph unicode="r" horiz-adv-x="1128" d="M203 1087h348q79 0 150 -20.5t128 -59.5t91 -104t34 -147q0 -94 -62 -179.5t-163 -132.5l379 -444h-227l-324 399l-154 -2v-264l21 -133h-195v928zM403 535h115q102 0 177 65.5t75 155.5q0 92 -72.5 143t-179.5 51h-115v-415z" />
<glyph unicode="s" horiz-adv-x="913" d="M111 102q0 -1 5 38.5t10 79.5l5 40l16 -16t43.5 -35t69 -44.5t87.5 -35.5t102 -16q82 0 135 42.5t53 120.5q0 42 -29 78t-75 63.5t-102 54.5t-112 57.5t-102 66t-75 86t-29 111.5q0 131 102 223t258 92q173 0 311 -82l-55 -143q-3 6 -37 25.5t-98.5 40t-126.5 20.5 q-69 0 -120.5 -35t-51.5 -98q0 -46 28.5 -83t74.5 -64t101.5 -53t111 -56t101.5 -66t74.5 -91t28.5 -124q0 -148 -101 -237t-270 -89q-61 0 -118 12.5t-94 30.5t-65 36.5t-41 31.5l-13 12z" />
<glyph unicode="t" horiz-adv-x="980" d="M10 948v139h961v-139h-400v-815l21 -133h-195v948h-387z" />
<glyph unicode="u" horiz-adv-x="1392" d="M197 1087h200v-684q0 -127 88 -210.5t222 -83.5q133 0 219 89t86 218v514l-25 157h189v-655q0 -203 -138 -331t-364 -128q-90 0 -163 22t-119 55.5t-80 79t-50.5 85t-26 82.5t-11 62t-1.5 32v537z" />
<glyph unicode="v" horiz-adv-x="1091" d="M8 1087h232l290 -727l35 -120l45 129l308 718h172l-486 -1114l-112 21l-369 903v-2z" />
<glyph unicode="w" horiz-adv-x="1724" d="M12 1087h234l291 -727l34 -120l45 129l181 422l-127 296h202l291 -727l35 -120l45 129l307 718h174l-487 -1114l-113 21l-221 541l-31 86l-28 -97l-240 -551l-106 21l-369 903v-2z" />
<glyph unicode="x" horiz-adv-x="944" d="M18 0l367 553l-258 408v-3l-109 129h234l217 -342l25 -43l20 43l221 342h187l-351 -520l361 -567h-211l-232 371l-24 45l-25 -49l-231 -367h-191z" />
<glyph unicode="y" horiz-adv-x="968" d="M12 1087h234l239 -401l23 -61l31 59l243 403h181l-381 -612v-342l20 -133h-194v475l-287 486v-3z" />
<glyph unicode="z" horiz-adv-x="1062" d="M66 51l575 809l72 86h-611l45 141h828l8 -51l-580 -815l-65 -80h666v-141h-932z" />
<glyph unicode="{" horiz-adv-x="561" d="M35 559v107q42 0 74 14.5t47.5 33.5t25 44.5t11.5 41t2 29.5v412q0 150 91.5 227.5t237.5 77.5v-127q-166 0 -166 -184v-404q0 -37 -9.5 -73.5t-23.5 -61.5t-28 -45t-23 -29l-10 -10q4 -4 10 -10.5t22.5 -28.5t29 -45.5t22.5 -60.5t10 -74v-577q0 -185 166 -185v-127 q-146 0 -237.5 78t-91.5 228v585q0 14 -2 29.5t-11.5 41t-25 45t-47.5 34t-74 14.5z" />
<glyph unicode="|" horiz-adv-x="464" d="M160 -520v2068h145v-2068h-145z" />
<glyph unicode="}" horiz-adv-x="561" d="M37 -369q166 0 166 185v577q0 37 9.5 73.5t23.5 61.5t28 45t24 29l9 10q-4 4 -10 10.5t-22.5 28.5t-29 45.5t-22.5 60.5t-10 74v404q0 184 -166 184v127q146 0 238 -77.5t92 -227.5v-412q0 -14 2 -29.5t11 -41t25 -44.5t47.5 -33.5t73.5 -14.5v-107q-42 0 -73.5 -14.5 t-47.5 -34t-25 -45t-11 -41t-2 -29.5v-585q0 -150 -92 -228t-238 -78v127z" />
<glyph unicode="~" horiz-adv-x="1183" d="M100 592q129 113 275 113q68 0 130.5 -20.5t102 -45.5t95.5 -45.5t112 -20.5q97 0 207 99l61 -121q-124 -127 -280 -127q-67 0 -132 20.5t-107.5 45t-97.5 45t-106 20.5q-99 0 -200 -88z" />
<glyph unicode="&#xa2;" horiz-adv-x="966" d="M104 485q0 135 44 250.5t137 197t221 99.5v166h106v-162q189 -9 299 -141l-84 -119q-23 36 -95 80t-120 45v-764q45 4 89.5 19.5t75.5 35.5t56 39t37 32l13 13l28 -161q-4 -4 -12.5 -11.5t-38 -27t-61.5 -36t-83 -33.5t-104 -25v-175h-106v166q-76 2 -142 32t-113 79 t-80.5 114t-50 138t-16.5 149zM289 518q0 -130 56 -234.5t161 -136.5v748q-69 -20 -119 -78.5t-74 -135.5t-24 -163z" />
<glyph unicode="&#xa3;" horiz-adv-x="1124" d="M84 -209q7 14 17.5 39t38 103t48.5 156t38.5 188t17.5 210v72h-125v139h125v439q0 81 29 150.5t74.5 115.5t102.5 79t112.5 47.5t105.5 14.5q71 0 136.5 -13.5t108.5 -33t75.5 -38.5t47.5 -33l15 -13l-70 -162q-5 6 -15.5 15.5t-42 34.5t-64 44t-80 34.5t-91.5 15.5 q-120 0 -193 -72t-73 -170v-455h424l-62 -139h-362v-90q0 -138 -24 -269.5t-48 -193.5l-24 -63h757l-41 -152h-958z" />
<glyph unicode="&#xa5;" horiz-adv-x="1064" d="M23 1348h258l299 -568l303 568h178l-334 -594h225l-41 -140h-260v-198h281l-41 -140h-240v-122l21 -154h-205v276h-264v140h264v198h-264v140h180l-233 448z" />
<glyph unicode="&#xa8;" horiz-adv-x="786" d="M106 1292q0 46 31 79.5t72 33.5t71.5 -33.5t30.5 -79.5q0 -47 -30 -79.5t-72 -32.5t-72.5 32.5t-30.5 79.5zM483 1292q0 46 31 79.5t72 33.5t71.5 -33.5t30.5 -79.5q0 -47 -30 -79.5t-72 -32.5t-72.5 32.5t-30.5 79.5z" />
<glyph unicode="&#xa9;" horiz-adv-x="1617" d="M113 639q0 321 206 521t541 200q185 0 333 -87t230 -238t82 -337q0 -212 -90 -377t-256 -256.5t-383 -91.5q-191 0 -343 87.5t-236 239.5t-84 339zM244 664q0 -249 165 -415.5t412 -166.5q112 0 214 44.5t177.5 121.5t120.5 188t45 236q0 255 -157.5 419t-403.5 164 q-116 0 -221.5 -44.5t-183 -121.5t-123 -188t-45.5 -237zM477 657q0 80 22.5 151t65 127t110 89t150.5 33q158 0 248 -107l-76 -106q-64 90 -176 90q-90 0 -141 -73t-51 -181q0 -69 20.5 -126.5t68 -96.5t113.5 -39q52 0 106.5 27.5t82.5 54.5l29 28l24 -135 q-4 -4 -12.5 -11t-36.5 -25t-59.5 -32t-81.5 -25t-103 -11q-94 0 -165 55t-104.5 137t-33.5 176z" />
<glyph unicode="&#xab;" horiz-adv-x="1302" d="M82 537l498 469l79 -132l-354 -339l354 -336l-79 -131zM551 537l498 469l79 -132l-354 -339l354 -336l-79 -131z" />
<glyph unicode="&#xad;" horiz-adv-x="618" d="M63 461v151h506l-41 -151h-465z" />
<glyph unicode="&#xae;" horiz-adv-x="1617" d="M113 639q0 321 206 521t541 200q185 0 333 -87t230 -238t82 -337q0 -212 -90 -377t-256 -256.5t-383 -91.5q-191 0 -343 87.5t-236 239.5t-84 339zM244 664q0 -249 165 -415.5t412 -166.5q112 0 214 44.5t177.5 121.5t120.5 188t45 236q0 255 -157.5 419t-403.5 164 q-116 0 -221.5 -44.5t-183 -121.5t-123 -188t-45.5 -237zM594 1040h221q104 0 177 -58t73 -163q0 -64 -35 -119.5t-102 -85.5l227 -295h-164l-186 265h-57v-178q0 -16 10 -87h-152v613zM748 666h49q48 0 87.5 47.5t39.5 105.5t-39 96.5t-88 38.5h-49v-288z" />
<glyph unicode="&#xb4;" horiz-adv-x="692" d="M139 1190l254 293h225l-366 -334z" />
<glyph unicode="&#xb8;" horiz-adv-x="823" d="M164 -418l49 101q22 -22 61.5 -35t81.5 -13q117 0 117 76q0 29 -28.5 55t-79 58.5t-76.5 56.5l20 105h60q15 -20 46 -42t60.5 -40.5t58.5 -41t46.5 -54t17.5 -68.5q0 -106 -69 -163.5t-169 -57.5q-108 0 -196 63z" />
<glyph unicode="&#xbb;" horiz-adv-x="1316" d="M156 199l354 336l-354 339l80 132l497 -469l-497 -469zM625 199l354 336l-354 339l80 132l497 -469l-497 -469z" />
<glyph unicode="&#x160;" horiz-adv-x="983" d="M111 125l20 176q6 -7 17.5 -19.5t48 -43.5t75 -54.5t96.5 -43t115 -19.5q92 0 155.5 60t63.5 163q0 54 -32.5 101t-84 82t-114.5 69t-125.5 71.5t-114 80.5t-84 104.5t-32.5 134.5q0 161 112 273t283 112q188 0 338 -96l-53 -150q-3 8 -40.5 30.5t-109 46.5t-141.5 24 q-78 0 -137.5 -50.5t-59.5 -134.5q0 -60 32 -108.5t83 -84t112.5 -68.5t123 -71t112.5 -82t83 -110t32 -147q0 -176 -111.5 -287t-296.5 -111q-68 0 -130.5 15.5t-103.5 38t-72.5 45t-45.5 38.5zM180 1751l113 41l209 -190l209 190l112 -41l-254 -293h-135z" />
<glyph unicode="&#x161;" horiz-adv-x="847" d="M111 102q0 -1 5 38.5t10 79.5l5 40l16 -16t43.5 -35t69 -44.5t87.5 -35.5t102 -16q82 0 135 42.5t53 120.5q0 42 -29 78t-75 63.5t-102 54.5t-112 57.5t-102 66t-75 86t-29 111.5q0 131 102 223t258 92q173 0 311 -82l-55 -143q-3 6 -37 25.5t-98.5 40t-126.5 20.5 q-69 0 -120.5 -35t-51.5 -98q0 -46 28.5 -83t74.5 -64t101.5 -53t111 -56t101.5 -66t74.5 -91t28.5 -124q0 -148 -101 -237t-270 -89q-61 0 -118 12.5t-94 30.5t-65 36.5t-41 31.5l-13 12zM117 1485l112 41l209 -191l209 191l113 -41l-254 -293h-135z" />
<glyph unicode="&#x17d;" horiz-adv-x="1159" d="M66 51l641 1016l90 123h-686l45 158h913l8 -52l-639 -1013l-94 -127h756v-156h-1026zM270 1751l113 41l209 -190l209 190l112 -41l-254 -293h-135z" />
<glyph unicode="&#x17e;" horiz-adv-x="993" d="M43 51l575 809l72 86h-610l45 141h827l9 -51l-580 -815l-66 -80h666v-141h-932zM164 1487l112 41l209 -191l209 191l113 -41l-254 -293h-135z" />
<glyph unicode="&#x2c6;" horiz-adv-x="823" d="M92 1190l254 293h127l254 -293l-109 -41l-210 190l-207 -190z" />
<glyph unicode="&#x2da;" horiz-adv-x="1064" d="M340 1331q0 73 54.5 126.5t127.5 53.5q74 0 130.5 -53.5t56.5 -126.5t-56.5 -126.5t-130.5 -53.5q-73 0 -127.5 53.5t-54.5 126.5zM416 1333q0 -43 31.5 -79.5t76.5 -36.5q49 0 79 35.5t30 80.5q0 44 -33.5 76.5t-75.5 32.5q-44 0 -76 -32.5t-32 -76.5z" />
<glyph unicode="&#x2dc;" horiz-adv-x="778" d="M76 1237q20 34 28 47.5t28 37.5t38 33.5t48.5 18t68.5 8.5q59 0 138.5 -38.5t115.5 -38.5q72 0 104 71l88 -53q-20 -34 -28 -47.5t-28 -37.5t-38 -33.5t-48.5 -18t-68.5 -8.5q-53 0 -100 18t-86 36.5t-70 18.5q-57 0 -102 -67z" />
<glyph unicode="&#x401;" d="M203 1348h700v-152h-489v-430h428l-41 -152h-387v-462h512l-41 -152h-656v1159zM270 1602q0 46 31 79t72 33t71.5 -33t30.5 -79q0 -47 -30 -80t-72 -33t-72.5 33t-30.5 80zM647 1602q0 46 31 79t72 33t71.5 -33t30.5 -79q0 -47 -30 -80t-72 -33t-72.5 33t-30.5 80z" />
<glyph unicode="&#x402;" horiz-adv-x="1314" d="M41 1192v156h717v-156h-307v-393q7 3 20 8t54.5 17.5t84.5 22t107 17.5t125 8q179 0 285 -107t106 -323v-155q0 -180 -58.5 -264t-177.5 -84q-20 0 -46.5 5.5t-42.5 11.5l-17 5l-27 166q51 -21 90 -21q43 0 69 43.5t26 137.5v155q0 140 -69.5 205.5t-205.5 65.5 q-76 0 -157 -19t-123 -38l-43 -19v-449l26 -188h-211v1192h-225z" />
<glyph unicode="&#x403;" horiz-adv-x="921" d="M203 1348h700v-156h-489v-1038l20 -154h-205v1159zM459 1487l254 293h225l-367 -334z" />
<glyph unicode="&#x404;" horiz-adv-x="1263" d="M92 645q0 338 175 532.5t476 194.5q248 0 431 -168l-95 -139q-150 156 -344 156q-192 0 -304 -120.5t-136 -322.5h563v-164h-567q13 -230 140.5 -356.5t318.5 -126.5q52 0 112 17.5t108.5 43t89.5 51t64 43.5l23 17l45 -151q-8 -7 -23 -19t-63.5 -43t-101 -54.5t-131 -43 t-156.5 -19.5q-133 0 -245 41t-197.5 122t-134 211t-48.5 298z" />
<glyph unicode="&#x405;" horiz-adv-x="983" d="M111 125l20 176q6 -7 17.5 -19.5t48 -43.5t75 -54.5t96.5 -43t115 -19.5q92 0 155.5 60t63.5 163q0 54 -32.5 101t-84 82t-114.5 69t-125.5 71.5t-114 80.5t-84 104.5t-32.5 134.5q0 161 112 273t283 112q188 0 338 -96l-53 -150q-3 8 -40.5 30.5t-109 46.5t-141.5 24 q-78 0 -137.5 -50.5t-59.5 -134.5q0 -60 32 -108.5t83 -84t112.5 -68.5t123 -71t112.5 -82t83 -110t32 -147q0 -176 -111.5 -287t-296.5 -111q-68 0 -130.5 15.5t-103.5 38t-72.5 45t-45.5 38.5z" />
<glyph unicode="&#x406;" horiz-adv-x="638" d="M203 1348h211v-1194l20 -154h-205v1159z" />
<glyph unicode="&#x407;" horiz-adv-x="638" d="M35 1602q0 46 30.5 79t71.5 33t72 -33t31 -79q0 -47 -30.5 -80t-72.5 -33t-72 33t-30 80zM203 1348h211v-1194l20 -154h-205v1159zM412 1602q0 46 30.5 79t71.5 33t71.5 -33t30.5 -79q0 -47 -30 -80t-72 -33t-72 33t-30 80z" />
<glyph unicode="&#x408;" horiz-adv-x="608" d="M-111 -395l11 180q59 -27 100 -27q97 0 157 93.5t60 226.5v1081l-27 189h211v-1270q0 -97 -23.5 -182.5t-71 -154.5t-126 -109t-180.5 -40q-44 0 -111 13z" />
<glyph unicode="&#x409;" horiz-adv-x="1812" d="M31 158q41 -13 82 -13q23 0 42.5 7t36 23.5t29.5 36.5t23.5 55.5t18.5 69t15.5 87.5t12 102.5t9.5 122t8.5 137t8.5 156.5l11 217l-27 189h780v-529h146q109 0 195.5 -22.5t143.5 -60.5t95 -91t54 -111t16 -124q0 -83 -27 -154t-84 -129.5t-157.5 -92.5t-235.5 -34h-330 v1184h-387l-10 -242q-5 -130 -9 -202.5t-12.5 -180.5t-19.5 -168.5t-28.5 -138.5t-42 -120t-58 -83.5t-79 -58.5t-101.5 -17q-47 0 -101 15zM1081 147h170q79 0 136.5 21.5t88.5 60t45.5 83t14.5 98.5q0 143 -77 202.5t-240 59.5h-138v-525z" />
<glyph unicode="&#x40a;" horiz-adv-x="1835" d="M203 1348h211v-557h506v368l-27 189h211v-557h145q108 0 195 -23.5t144 -61.5t95 -90.5t54 -107t16 -113.5t-16 -114t-54 -107t-95 -90t-144 -61t-195 -23h-329v627h-506v-473l20 -154h-205v1159zM1104 147h170q78 0 136 22t89 59.5t45.5 79t14.5 87.5q0 131 -78.5 189.5 t-239.5 58.5h-137v-496z" />
<glyph unicode="&#x40b;" horiz-adv-x="1331" d="M31 1192v156h717v-156h-308v-393q7 3 20 8t54.5 17.5t84.5 22t107 17.5t125 8q179 0 285.5 -107.5t106.5 -322.5v-254l26 -188h-211v442q0 140 -69 205.5t-205 65.5q-76 0 -157 -19t-124 -38l-43 -19v-449l27 -188h-211v1192h-225z" />
<glyph unicode="&#x40c;" horiz-adv-x="1202" d="M203 1348h211v-576h145l193 361q127 239 299 239q50 0 82 -12l18 -170q-24 6 -68 6q-83 0 -165 -147l-197 -353l450 -696h-233l-379 608h-145v-454l20 -154h-205v1159zM543 1454l254 293h225l-367 -334z" />
<glyph unicode="&#x40e;" horiz-adv-x="1259" d="M20 1348h252l363 -727l49 -140l47 140l313 727h195l-455 -1049q-72 -164 -167.5 -245t-237.5 -81q-46 0 -107 23l-28 174q58 -20 104 -20q167 0 238 139l-416 833zM354 1686l113 40q3 -8 9 -21.5t26.5 -47.5t43 -60t58 -47.5t72.5 -21.5t72 20.5t58.5 49.5t42 58t27.5 50 l9 20l112 -40q-2 -6 -5 -16.5t-16 -41t-29 -58t-43 -61.5t-58.5 -58.5t-76 -41t-93.5 -16.5t-93.5 16t-76 42t-58.5 57t-43.5 62.5t-28.5 57.5t-17 42z" />
<glyph unicode="&#x40f;" horiz-adv-x="1542" d="M203 0l26 188v1160h205l-20 -154v-1030h721v1184h204l-20 -154v-1194h-453v-328h-184v328h-479z" />
<glyph unicode="&#x410;" horiz-adv-x="1169" d="M-4 0l520 1348l125 26l418 -1149l102 -225h-223l-129 352h-502l-133 -352h-178zM362 508h396l-170 471l-21 80l-24 -82z" />
<glyph unicode="&#x411;" horiz-adv-x="1134" d="M203 1348h731v-152h-520v-377h125q135 0 235 -33.5t157 -92.5t84 -129.5t27 -153.5q0 -66 -16 -124t-54 -111t-94.5 -91.5t-143 -61t-195.5 -22.5h-310v1159zM414 147h149q79 0 136.5 21.5t88.5 60t45.5 83t14.5 98.5q0 143 -77.5 202.5t-240.5 59.5h-116v-525z" />
<glyph unicode="&#x412;" horiz-adv-x="1144" d="M203 1348l323 10q196 6 317.5 -78.5t121.5 -241.5q0 -126 -154 -280q54 -25 93 -52t72 -67t49.5 -95t16.5 -126q0 -86 -27 -158.5t-84 -132t-157 -93.5t-235 -34h-310v1159zM414 147h149q79 0 136.5 21.5t88.5 58.5t45.5 79.5t14.5 92.5q0 136 -78.5 195t-239.5 59h-116 v-506zM414 805h147q22 0 45 -1.5t40.5 -3.5t32 -4t23 -3.5t9.5 -1.5q77 103 77 206q0 108 -69 159.5t-217 51.5q-26 0 -88 -4v-399z" />
<glyph unicode="&#x413;" horiz-adv-x="921" d="M203 1348h700v-156h-489v-1038l20 -154h-205v1159z" />
<glyph unicode="&#x414;" horiz-adv-x="1353" d="M20 -328l5 492h129q93 172 124 369.5t31 490.5l2 135l-26 189h829v-1184h154l4 -492h-187l-2 328h-874l-2 -328h-187zM358 164h572v1020h-436v-160q0 -287 -28.5 -487t-107.5 -373z" />
<glyph unicode="&#x415;" d="M203 1348h700v-152h-489v-430h428l-41 -152h-387v-462h512l-41 -152h-656v1159z" />
<glyph unicode="&#x416;" horiz-adv-x="1679" d="M31 0l430 696l-176 353q-73 147 -166 147q-44 0 -68 -6l19 170q32 12 82 12q183 0 299 -239l176 -361h121v387l-27 189h211v-576h121l176 361q116 239 299 239q50 0 82 -12l18 -170q-24 6 -67 6q-93 0 -166 -147l-176 -353l430 -696h-228l-366 608h-123v-454l20 -154 h-204v608h-123l-367 -608h-227z" />
<glyph unicode="&#x417;" horiz-adv-x="1044" d="M82 133l45 152q6 -6 17.5 -16.5t49.5 -37t77.5 -47t99 -37t118.5 -16.5q54 0 99.5 17t74 43.5t48.5 60.5t28.5 66.5t8.5 62.5q0 134 -73.5 194t-213.5 60h-148v153h156q89 0 160 -18q90 97 90 242q0 96 -64 152.5t-174 56.5q-157 0 -295 -144l-94 140q169 155 391 155 q87 0 160.5 -21t130.5 -63.5t89 -113t32 -162.5q0 -75 -43 -148.5t-111 -134.5q101 -55 151 -147t50 -201q0 -64 -16 -122t-52 -110.5t-87.5 -91.5t-128 -61.5t-169.5 -22.5q-67 0 -133.5 16.5t-113.5 40t-84.5 47t-56.5 39.5z" />
<glyph unicode="&#x418;" horiz-adv-x="1542" d="M203 1348h211v-1072l55 105l672 967h178v-1194l20 -154h-204v1071l-56 -104l-671 -967h-179v1159z" />
<glyph unicode="&#x419;" horiz-adv-x="1542" d="M203 1348h211v-1072l55 105l672 967h178v-1194l20 -154h-204v1071l-56 -104l-671 -967h-179v1159zM453 1686l112 40q3 -8 9 -21.5t26.5 -47.5t43 -60t58 -47.5t72.5 -21.5t72 20.5t58.5 49.5t42 58t27.5 50l9 20l113 -40q-2 -6 -5 -16.5t-16.5 -41t-29 -58t-43 -61.5 t-58.5 -58.5t-76 -41t-94 -16.5t-93.5 16t-76 42t-58 57t-43.5 62.5t-28.5 57.5t-16.5 42z" />
<glyph unicode="&#x41a;" horiz-adv-x="1202" d="M203 1348h211v-576h145l193 361q127 239 299 239q50 0 82 -12l18 -170q-24 6 -68 6q-83 0 -165 -147l-197 -353l450 -696h-233l-379 608h-145v-454l20 -154h-205v1159z" />
<glyph unicode="&#x41b;" horiz-adv-x="1368" d="M31 158q41 -13 82 -13q23 0 42.5 7t36 23.5t29.5 36.5t23.5 55.5t18.5 69t15.5 87.5t12 102.5t9.5 122t8.5 137t8.5 156.5l11 217l-27 189h844v-1194l20 -154h-204v1184h-451l-10 -242q-5 -130 -9 -202.5t-12.5 -180.5t-19.5 -168.5t-28.5 -138.5t-42 -120t-58 -83.5 t-79 -58.5t-101.5 -17q-47 0 -101 15z" />
<glyph unicode="&#x41c;" horiz-adv-x="1830" d="M203 1348h135l610 -871l553 871h115v-1194l20 -154h-204v948l-72 -143l-420 -653l-475 653l-68 135v-786l21 -154h-189v1159z" />
<glyph unicode="&#x41d;" horiz-adv-x="1542" d="M203 1348h211v-570h721v381l-27 189h211v-1194l20 -154h-204v614h-721v-460l20 -154h-205v1159z" />
<glyph unicode="&#x41e;" horiz-adv-x="1392" d="M94 662q0 146 47.5 277t128.5 226.5t195.5 151t243.5 55.5q145 0 258.5 -51.5t185.5 -144t109.5 -217t37.5 -273.5q0 -196 -81 -359.5t-223 -258.5t-314 -95q-137 0 -249.5 54.5t-186 148t-113 218.5t-39.5 268zM295 674q0 -152 49.5 -278t142.5 -200.5t211 -74.5 t210.5 74.5t142 200.5t49.5 278t-49.5 278t-142 200.5t-210.5 74.5t-211 -74.5t-142.5 -200.5t-49.5 -278z" />
<glyph unicode="&#x41f;" horiz-adv-x="1542" d="M203 1348h1116v-1194l20 -154h-204v1184h-721v-1030l20 -154h-205v1159z" />
<glyph unicode="&#x420;" horiz-adv-x="1118" d="M203 1348h381q69 0 132.5 -15.5t120 -48.5t98.5 -80t66.5 -114.5t24.5 -147.5q0 -178 -147.5 -308t-364.5 -130h-100v-350l20 -154h-205v1159zM414 655h133q118 0 201 79.5t83 207.5q0 121 -81.5 187.5t-202.5 66.5h-133v-541z" />
<glyph unicode="&#x421;" horiz-adv-x="1263" d="M92 645q0 154 51.5 290t139 231.5t207.5 150.5t253 55q248 0 431 -168l-95 -139q-150 156 -344 156q-128 0 -231.5 -79.5t-159 -206t-55.5 -269.5q0 -120 40 -222.5t105 -169.5t147.5 -105t168.5 -38q52 0 112 17.5t108.5 43t89.5 51t64 43.5l23 17l45 -151 q-8 -7 -23 -19t-63.5 -43t-101 -54.5t-131 -43t-156.5 -19.5q-121 0 -232 44.5t-199 126.5t-141 212t-53 289z" />
<glyph unicode="&#x422;" horiz-adv-x="1077" d="M10 1192v156h1057v-156h-442v-1038l20 -154h-205v1192h-430z" />
<glyph unicode="&#x423;" horiz-adv-x="1259" d="M20 1348h252l363 -727l49 -140l47 140l313 727h195l-455 -1049q-72 -164 -167.5 -245t-237.5 -81q-46 0 -107 23l-28 174q58 -20 104 -20q167 0 238 139l-416 833z" />
<glyph unicode="&#x424;" horiz-adv-x="1429" d="M61 657q0 154 75.5 273.5t202.5 183.5t284 66l-27 188h211v-188q157 -2 284 -66t202 -183.5t75 -273.5t-75 -273.5t-202 -184t-284 -66.5l20 -153h-204v153q-157 2 -284 66.5t-202.5 184t-75.5 273.5zM262 657q0 -172 98.5 -277.5t262.5 -105.5v764q-165 0 -263 -105 t-98 -276zM807 274q164 0 262 105.5t98 277.5q0 171 -97.5 276t-262.5 105v-764z" />
<glyph unicode="&#x425;" horiz-adv-x="1017" d="M18 0l400 684l-289 518l-106 146h239l240 -428l30 -64l27 64l244 428h192l-383 -648l394 -700h-220l-254 461l-30 67l-33 -71l-256 -457h-195z" />
<glyph unicode="&#x426;" horiz-adv-x="1490" d="M203 1348h205v-1184h659v1030l-20 154h204v-1184h154l4 -492h-186l-2 328h-998v1194z" />
<glyph unicode="&#x427;" horiz-adv-x="1339" d="M123 1348h211v-443q0 -140 69 -205t205 -65q76 0 157 19t124 38l43 19v448l-27 189h211v-1194l21 -154h-205v549q-19 -8 -54 -20.5t-137.5 -33t-199.5 -20.5q-179 0 -285 107t-106 323v254z" />
<glyph unicode="&#x428;" horiz-adv-x="2007" d="M203 1348h205v-1184h514v1030l-21 154h205v-1184h514v1030l-21 154h205v-1348h-1581v1194z" />
<glyph unicode="&#x429;" horiz-adv-x="2043" d="M203 1348h205v-1184h514v1030l-21 154h205v-1184h514v1030l-21 154h205v-1184h154l4 -492h-186l-2 328h-1551v1194z" />
<glyph unicode="&#x42a;" horiz-adv-x="1206" d="M0 1192v156h496v-529h125q135 0 235 -33.5t157 -92.5t84 -129.5t27 -153.5q0 -66 -16 -124t-54 -111t-94.5 -91.5t-143 -61t-195.5 -22.5h-310v1192h-311zM496 147h149q79 0 136.5 21.5t88.5 60t45.5 83t14.5 98.5q0 143 -77.5 202.5t-240.5 59.5h-116v-525z" />
<glyph unicode="&#x42b;" horiz-adv-x="1656" d="M203 1348h211v-529h125q135 0 235 -33.5t157 -92.5t84 -129.5t27 -153.5q0 -66 -16 -124t-54 -111t-94.5 -91.5t-143 -61t-195.5 -22.5h-310v1159zM414 147h149q79 0 136.5 21.5t88.5 60t45.5 83t14.5 98.5q0 143 -77.5 202.5t-240.5 59.5h-116v-525zM1223 1348h211 v-1194l20 -154h-205v1159z" />
<glyph unicode="&#x42c;" horiz-adv-x="1124" d="M203 1348h211v-529h125q135 0 235 -33.5t157 -92.5t84 -129.5t27 -153.5q0 -66 -16 -124t-54 -111t-94.5 -91.5t-143 -61t-195.5 -22.5h-310v1159zM414 147h149q79 0 136.5 21.5t88.5 60t45.5 83t14.5 98.5q0 143 -77.5 202.5t-240.5 59.5h-116v-525z" />
<glyph unicode="&#x42d;" horiz-adv-x="1263" d="M72 152l45 151q9 -7 24 -18.5t61.5 -41t92 -52.5t106.5 -41.5t113 -18.5q191 0 318.5 126.5t140.5 356.5h-567v164h563q-24 202 -136.5 322.5t-304.5 120.5q-194 0 -344 -156l-94 139q183 168 430 168q301 0 476 -194.5t175 -532.5q0 -135 -31.5 -246t-88 -189t-135 -132 t-171 -79.5t-198.5 -25.5q-78 0 -155.5 18.5t-133 44.5t-99 52.5t-65.5 45.5z" />
<glyph unicode="&#x42e;" horiz-adv-x="1826" d="M203 1348h211v-570h184q22 167 103.5 303t206 213.5t266.5 77.5q134 0 241 -52t176.5 -144t106.5 -217t37 -273q0 -146 -47.5 -278.5t-126.5 -227.5t-187.5 -151t-226.5 -56q-161 0 -286 86t-194 230.5t-77 324.5h-176v-460l20 -154h-205v1159zM791 674 q0 -151 48.5 -277.5t134.5 -201t189 -74.5t188.5 74.5t134 201t48.5 277.5t-48.5 277.5t-134 201t-188.5 74.5t-189 -74.5t-134.5 -201t-48.5 -277.5z" />
<glyph unicode="&#x42f;" horiz-adv-x="1234" d="M82 0l367 567q-131 48 -193.5 147t-62.5 224q0 66 16 124t54 111t94.5 91.5t143 61t195.5 22.5h310v-1160l26 -188h-211v528h-176l-330 -528h-233zM387 938q0 -143 77.5 -202.5t240.5 -59.5h116v524h-149q-79 0 -136.5 -21.5t-88.5 -59.5t-45.5 -82.5t-14.5 -98.5z" />
<glyph unicode="&#x430;" horiz-adv-x="1056" d="M-4 0l475 1087l104 23l375 -917l99 -193h-205l-117 283h-446l-121 -283h-164zM336 422h338l-144 354l-18 62l-23 -62z" />
<glyph unicode="&#x431;" horiz-adv-x="1058" d="M203 1087h676v-137h-478v-266h113q124 0 216.5 -27.5t145 -76.5t77 -108t24.5 -130t-24.5 -130t-77 -108t-145 -76.5t-216.5 -27.5h-287v934zM401 135h136q256 0 256 207q0 119 -68.5 163t-216.5 44h-107v-414z" />
<glyph unicode="&#x432;" horiz-adv-x="1071" d="M203 1087l323 9q168 0 270.5 -68.5t102.5 -191.5q0 -103 -129 -222q98 -41 148.5 -101t50.5 -169q0 -70 -25 -129.5t-77 -109t-143 -77.5t-212 -28h-283v928zM403 135h129q70 0 121.5 16.5t79 45.5t40.5 62t13 71q0 104 -68.5 146t-213.5 42h-101v-383zM403 655h129 q24 0 57.5 -2.5t54.5 -4.5l22 -3q65 73 65 158q0 82 -60.5 120t-193.5 38q-7 0 -74 -5v-301z" />
<glyph unicode="&#x433;" horiz-adv-x="864" d="M203 1087h643v-133h-445v-829l19 -125h-193v934z" />
<glyph unicode="&#x434;" horiz-adv-x="1251" d="M25 141h116q83 137 110 289t32 399l2 105l-25 153h766v-946h139v-407h-168v266h-804v-266h-168v407zM334 141h518v803h-395v-115q0 -231 -25.5 -389t-97.5 -299z" />
<glyph unicode="&#x435;" horiz-adv-x="966" d="M203 1087h641v-137h-441v-323h390l-43 -138h-347v-352h465l-43 -137h-596v928z" />
<glyph unicode="&#x436;" horiz-adv-x="1540" d="M31 0l391 561l-162 285q-66 119 -149 119q-34 0 -62 -4l17 137q35 10 73 10q165 0 273 -195l159 -286h111v307l-25 153h199v-460h111l159 286q108 195 273 195q39 0 74 -10l16 -137q-28 4 -62 4q-36 0 -75.5 -28.5t-73.5 -90.5l-162 -285l393 -561h-206l-334 487h-113 v-362l18 -125h-192v487h-111l-333 -487h-207z" />
<glyph unicode="&#x437;" horiz-adv-x="968" d="M82 109l41 129q6 -5 16.5 -13.5t45 -30t71 -38t90.5 -30t107 -13.5q62 0 108.5 19t71.5 50t37 63t12 64q0 108 -63.5 154.5t-190.5 46.5h-135v133h141q71 0 146 -14q79 73 79 186q0 79 -56 120.5t-157 41.5q-142 0 -268 -117l-86 125q157 127 357 127q174 0 279.5 -72.5 t105.5 -220.5q0 -61 -41.5 -120.5t-110.5 -108.5q93 -44 138.5 -118.5t45.5 -162.5q0 -65 -24.5 -123t-72.5 -105.5t-129.5 -75.5t-186.5 -28q-60 0 -120.5 13.5t-103.5 33t-77.5 39t-51.5 33.5z" />
<glyph unicode="&#x438;" horiz-adv-x="1439" d="M203 1087h198v-858l50 86l606 772h162v-962l18 -125h-193v858l-49 -86l-606 -772h-162v934z" />
<glyph unicode="&#x439;" horiz-adv-x="1439" d="M203 1087h198v-858l50 86l606 772h162v-962l18 -125h-193v858l-49 -86l-606 -772h-162v934zM430 1366l102 33q3 -7 8.5 -17.5t24.5 -38.5t39.5 -49.5t53 -39t65.5 -17.5t65 16.5t53.5 40.5t38.5 48t25 40l8 17l103 -33q-2 -5 -5 -13.5t-15 -33.5t-26.5 -47.5t-39.5 -49.5 t-53 -47t-68.5 -33.5t-85.5 -13.5q-61 0 -114 24.5t-84.5 59.5t-54 70t-31.5 60z" />
<glyph unicode="&#x43a;" horiz-adv-x="1122" d="M203 1087h198v-458h136l172 284q118 195 272 195q39 0 74 -10l16 -137q-28 4 -61 4q-73 0 -150 -119l-182 -283l414 -563h-213l-342 485h-136v-360l19 -125h-193v934z" />
<glyph unicode="&#x43b;" horiz-adv-x="1265" d="M31 127q31 -8 73 -8q26 0 47 8.5t37.5 30.5t28.5 46.5t22 71t16.5 87.5t12.5 113t10 131t9 157l10 170l-25 153h772v-962l19 -125h-193v944h-399l-10 -180q-5 -119 -9.5 -187t-14 -163.5t-23 -149.5t-37.5 -117t-55.5 -94.5t-78.5 -53.5t-106 -22q-31 0 -90 13z" />
<glyph unicode="&#x43c;" horiz-adv-x="1695" d="M190 1087h119l555 -704l494 704h110v-954l21 -133h-195v739l-57 -98l-381 -528l-428 520l-57 104v-604l20 -133h-176v930z" />
<glyph unicode="&#x43d;" horiz-adv-x="1445" d="M203 1087h200v-452h641v293l-26 159h201v-954l20 -133h-195v487h-641v-354l21 -133h-195v928z" />
<glyph unicode="&#x43e;" horiz-adv-x="1280" d="M94 530q0 159 72.5 291.5t200.5 209.5t284 77q174 0 297 -73.5t181.5 -197.5t58.5 -286q0 -159 -73 -291.5t-201.5 -209.5t-284.5 -77q-124 0 -226.5 44t-169 119.5t-103 176.5t-36.5 217zM285 541q0 -184 100 -309.5t258 -125.5t257 125.5t99 309.5t-99 309t-257 125 t-258 -125t-100 -309z" />
<glyph unicode="&#x43f;" horiz-adv-x="1445" d="M203 1087h1016v-954l20 -133h-195v940h-641v-807l21 -133h-195v928z" />
<glyph unicode="&#x440;" horiz-adv-x="1046" d="M203 1087h348q79 0 150 -20.5t128 -59.5t91 -104t34 -147q0 -145 -134.5 -252t-330.5 -107h-86v-264l21 -133h-195v928zM403 535h115q105 0 178.5 60.5t73.5 160.5q0 92 -72.5 143t-179.5 51h-115v-415z" />
<glyph unicode="&#x441;" horiz-adv-x="1165" d="M92 518q0 167 79.5 302.5t215 211.5t297.5 76q223 0 395 -141l-94 -121q-134 125 -309 125q-114 0 -206.5 -62.5t-141.5 -162t-49 -211.5q0 -94 35.5 -174t93 -132t130.5 -81t150 -29q48 0 102.5 13.5t98.5 33t81.5 39.5t57.5 33l21 14l45 -133q-8 -6 -21.5 -16t-59 -35 t-93.5 -44t-119.5 -35t-141.5 -16q-110 0 -211 36t-181 102.5t-127.5 172t-47.5 234.5z" />
<glyph unicode="&#x442;" horiz-adv-x="980" d="M10 948v139h961v-139h-400v-815l21 -133h-195v948h-387z" />
<glyph unicode="&#x443;" horiz-adv-x="1155" d="M20 1087h234l328 -591l45 -113l43 113l284 591h181l-412 -851q-63 -131 -153.5 -197t-219.5 -66q-44 0 -96 19l-27 141q56 -18 95 -18q148 0 213 112l-379 678z" />
<glyph unicode="&#x444;" horiz-adv-x="1314" d="M61 528q0 188 145 304t365 118l-22 154h194v-154q220 -2 365 -118t145 -304q0 -187 -145.5 -303.5t-364.5 -118.5l19 -124h-191v124q-219 2 -364.5 118.5t-145.5 303.5zM246 528q0 -138 88 -223.5t237 -85.5v619q-149 0 -237 -85.5t-88 -224.5zM743 219q150 0 238 85.5 t88 223.5q0 140 -87.5 225t-238.5 85v-619z" />
<glyph unicode="&#x445;" horiz-adv-x="944" d="M18 0l367 553l-258 408v-3l-109 129h234l217 -342l25 -43l20 43l221 342h187l-351 -520l361 -567h-211l-232 371l-24 45l-25 -49l-231 -367h-191z" />
<glyph unicode="&#x446;" horiz-adv-x="1388" d="M203 1087h192v-948h600v824l-18 124h186v-948h140l4 -405h-170l-2 266h-914v963z" />
<glyph unicode="&#x447;" horiz-adv-x="1234" d="M123 1087h196v-350q0 -219 248 -219q71 0 144 15.5t110 30.5l37 16v354l-24 153h198v-962l19 -125h-193v438q-17 -7 -48.5 -16.5t-125 -26t-182.5 -16.5q-163 0 -260 87t-97 261v207z" />
<glyph unicode="&#x448;" horiz-adv-x="1882" d="M203 1087h192v-948h467v824l-18 124h192v-948h469v824l-18 124h192v-1087h-1458v963z" />
<glyph unicode="&#x449;" horiz-adv-x="1904" d="M203 1087h192v-948h467v824l-18 124h192v-948h469v824l-18 124h192v-948h140l4 -405h-170l-2 266h-1430v963z" />
<glyph unicode="&#x44a;" horiz-adv-x="1118" d="M0 952v135h457v-407h112q126 0 219 -27.5t145.5 -75.5t77.5 -107t25 -130t-25 -130t-77.5 -107t-145.5 -75.5t-219 -27.5h-286v952h-283zM457 133h135q140 0 200 57.5t60 149.5q0 116 -70 161.5t-219 45.5h-106v-414z" />
<glyph unicode="&#x44b;" horiz-adv-x="1560" d="M203 1087h198v-407h113q126 0 219 -27.5t145.5 -75.5t77.5 -107t25 -130t-25 -130t-77.5 -107t-145.5 -75.5t-219 -27.5h-287v934zM401 133h136q140 0 200 57.5t60 149.5q0 116 -70 161.5t-219 45.5h-107v-414zM1141 1087h198v-962l19 -125h-193v934z" />
<glyph unicode="&#x44c;" horiz-adv-x="1062" d="M203 1087h198v-407h113q126 0 219 -27.5t145.5 -75.5t77.5 -107t25 -130t-25 -130t-77.5 -107t-145.5 -75.5t-219 -27.5h-287v934zM401 133h136q140 0 200 57.5t60 149.5q0 116 -70 161.5t-219 45.5h-107v-414z" />
<glyph unicode="&#x44d;" horiz-adv-x="1167" d="M72 123l41 135q8 -6 22 -15t56 -33t83 -42.5t96.5 -33.5t102.5 -15q177 0 292.5 95.5t125.5 277.5h-516v141h512q-19 159 -121 249.5t-279 90.5t-313 -127l-86 125q169 137 391 137q275 0 435.5 -156.5t160.5 -429.5q0 -135 -44.5 -241t-122.5 -171.5t-180.5 -99 t-223.5 -33.5q-71 0 -141.5 15t-121 36.5t-90 43t-59.5 36.5z" />
<glyph unicode="&#x44e;" horiz-adv-x="1695" d="M203 1087h198v-456h168q31 205 179 340t344 135q243 0 377.5 -152.5t134.5 -398.5q0 -118 -43 -225.5t-115 -184.5t-171 -122.5t-206 -45.5q-220 0 -358.5 148.5t-149.5 372.5h-160v-373l19 -125h-193v934zM745 543q0 -172 98 -299t240 -127t239 127t97 299 q0 173 -97 299.5t-239 126.5q-94 0 -172.5 -59t-122 -156.5t-43.5 -210.5z" />
<glyph unicode="&#x44f;" horiz-adv-x="1157" d="M82 0l334 459q-121 39 -180.5 119.5t-59.5 181.5q0 67 25 123.5t77 103.5t145 73.5t218 26.5h289v-933l24 -154h-198v428h-160l-305 -428h-209zM360 760q0 -114 72 -158.5t217 -44.5h107v401h-138q-133 0 -195.5 -54.5t-62.5 -143.5z" />
<glyph unicode="&#x451;" horiz-adv-x="970" d="M203 1335q0 46 30.5 79.5t71.5 33.5t72 -33.5t31 -79.5q0 -47 -30.5 -79.5t-72.5 -32.5t-72 32.5t-30 79.5zM207 1087h641v-137h-440v-323h389l-43 -138h-346v-352h464l-43 -137h-596v928zM580 1335q0 46 30.5 79.5t71.5 33.5t71.5 -33.5t30.5 -79.5q0 -47 -30 -79.5 t-72 -32.5t-72 32.5t-30 79.5z" />
<glyph unicode="&#x452;" horiz-adv-x="1173" d="M0 961v126h659v-126h-280v-314q17 7 47.5 17t122.5 26.5t180 16.5q167 0 265 -87t98 -262v-127q0 -146 -55 -213t-167 -67q-18 0 -42 4.5t-39 8.5l-15 5l-24 133q46 -16 81 -16q87 0 87 145v127q0 112 -62 160.5t-188 48.5q-69 0 -141.5 -15.5t-110.5 -30.5l-37 -15v-352 l24 -154h-198v961h-205z" />
<glyph unicode="&#x453;" horiz-adv-x="897" d="M203 1087h643v-147h-445v-815l19 -125h-193v934zM442 1200l232 238h205l-334 -271z" />
<glyph unicode="&#x454;" horiz-adv-x="1167" d="M92 522q0 273 160.5 429.5t435.5 156.5q222 0 391 -137l-86 -125q-136 127 -313 127t-278.5 -90t-120.5 -250h512v-141h-517q10 -182 125.5 -277.5t292.5 -95.5q47 0 101.5 14.5t98.5 34.5t81.5 40.5t58.5 35.5l21 14l41 -135q-7 -6 -20.5 -16t-58 -35t-92 -44t-119 -35 t-142.5 -16q-121 0 -223.5 33.5t-181 99t-123 171.5t-44.5 241z" />
<glyph unicode="&#x455;" horiz-adv-x="913" d="M111 102q0 -1 5 38.5t10 79.5l5 40l16 -16t43.5 -35t69 -44.5t87.5 -35.5t102 -16q82 0 135 42.5t53 120.5q0 42 -29 78t-75 63.5t-102 54.5t-112 57.5t-102 66t-75 86t-29 111.5q0 131 102 223t258 92q173 0 311 -82l-55 -143q-3 6 -37 25.5t-98.5 40t-126.5 20.5 q-69 0 -120.5 -35t-51.5 -98q0 -46 28.5 -83t74.5 -64t101.5 -53t111 -56t101.5 -66t74.5 -91t28.5 -124q0 -148 -101 -237t-270 -89q-61 0 -118 12.5t-94 30.5t-65 36.5t-41 31.5l-13 12z" />
<glyph unicode="&#x456;" horiz-adv-x="628" d="M203 1087h200v-954l21 -133h-195v928z" />
<glyph unicode="&#x457;" horiz-adv-x="540" d="M-10 1292q0 46 30.5 79.5t71.5 33.5t72 -33.5t31 -79.5q0 -47 -30.5 -79.5t-72.5 -32.5t-72 32.5t-30 79.5zM164 1087h201v-960l16 -127h-193v936zM367 1292q0 46 30.5 79.5t71.5 33.5t71.5 -33.5t30.5 -79.5q0 -47 -30 -79.5t-72 -32.5t-72 32.5t-30 79.5z" />
<glyph unicode="&#x458;" horiz-adv-x="565" d="M-111 -315l11 161q52 -22 94 -22q85 0 137.5 71.5t52.5 174.5v860l-24 157h198v-1017q0 -79 -21.5 -148.5t-64.5 -126t-114.5 -89t-163.5 -32.5q-54 0 -105 11z" />
<glyph unicode="&#x459;" horiz-adv-x="1665" d="M31 127q31 -8 73 -8q26 0 47 8.5t38 30t29.5 47t22.5 70.5t17 88.5t13 112.5t10.5 131.5t9.5 156.5l10 170l-25 153h709v-407h133q123 0 215.5 -28t145.5 -76.5t78.5 -106.5t25.5 -125t-25.5 -126t-78.5 -109t-146 -79.5t-215 -29.5h-307v954h-340l-10 -190 q-6 -109 -10 -164.5t-12 -146t-18 -137.5t-26.5 -112t-39 -98t-53.5 -67.5t-72.5 -48t-92.5 -13.5q-31 0 -90 13zM985 137h156q139 0 198.5 57.5t59.5 149.5q0 115 -69 157t-220 42h-125v-406z" />
<glyph unicode="&#x45a;" horiz-adv-x="1714" d="M203 1087h198v-446h461v293l-24 153h198v-434h133q122 0 215 -29t145 -77.5t77.5 -104t25.5 -116.5t-25.5 -116.5t-77.5 -103.5t-145 -77t-215 -29h-307v508h-461v-383l19 -125h-193v934zM1036 131h156q136 0 196 57t60 138q0 106 -70 150t-217 44h-125v-389z" />
<glyph unicode="&#x45b;" horiz-adv-x="1196" d="M0 954v133h657v-133h-278v-307q17 7 48.5 17t124.5 26.5t181 16.5q163 0 260 -87t97 -262v-204l24 -154h-199v358q0 113 -58.5 160t-184.5 47q-69 0 -142.5 -15.5t-111.5 -30.5l-39 -15v-350l22 -154h-196v954h-205z" />
<glyph unicode="&#x45c;" horiz-adv-x="1122" d="M203 1087h198v-462h131l177 288q118 195 272 195q39 0 74 -10l16 -137q-28 4 -61 4q-76 0 -150 -119l-180 -283l412 -563h-213l-347 494h-131v-369l19 -125h-193v934zM518 1174l232 237h204l-333 -270z" />
<glyph unicode="&#x45e;" horiz-adv-x="1155" d="M20 1087h230l330 -585l45 -113l43 113l284 585h183l-414 -845q-65 -132 -155 -198.5t-220 -66.5q-33 0 -96 19l-27 141q53 -16 96 -16q146 0 211 112l-372 672zM324 1362l102 33q3 -7 8.5 -17.5t24 -38.5t39 -49.5t53 -39t65.5 -17.5q34 0 66 16.5t53.5 40.5t38.5 48 t25 40l8 17l102 -33q-3 -10 -9 -26t-30.5 -57t-55 -72.5t-83.5 -57t-115 -25.5q-61 0 -114 24.5t-84 59.5t-53.5 70t-31.5 60z" />
<glyph unicode="&#x45f;" horiz-adv-x="1452" d="M203 0l24 154v933h193l-19 -124v-822h656v946h192l-18 -124v-963h-416v-266h-172v266h-440z" />
<glyph unicode="&#x490;" horiz-adv-x="921" d="M203 1348h536v157h164v-313h-489v-1038l20 -154h-205v1159z" />
<glyph unicode="&#x491;" horiz-adv-x="864" d="M203 1087h495v127h148v-274h-445v-815l19 -125h-193v934z" />
<glyph unicode="&#x2000;" horiz-adv-x="896" />
<glyph unicode="&#x2001;" horiz-adv-x="1792" />
<glyph unicode="&#x2002;" horiz-adv-x="896" />
<glyph unicode="&#x2003;" horiz-adv-x="1792" />
<glyph unicode="&#x2004;" horiz-adv-x="597" />
<glyph unicode="&#x2005;" horiz-adv-x="448" />
<glyph unicode="&#x2006;" horiz-adv-x="298" />
<glyph unicode="&#x2007;" horiz-adv-x="298" />
<glyph unicode="&#x2008;" horiz-adv-x="224" />
<glyph unicode="&#x2009;" horiz-adv-x="358" />
<glyph unicode="&#x200a;" horiz-adv-x="99" />
<glyph unicode="&#x2010;" horiz-adv-x="618" d="M63 461v151h506l-41 -151h-465z" />
<glyph unicode="&#x2011;" horiz-adv-x="618" d="M63 461v151h506l-41 -151h-465z" />
<glyph unicode="&#x2012;" horiz-adv-x="618" d="M63 461v151h506l-41 -151h-465z" />
<glyph unicode="&#x2013;" horiz-adv-x="925" d="M63 430v152h814l-41 -152h-773z" />
<glyph unicode="&#x2014;" horiz-adv-x="1390" d="M63 430v152h1276l-41 -152h-1235z" />
<glyph unicode="&#x2018;" horiz-adv-x="552" d="M143 1008q0 88 55 196t158 176l74 -71q-42 -40 -78.5 -99.5t-36.5 -105.5q0 -39 16 -58.5t58 -37.5q0 -65 -31 -106.5t-92 -41.5q-51 0 -87 38.5t-36 109.5z" />
<glyph unicode="&#x2019;" horiz-adv-x="552" d="M123 932q42 40 78.5 99.5t36.5 105.5q0 39 -16 58.5t-58 37.5v18q0 55 34 92t89 37q51 0 87 -38t36 -109q0 -89 -55 -197t-158 -176z" />
<glyph unicode="&#x201a;" horiz-adv-x="552" d="M123 -217q42 40 78.5 99.5t36.5 105.5q0 39 -16 58.5t-58 37.5v18q0 55 34 92t89 37q51 0 87 -38t36 -109q0 -89 -55 -197t-158 -176z" />
<glyph unicode="&#x201c;" horiz-adv-x="911" d="M143 1008q0 88 55 196t158 176l74 -71q-42 -40 -78.5 -99.5t-36.5 -105.5q0 -39 16 -58.5t58 -37.5q0 -65 -31 -106.5t-92 -41.5q-51 0 -87 38.5t-36 109.5zM502 1008q0 88 55 196t158 176l73 -71q-42 -40 -78 -99t-36 -106q0 -39 16 -58.5t58 -37.5q0 -65 -31 -106.5 t-92 -41.5q-51 0 -87 38.5t-36 109.5z" />
<glyph unicode="&#x201d;" horiz-adv-x="911" d="M123 932q42 40 78.5 99.5t36.5 105.5q0 39 -16 58.5t-58 37.5v18q0 55 34 92t89 37q51 0 87 -38t36 -109q0 -89 -55 -197t-158 -176zM481 932q42 40 78.5 99.5t36.5 105.5q0 39 -16 58.5t-58 37.5v18q0 55 34 92t89 37q51 0 87 -38t36 -109q0 -89 -55 -197t-158 -176z " />
<glyph unicode="&#x201e;" horiz-adv-x="911" d="M123 -217q42 40 78.5 99.5t36.5 105.5q0 39 -16 58.5t-58 37.5v18q0 55 34 92t89 37q51 0 87 -38t36 -109q0 -89 -55 -197t-158 -176zM481 -217q42 40 78.5 99.5t36.5 105.5q0 39 -16 58.5t-58 37.5v18q0 55 34 92t89 37q51 0 87 -38t36 -109q0 -89 -55 -197t-158 -176z " />
<glyph unicode="&#x2022;" horiz-adv-x="868" d="M158 559q0 113 79.5 191.5t194.5 78.5q113 0 193 -79t80 -191q0 -115 -80 -194.5t-193 -79.5q-116 0 -195 79.5t-79 194.5z" />
<glyph unicode="&#x2026;" horiz-adv-x="1357" d="M158 84q0 44 32 76.5t78 32.5q44 0 76.5 -32.5t32.5 -76.5q0 -46 -32.5 -78.5t-76.5 -32.5q-46 0 -78 32.5t-32 78.5zM578 84q0 44 32 76.5t78 32.5q44 0 76.5 -32.5t32.5 -76.5q0 -46 -32.5 -78.5t-76.5 -32.5q-46 0 -78 32.5t-32 78.5zM987 84q0 44 32.5 76.5 t78.5 32.5q44 0 76 -32.5t32 -76.5q0 -46 -32 -78.5t-76 -32.5q-46 0 -78.5 32.5t-32.5 78.5z" />
<glyph unicode="&#x202f;" horiz-adv-x="358" />
<glyph unicode="&#x2039;" horiz-adv-x="755" d="M82 537l498 469l79 -132l-354 -339l354 -336l-79 -131z" />
<glyph unicode="&#x203a;" horiz-adv-x="755" d="M84 199l354 336l-354 339l80 132l498 -469l-498 -469z" />
<glyph unicode="&#x205f;" horiz-adv-x="448" />
<glyph unicode="&#x20ac;" horiz-adv-x="1230" d="M39 438v142h102q-2 20 -2 65q0 35 4 105h-104v141h131q62 228 228.5 357.5t383.5 129.5q91 0 185 -22.5t157 -63.5l-49 -151q-124 96 -309 96q-143 0 -258 -95t-168 -251h649l-47 -141h-633q-4 -46 -4 -84q0 -32 4 -86h578l-47 -142h-504q45 -151 152.5 -233t271.5 -82 q86 0 178 30t158 85v-162q-162 -103 -373 -103q-204 0 -357 121t-204 344h-123z" />
<glyph unicode="&#x2122;" horiz-adv-x="1642" d="M55 1346v98h633v-98h-246v-578l13 -94h-158v672h-242zM731 1444h90l340 -481l305 481h88v-676l13 -94h-158v461l-254 -396l-285 389v-360l13 -94h-138v659z" />
<glyph unicode="&#xe000;" horiz-adv-x="1085" d="M0 0v1085h1085v-1085h-1085z" />
</font>
</defs>
</svg>
