<?xml version="1.0" standalone="no"?>
<!DOCTYPE svg PUBLIC "-//W3C//DTD SVG 1.1//EN" "http://www.w3.org/Graphics/SVG/1.1/DTD/svg11.dtd" >
<svg xmlns="http://www.w3.org/2000/svg">
<metadata></metadata>
<defs>
<font id="fontin_sans_crbold_italic" horiz-adv-x="983" >
<font-face units-per-em="2048" ascent="1548" descent="-500" />
<missing-glyph horiz-adv-x="552" />
<glyph horiz-adv-x="2048" />
<glyph horiz-adv-x="2048" />
<glyph unicode="&#xd;" horiz-adv-x="2048" />
<glyph unicode=" "  horiz-adv-x="552" />
<glyph unicode="&#x09;" horiz-adv-x="552" />
<glyph unicode="&#xa0;" horiz-adv-x="552" />
<glyph unicode="!" horiz-adv-x="550" d="M59 125q2 61 46.5 107.5t109.5 46.5q66 0 110 -47t42 -107q0 -64 -44.5 -108t-111.5 -44q-66 0 -109 44t-43 108zM178 414l154 923l10 191l328 41l-310 -1178z" />
<glyph unicode="&#x22;" horiz-adv-x="768" d="M205 874l57 259l6 204l232 39l-97 -502h-198zM532 874l58 259l4 204l233 39l-96 -502h-199z" />
<glyph unicode="#" horiz-adv-x="1486" d="M8 356l39 193h295l107 319h-275l41 193h293l96 307h240l-99 -307h248l97 307h241l-98 -307h295l-64 -193h-288l-107 -319h293l-64 -193h-288l-111 -356h-242l113 356h-248l-110 -356h-242l113 356h-275zM582 549h247l107 319h-248z" />
<glyph unicode="$" horiz-adv-x="952" d="M2 86l37 211q17 -11 45.5 -28.5t104.5 -49.5t139 -39l94 395q-50 39 -77.5 62t-70 66.5t-64.5 80.5t-39.5 89t-16.5 108q3 115 71 208t171.5 144t219.5 56l37 159h125l-41 -166q64 -7 125 -22.5t90 -27.5l29 -11l-96 -201l-26 12q-26 11 -75 27.5t-94 24.5l-96 -404 q113 -87 154 -129q116 -121 114 -268q-1 -111 -62.5 -203.5t-165.5 -146.5t-228 -60l-37 -166h-125l39 175q-73 10 -143 36t-104 47zM430 1020q-3 -75 64 -148l71 310q-59 -15 -96.5 -59t-38.5 -103zM457 193q60 19 99 61t40 106q3 58 -70 127z" />
<glyph unicode="%" horiz-adv-x="1761" d="M137 1038q3 136 104 235t234 99q136 0 236.5 -99t97.5 -235t-105.5 -234.5t-238.5 -98.5q-133 0 -232 99t-96 234zM156 0l1255 1409l193 -84l-1188 -1325h-260zM315 1040q-2 -61 42.5 -112t109.5 -51q71 0 115.5 50t46.5 113q1 62 -47 108t-109 46q-63 0 -110 -45.5 t-48 -108.5zM971 307q3 135 106 234.5t236 99.5q136 0 235.5 -99t96.5 -235q-1 -89 -49.5 -166.5t-127.5 -122.5t-168 -45q-133 0 -231.5 99t-97.5 235zM1153 309q0 -62 44.5 -113t109.5 -51q71 0 115 50.5t44 113.5q0 62 -46 108t-107 46q-64 0 -112 -46t-48 -108z" />
<glyph unicode="&#x26;" horiz-adv-x="1441" d="M92 449q3 152 89 287t235 194q-35 41 -59.5 112t-24.5 132q2 110 77 201t202.5 143.5t277.5 52.5q52 0 108.5 -10.5t100.5 -25.5t80 -30.5t56 -26.5l19 -10l-73 -221q-6 5 -17.5 13t-46.5 29t-70 37t-83.5 29t-92.5 13q-102 0 -181.5 -68t-80.5 -163q-1 -48 19 -108 t41 -96l20 -36l-6 -31q-138 -59 -225 -170.5t-88 -234.5q-1 -72 21.5 -128.5t62 -89t87.5 -49t101 -16.5q99 0 191.5 54t154 152t64.5 214q0 13 -4 37q-95 -27 -195 -27q-41 0 -57 4l79 199q101 2 191.5 23.5t157 55.5t111.5 65.5t81 66.5l37 -215q-65 -59 -143 -90 q-3 -167 -57.5 -307t-147.5 -235.5t-219.5 -148.5t-272.5 -53q-77 0 -150.5 17t-142 54.5t-119.5 91.5t-80.5 135t-27.5 178z" />
<glyph unicode="'" horiz-adv-x="440" d="M205 874l57 259l6 204l232 39l-97 -502h-198z" />
<glyph unicode="(" horiz-adv-x="651" d="M66 207q4 161 48 335t121.5 338t197 307t261.5 230l170 -76q-161 -111 -288.5 -301t-197 -411t-73.5 -436q-1 -63 4.5 -125t15.5 -113.5t22.5 -100t27 -87t29 -71.5t27.5 -57t23 -40.5t16.5 -24.5t6.5 -6l-192 -76q-9 11 -24.5 32t-54 91.5t-67.5 147.5t-52 198t-21 246z " />
<glyph unicode=")" horiz-adv-x="630" d="M-227 -432q158 111 283.5 301t194.5 411.5t73 436.5q6 294 -111 533q-37 74 -55 91l190 76q9 -11 24 -32t53.5 -91.5t67.5 -147.5t51.5 -198t20.5 -246q-3 -161 -46.5 -335t-121 -338t-196 -307t-260.5 -230z" />
<glyph unicode="*" horiz-adv-x="823" d="M31 1104l84 168l219 -6l-158 258l209 14l88 -178l129 229l135 -133l-129 -190l303 6l-84 -168l-221 6l162 -258l-213 -14l-88 176l-129 -226l-131 134l125 188z" />
<glyph unicode="+" horiz-adv-x="985" d="M94 418l6 200h291l4 316l226 -62l-5 -254h310l-56 -200h-258l-6 -295h-225l6 295h-293z" />
<glyph unicode="," horiz-adv-x="512" d="M-20 -195q68 48 110.5 112t42.5 110q1 40 -12 59.5t-45 34.5l2 14q0 49 39.5 94t97.5 45q61 0 102.5 -41t40.5 -116q-2 -84 -82.5 -193t-242.5 -207z" />
<glyph unicode="-" horiz-adv-x="638" d="M41 399l2 213h594l-59 -213h-537z" />
<glyph unicode="." horiz-adv-x="485" d="M51 125q2 61 46.5 107.5t109.5 46.5q66 0 109.5 -46.5t41.5 -107.5q0 -64 -44 -108t-111 -44q-66 0 -109 44t-43 108z" />
<glyph unicode="/" horiz-adv-x="729" d="M-53 -500l608 1846h231l-616 -1846h-223z" />
<glyph unicode="0" d="M59 367q2 134 27 260.5t73.5 235.5t116 191t159 128.5t196.5 46.5q96 0 167.5 -33t112.5 -91.5t60 -130t18 -155.5q-2 -133 -23.5 -254t-66.5 -230t-110 -188.5t-160.5 -126.5t-212.5 -47q-72 0 -135 22t-115 67.5t-81 123.5t-26 181zM311 356q-1 -98 31.5 -150t95.5 -52 q62 0 114 48t84 120.5t54.5 163.5t32 170.5t10.5 148.5q4 239 -117 239q-65 0 -118.5 -52t-86.5 -130t-56 -175t-33 -179.5t-11 -151.5z" />
<glyph unicode="1" horiz-adv-x="778" d="M12 0l37 197h195l143 729l-219 -66l-12 203l549 176l-207 -1042h245l-53 -197h-678z" />
<glyph unicode="2" d="M25 0v121q12 11 39 35q58 52 92.5 83.5t101.5 96t110.5 110.5t98 111t87 115.5t56 105.5t23.5 99q3 65 -35.5 106t-118.5 41q-29 0 -66 -7.5t-70 -18t-61 -21t-45 -18t-16 -7.5l-26 207q0 2 53 18.5t140.5 34t158.5 17.5q160 0 255 -88.5t93 -229.5q-1 -67 -30 -141 t-74 -139t-99.5 -128.5t-109 -114t-99 -89t-72.5 -59.5l-28 -21l446 2l-57 -221h-747z" />
<glyph unicode="3" d="M-12 -16q12 -2 49 -2q48 0 101 6.5t114 20.5t115 40.5t99 62.5t72.5 90t28.5 120q1 48 -20 83.5t-59.5 57t-81 33t-95.5 18.5l62 152q101 36 180 104t80 150q0 50 -40 78t-91 28q-33 0 -73 -8t-73.5 -19t-62.5 -22t-47 -18l-17 -7l-30 209q22 8 58.5 19t131 30t166.5 19 q89 0 165.5 -31.5t125.5 -96.5t47 -149q-2 -92 -71.5 -181.5t-180.5 -131.5q78 -21 135.5 -98.5t54.5 -192.5q-2 -104 -47.5 -195t-119 -155.5t-168 -111.5t-196.5 -70t-202 -23h-98z" />
<glyph unicode="4" d="M16 340l750 889l209 -37l-150 -776h197l-84 -221h-156l-41 -211l-12 -189h-278l77 400h-505zM311 416h264l64 319l45 158l-104 -152l-211 -264z" />
<glyph unicode="5" d="M10 -14h27q69 0 133.5 9.5t132.5 36t118 67t82.5 108.5t33.5 155q1 107 -60 168.5t-166 61.5l-133 -8l144 614h641l-93 -221h-360l-47 -207q108 -10 188 -65.5t118.5 -137.5t37.5 -178q-4 -176 -96 -313t-246.5 -210t-345.5 -73h-92z" />
<glyph unicode="6" d="M68 463q2 129 36 261t99.5 251t152.5 211.5t203.5 147.5t243.5 55q64 0 134.5 -14t108.5 -28l39 -14l-81 -205q-12 7 -33.5 17t-78.5 26.5t-104 16.5q-87 0 -164 -49t-130 -123t-95 -172q114 43 201 43q143 0 237.5 -96.5t90.5 -280.5q-5 -240 -146.5 -388.5 t-371.5 -148.5q-91 0 -159.5 40.5t-108.5 110t-58.5 155.5t-15.5 184zM315 451q-4 -283 140 -283q96 0 154.5 95.5t60.5 213.5q3 108 -38.5 162.5t-107.5 54.5q-78 0 -184 -41q-25 -132 -25 -202z" />
<glyph unicode="7" d="M0 -188l715 1165h-529l-36 221h878l43 -51l-860 -1380z" />
<glyph unicode="8" d="M33 289q1 44 10.5 84t23 71.5t39.5 64.5t47.5 56t60.5 53.5t65.5 49.5t74.5 51q-147 150 -141 309q2 115 62 199t149.5 123t193.5 39q160 0 248 -81t86 -190q-2 -188 -260 -370q89 -89 137 -171t48 -178q-2 -94 -43 -175t-106 -135t-147.5 -85t-168.5 -31q-166 0 -274 90 t-105 226zM279 330q-2 -69 41 -114.5t112 -45.5q79 0 132.5 59t53.5 127q2 56 -34 117t-72 94l-37 33q-8 -5 -21 -14.5t-46.5 -39.5t-59.5 -60.5t-47 -73.5t-22 -82zM455 1075q-1 -27 7 -53.5t15 -42.5t28.5 -42.5t28 -33.5t33.5 -35q70 56 105 106t35 111q2 58 -29.5 95 t-89.5 37q-61 0 -96 -43.5t-37 -98.5z" />
<glyph unicode="9" d="M-29 -182l72 198q98 -45 219 -45q269 0 397 383q-107 -43 -204 -43q-143 0 -237.5 96.5t-90.5 280.5q5 240 146.5 388.5t371.5 148.5q90 0 159.5 -40.5t109.5 -110t59.5 -155.5t17.5 -184q-3 -107 -25 -217t-62.5 -218t-104.5 -203t-143.5 -167.5t-186 -114.5t-227.5 -42 q-112 0 -244 35q-30 8 -27 10zM383 721q-1 -108 41 -162.5t108 -54.5q82 0 181 41q23 105 26 203q1 60 -4.5 106t-19.5 88t-43 65t-72 23q-96 0 -155.5 -95.5t-61.5 -213.5z" />
<glyph unicode=":" horiz-adv-x="528" d="M68 111q0 59 43 101t102 42q56 0 95.5 -41.5t39.5 -101.5q-1 -57 -42 -97.5t-97 -40.5q-59 0 -100.5 40.5t-40.5 97.5zM180 662q0 59 43.5 101t102.5 42q56 0 95.5 -41.5t39.5 -101.5q-1 -57 -42 -97.5t-97 -40.5q-59 0 -101 40.5t-41 97.5z" />
<glyph unicode=";" horiz-adv-x="528" d="M-20 -195q68 48 110.5 112t42.5 110q1 40 -12 59.5t-45 34.5l2 14q0 49 39.5 94t97.5 45q61 0 102.5 -41t40.5 -116q-2 -84 -82.5 -193t-242.5 -207zM182 662q0 59 43.5 101t102.5 42q56 0 95.5 -41.5t39.5 -101.5q-1 -57 -42 -97.5t-97 -40.5q-59 0 -101 40.5t-41 97.5z " />
<glyph unicode="&#x3c;" horiz-adv-x="776" d="M68 506l559 500l90 -185l-320 -317l305 -314l-94 -184z" />
<glyph unicode="=" horiz-adv-x="1003" d="M90 219l2 193h815l-53 -193h-764zM100 598l2 193h834l-53 -193h-783z" />
<glyph unicode="&#x3e;" horiz-adv-x="776" d="M70 190l319 318l-303 313l94 185l539 -500l-559 -500z" />
<glyph unicode="?" horiz-adv-x="841" d="M111 125q2 61 46 107.5t109 46.5q66 0 110 -47t42 -107q0 -64 -44.5 -108t-111.5 -44q-66 0 -108.5 44t-42.5 108zM180 485q1 44 29.5 96.5t73 103t98.5 104t107.5 106t98 102t72.5 100t29 91.5q1 70 -43 108.5t-115 38.5q-41 0 -96.5 -19.5t-91.5 -39.5l-35 -19l-24 234 q17 7 46.5 18t110 29t148.5 18q75 0 138.5 -18t116.5 -56.5t82.5 -106t28.5 -158.5q-1 -60 -33 -125.5t-82.5 -125t-111 -119.5t-121.5 -117.5t-111.5 -110.5t-82.5 -106.5t-33 -98.5q1 -4 3 -17.5t3 -17.5l-201 82q-4 10 -4 24z" />
<glyph unicode="@" horiz-adv-x="1847" d="M66 356q2 145 46.5 288.5t133.5 274t211.5 230.5t294 159.5t368.5 59.5q144 0 273 -55.5t218 -147t139.5 -213.5t47.5 -252q-2 -159 -63.5 -301t-165.5 -247t-247.5 -171t-305.5 -77q-23 32 -39.5 82t-21.5 84l-5 34q-4 -5 -11.5 -13t-32.5 -29t-51.5 -37.5t-67.5 -29.5 t-82 -13q-131 0 -197.5 91.5t-63.5 231.5q2 136 61 268.5t156.5 234.5t233.5 165t283 63q42 0 92 -10t79 -20l29 -11l-53 -164q-123 -573 -123 -632q-1 -22 2 -44t6 -33l4 -11q98 37 183.5 134t132.5 209t49 205q3 140 -55.5 259t-178.5 194.5t-278 75.5q-152 0 -298 -66.5 t-254 -175t-175 -252t-70 -291.5q-2 -109 32.5 -213.5t101.5 -194t177.5 -152.5t249.5 -83l-145 -182q-152 37 -272.5 115t-196.5 182t-114.5 227t-36.5 254zM711 334q-2 -65 20.5 -105.5t71.5 -40.5q35 0 73 13.5t59 26.5l21 14l131 614q-109 -16 -196 -98t-132.5 -194 t-47.5 -230z" />
<glyph unicode="A" horiz-adv-x="1130" d="M-170 0l799 1352l202 41l177 -1137l63 -256h-291l-51 317h-461l-184 -317h-254zM389 528h313l-49 398l-2 80l-35 -80z" />
<glyph unicode="B" horiz-adv-x="1112" d="M72 0l243 1163l13 205l377 21q17 1 33 1q150 0 240 -83q98 -90 97 -221v-5q-3 -106 -71.5 -192t-155.5 -129q78 -42 128 -120t50 -167q-2 -94 -43.5 -178.5t-115 -150.5t-187.5 -105t-252 -39h-356zM383 199h102q127 0 199 75.5t74 186.5v5q0 72 -55 120q-57 50 -162 49 h-70zM512 827h80q60 0 129 -14q38 48 65.5 118t28.5 126v6q-1 55 -37 89t-98 34h-10l-82 -4z" />
<glyph unicode="C" horiz-adv-x="1263" d="M98 532q4 245 104.5 440t281 306t409.5 111q61 0 126.5 -14t115 -34.5t91 -41t63.5 -34.5l22 -14l-131 -184l-17 12q-17 12 -47.5 30.5t-68 36.5t-85 31t-90.5 13q-96 0 -187 -49.5t-160 -133.5t-111.5 -203t-44.5 -251v-14q0 -67 17 -127q19 -66 56.5 -117.5t100.5 -82 t143 -30.5q71 0 142 23.5t122.5 56.5t92.5 66t62 56l21 24l13 -248q-8 -8 -23 -20.5t-64.5 -44.5t-104 -57t-138.5 -45t-170 -20q-247 1 -397 157q-144 150 -144 383v19z" />
<glyph unicode="D" horiz-adv-x="1374" d="M78 0l244 1159l12 209h545q209 0 337 -148q126 -145 125 -378v-11q-3 -134 -39.5 -258.5t-104.5 -228t-160.5 -181t-215 -120.5t-260.5 -43h-483zM385 199h203q91 0 177.5 47.5t151.5 128.5t105.5 194t42.5 238v12q-1 85 -27 161q-28 80 -92.5 134.5t-154.5 54.5h-199z " />
<glyph unicode="E" horiz-adv-x="1034" d="M72 0l243 1159l13 209h739l-39 -203h-442l-80 -362h414l-78 -203h-377l-82 -397h496l-82 -203h-725z" />
<glyph unicode="F" horiz-adv-x="993" d="M72 0l243 1159l13 209h739l-41 -203h-442l-76 -362h414l-80 -203h-377l-90 -426l-10 -174h-293z" />
<glyph unicode="G" horiz-adv-x="1355" d="M98 532q4 245 104.5 440t281 306t409.5 111q61 0 126.5 -14t115 -34.5t91 -41t63.5 -34.5l22 -14l-131 -184l-17 12q-17 12 -47.5 30.5t-68 36.5t-85 31t-90.5 13q-96 0 -187 -49.5t-160 -133.5t-111.5 -203t-44.5 -251v-14q0 -67 17 -127q19 -65 56.5 -117t100.5 -82.5 t143 -30.5q102 0 188 39l58 275l-2 172h303l-127 -627q-35 0 -143 -23q-207 -45 -320 -45q-250 0 -401 157q-144 150 -144 383v19z" />
<glyph unicode="H" horiz-adv-x="1503" d="M72 0l245 1159l13 209h299l-125 -567h604l80 358l12 209h299l-254 -1194l-10 -174h-293l123 578h-604l-86 -404l-10 -174h-293z" />
<glyph unicode="I" horiz-adv-x="632" d="M72 0l245 1163l13 205h299l-254 -1194l-10 -174h-293z" />
<glyph unicode="J" horiz-adv-x="679" d="M-317 -387l67 227q56 -22 117 -22q85 0 156 83t96 205l221 1053l14 209h299l-268 -1270q-20 -94 -64.5 -181.5t-111 -161.5t-162 -118.5t-203.5 -44.5q-36 0 -76 5t-62 11z" />
<glyph unicode="K" horiz-adv-x="1241" d="M80 0l244 1157l14 211h295l-133 -629l432 484l96 145h342l-620 -653l413 -715h-303l-375 668l-104 -492l-12 -176h-289z" />
<glyph unicode="L" horiz-adv-x="911" d="M78 0l244 1159l12 209h299l-246 -1161h526l-94 -207h-741z" />
<glyph unicode="M" horiz-adv-x="1792" d="M72 0l235 1159l-4 209h189l403 -840l698 840h193l-254 -1194l-10 -174h-289l176 836l-111 -170l-489 -541l-289 547l-51 174l-133 -672l-10 -174h-254z" />
<glyph unicode="N" horiz-adv-x="1511" d="M72 0l241 1157l-18 211h221l512 -799l72 -157l147 747l13 209h270l-250 -1194l-20 -174h-168l-523 770l-71 164l-154 -760l-10 -174h-262z" />
<glyph unicode="O" horiz-adv-x="1349" d="M76 510q3 142 37 273t98.5 241t153 191.5t207.5 127.5t255 46q114 0 205.5 -35t147.5 -89.5t93 -126.5t51 -141q13 -64 13 -128v-9q-5 -257 -104 -460t-270 -315t-385 -112q-123 0 -220.5 42.5t-159.5 116.5q-60 74 -92 170q-30 91 -30 195v13zM348 535v-13 q0 -154 68 -250q70 -100 190 -100q93 0 178 59t145 152t96.5 209t39.5 229v9q0 161 -68 260q-70 102 -196 102q-57 0 -117.5 -25.5t-120 -79.5t-106.5 -129.5t-77 -185.5t-32 -237z" />
<glyph unicode="P" horiz-adv-x="1081" d="M59 0l244 1159l12 209h422q106 0 195.5 -45t143.5 -129q52 -81 52 -183v-7q-3 -154 -85 -272.5t-226 -183.5t-328 -65h-63l-64 -309l-10 -174h-293zM469 688h88q119 0 204.5 78t88.5 223v6q0 74 -48 123q-50 51 -130 51h-97z" />
<glyph unicode="Q" horiz-adv-x="1390" d="M86 510q3 142 37 273t98.5 241t153.5 191.5t208 127.5t255 46q114 0 205.5 -35t147.5 -89.5t93 -126.5t51 -141q13 -64 13 -128v-9q-5 -241 -92 -434.5t-239.5 -310.5t-348.5 -138q38 -13 139 -53.5t167 -60t118 -19.5q50 0 99 9.5t82.5 23t60 27.5t39.5 24l13 9l13 -246 q-4 -3 -11.5 -8t-35 -17t-59.5 -21.5t-85 -17.5t-112 -8q-70 0 -160 29.5t-149 59t-160 86t-127 69.5l-31 123q-187 36 -287 180q-96 139 -96 332v12zM358 535v-13q0 -155 68 -250q70 -100 190 -100q93 0 178 59t145 152t96.5 209t39.5 229v9q0 161 -68 260 q-70 102 -196 102q-57 0 -117.5 -25.5t-120 -79.5t-106.5 -129.5t-77 -185.5t-32 -237z" />
<glyph unicode="R" horiz-adv-x="1140" d="M59 0l244 1159l12 209h422q106 0 195.5 -45t143.5 -129q52 -81 52 -183v-7q-3 -168 -100.5 -293t-263.5 -185l328 -526h-312l-270 483h-21h-63l-64 -309l-10 -174h-293zM469 688h88q119 0 204.5 78t88.5 223v6q0 74 -48 123q-50 51 -130 51h-97z" />
<glyph unicode="S" horiz-adv-x="952" d="M2 86l37 211q7 -5 20 -13t51.5 -28.5t76.5 -36t89 -28.5t95 -13q37 0 74 10.5t71.5 31t56.5 56.5q23 38 23 87q0 35 -24 71q-24 38 -63.5 72t-87.5 70t-95.5 78.5t-86.5 88.5t-63 108q-22 57 -22 120v10q3 118 75 213.5t181 145t229 49.5q88 0 173.5 -17t127.5 -34 l41 -17l-96 -201l-15 6q-14 7 -41 17.5t-58.5 21t-71.5 18t-76 7.5q-79 0 -135 -48q-58 -49 -58 -126q0 -46 23 -88q24 -44 62.5 -79t85.5 -70.5t93.5 -76t84.5 -84.5q37 -44 61 -105q22 -56 22 -119v-11q-1 -115 -67 -210t-176 -147.5t-240 -52.5q-59 0 -119.5 11.5 t-105 28t-80 33.5t-54.5 28z" />
<glyph unicode="T" horiz-adv-x="1124" d="M102 1161l45 207h1082l-43 -207h-387l-209 -987l-10 -174h-293l243 1161h-428z" />
<glyph unicode="U" horiz-adv-x="1384" d="M150 362q-1 24 -1 48q1 44 5 86q6 65 20 139l105 524l14 209h301l-150 -747q-23 -111 -23 -194q0 -255 216 -255q130 0 232.5 104.5t134.5 253.5l131 629l14 209h268l-174 -823q-56 -261 -217 -416.5t-403 -155.5q-102 0 -181.5 20t-132 54t-87.5 84.5t-51.5 106.5 t-20.5 124z" />
<glyph unicode="V" horiz-adv-x="1273" d="M127 1368h315l125 -827l6 -158l70 152l485 833h271l-834 -1395l-194 41l-166 1100l2 -4z" />
<glyph unicode="W" horiz-adv-x="1918" d="M129 1368h315l125 -827l6 -158l76 152l260 434l-22 145l2 -4l-80 258h317l125 -827l7 -158l69 152l434 833h273l-766 -1395l-213 41l-96 619l-394 -660l-194 41l-166 1100l2 -4z" />
<glyph unicode="X" horiz-adv-x="1112" d="M-109 0l535 702l-176 519l-98 147h325l135 -383l19 -70l41 70l274 383h277l-508 -678l239 -690h-286l-142 410l-16 73l-45 -69l-293 -414h-281z" />
<glyph unicode="Y" horiz-adv-x="1095" d="M131 1368h307l146 -455l14 -86l59 101l318 440h276l-577 -772l-88 -422l-11 -174h-292l125 594l-183 596z" />
<glyph unicode="Z" horiz-adv-x="1169" d="M-55 0l4 72l821 979l107 108h-691l107 209h1005l-2 -72l-825 -977l-113 -112h760l-45 -207h-1128z" />
<glyph unicode="[" horiz-adv-x="589" d="M4 -141l350 1644h412l-39 -178h-176l-272 -1286h176l-41 -180h-410z" />
<glyph unicode="\" horiz-adv-x="729" d="M12 1346h238l491 -1846h-221z" />
<glyph unicode="]" horiz-adv-x="569" d="M-86 -141l41 180h170l272 1286h-174l39 178h410l-353 -1644h-405z" />
<glyph unicode="^" horiz-adv-x="1298" d="M115 655l469 795h176l442 -795h-231l-305 576l-328 -576h-223z" />
<glyph unicode="_" horiz-adv-x="1009" d="M-4 -297l2 164h1051l-70 -164h-983z" />
<glyph unicode="`" horiz-adv-x="692" d="M88 1483h303l205 -279l-166 -57z" />
<glyph unicode="a" horiz-adv-x="1067" d="M53 313q2 142 46.5 277.5t119.5 241t185 169.5t235 64q52 0 188.5 -13.5t202.5 -17.5l-149 -708q-15 -67 -15 -119q0 -32 6 -59q15 -69 80 -140l-254 -35q-41 30 -60 79q-16 40 -16 67q0 6 1 10l2 14q-6 -7 -16.5 -18.5t-44 -40.5t-67 -51.5t-81 -41t-90.5 -18.5 q-118 0 -198 88q-76 84 -75 236v16zM313 344v-12q1 -59 19 -105q20 -51 63 -51q44 0 103 40.5t96 81.5l37 40l112 545q-66 8 -92 8q-78 0 -155 -73t-129 -201.5t-54 -272.5z" />
<glyph unicode="b" horiz-adv-x="1085" d="M80 100l254 1217l10 209l295 30l-139 -630q6 6 17 15t44.5 33t65.5 42.5t74.5 33.5t78.5 15q116 0 194 -92q75 -89 75 -246v-12q-2 -112 -26.5 -218.5t-73 -202t-115.5 -166.5t-162.5 -113t-206.5 -42q-52 0 -108 13.5t-87.5 26.5t-99 45t-90.5 42zM352 188 q61 -32 129 -32q84 0 154 78.5t108.5 199.5t40.5 252v17q0 75 -24 111q-28 40 -68 40q-32 0 -91 -39t-103 -78l-43 -39z" />
<glyph unicode="c" horiz-adv-x="923" d="M55 408q2 152 47.5 278t120 208t171 126.5t202.5 44.5q72 0 159 -14.5t138 -28.5l51 -14l-67 -205q-18 8 -47 20t-97 31.5t-112 19.5q-72 0 -132 -37.5t-97.5 -97.5t-58 -130t-22.5 -140v-9q0 -52 10 -97q11 -49 35 -89.5t67 -64t101 -23.5q44 0 93.5 18.5t88.5 45 t71.5 52.5t50.5 44l18 19l12 -236q-7 -6 -19.5 -16.5t-53.5 -37.5t-85.5 -47.5t-112.5 -37.5t-136 -17q-101 0 -179.5 35t-125.5 96t-70 138q-21 71 -21 152v14z" />
<glyph unicode="d" horiz-adv-x="1079" d="M57 330q2 115 26 222t73.5 200.5t119.5 163t169 109.5t217 40q61 0 139 -8l65 266l4 203l295 30l-262 -1230q-15 -67 -15 -118q0 -32 6 -60q16 -68 81 -140l-250 -35q-43 31 -61 82q-15 40 -14 73q0 9 1 17v17q-6 -8 -17.5 -20.5t-47.5 -45t-72 -57.5t-86.5 -45.5 t-95.5 -20.5q-116 0 -198 96q-78 92 -77 246v15zM317 358q0 -89 24 -136.5t58 -47.5q40 0 103.5 43t107.5 86l43 43l111 533q-90 8 -139 8q-59 0 -110.5 -36t-86.5 -93t-60.5 -128.5t-37.5 -140.5t-13 -131z" />
<glyph unicode="e" horiz-adv-x="940" d="M68 420q3 173 72.5 319t198.5 235t290 89q151 -1 227 -69q74 -66 74 -171v-8q-2 -80 -37.5 -143.5t-93.5 -105t-138 -69.5t-163.5 -41t-178.5 -16v-8q0 -104 53 -172q55 -72 148 -72q48 0 101 19t93.5 46t74.5 54.5t53 46.5l18 19l12 -242l-17 -17t-49.5 -38t-82 -48 t-114 -38t-146.5 -17q-102 0 -181 36t-125.5 98.5t-68.5 142.5q-20 70 -20 149v21zM342 600q122 15 168 28q155 45 158 167q0 44 -20.5 66t-53.5 22q-49 0 -91.5 -25.5t-73 -68.5t-52 -90t-35.5 -99z" />
<glyph unicode="f" horiz-adv-x="647" d="M-227 -305q122 0 205 83.5t108 227.5l139 840h-127l33 188h125l23 125q39 210 151.5 308t259.5 98q64 0 129.5 -20t98.5 -40l34 -20l-114 -201q-8 7 -22.5 17.5t-56 27.5t-79.5 17q-49 0 -88.5 -39t-52.5 -117l-29 -156h264l-102 -188h-193l-139 -848 q-38 -222 -171 -357.5t-331 -136.5z" />
<glyph unicode="g" horiz-adv-x="1034" d="M-125 -270l170 139q4 -7 12.5 -19t39 -42.5t65 -53.5t90.5 -42t117 -19q98 0 165 54.5t68 152.5q0 6 -3.5 60.5t-4.5 91.5v6q0 34 6 71q-5 -6 -14.5 -16.5t-39.5 -37.5t-60.5 -47.5t-74 -37.5t-83.5 -17q-116 0 -192 93q-73 87 -73 242v16q2 115 27 222.5t75 202t121 165 t171 111t217 40.5q76 0 161 -8.5t132 -17.5l47 -9l-146 -668q-20 -107 -20 -194v-19q0 -42 3 -116.5t3 -126.5v-25q-2 -115 -75.5 -203t-187 -132t-243.5 -44q-67 0 -129.5 12.5t-108.5 32.5t-86 44.5t-67 49t-46 44.5t-27 33zM334 352v-8q0 -81 20 -118q22 -40 56 -40 q36 0 86.5 39t83.5 78l32 39l113 539q-70 8 -117 8q-70 0 -133.5 -80t-101 -204t-39.5 -253z" />
<glyph unicode="h" horiz-adv-x="1120" d="M55 0l279 1321l14 205l291 30l-119 -548l-33 -95q23 21 53 42.5t75.5 48.5t102 44t111.5 17q76 0 128 -27.5t74 -73.5q21 -48 27 -108q1 -15 2 -29q0 -47 -13 -98l-119 -559l-13 -170h-276l137 670q11 54 11 91q0 83 -56 83q-48 0 -117.5 -39t-115.5 -78l-45 -39 l-109 -514l-12 -174h-277z" />
<glyph unicode="i" horiz-adv-x="577" d="M55 0l172 827l17 207l288 31l-188 -889l-12 -176h-277zM359 1439q43 42 102 42q56 -1 96 -43q39 -41 39 -98v-3q-1 -57 -42 -97t-97 -40q-59 0 -101 40q-41 39 -41 94q0 62 44 105z" />
<glyph unicode="j" horiz-adv-x="589" d="M-248 -289q130 0 208 63.5t108 207.5l176 841l2 -2l12 207l291 31l-230 -1086q-46 -214 -184.5 -341.5t-324.5 -129.5zM380 1439q42 42 101 42q56 0 96 -43q39 -41 39 -98v-3q-1 -57 -42 -97t-97 -40q-59 0 -101 40q-40 39 -40 94q0 62 44 105z" />
<glyph unicode="k" horiz-adv-x="1003" d="M51 0l279 1321l14 205l291 30l-201 -946l191 142q74 58 90 79q13 18 12 33q1 16 -18 31.5t-39 22.5l-19 8l213 137l15 -7.5t32.5 -22t41.5 -36.5q19 -19 33 -50q14 -29 13 -60q-1 -81 -51 -141t-149 -113l-133 -72l299 -528l-250 -60l-299 566l-76 -365l-12 -174h-277z " />
<glyph unicode="l" horiz-adv-x="542" d="M51 0l279 1321l14 205l291 30l-295 -1382l-12 -174h-277z" />
<glyph unicode="m" horiz-adv-x="1722" d="M55 0l174 823l-14 176l295 64l-27 -170q6 7 18 18.5t49 41t75.5 52.5t95 41.5t110.5 18.5q106 0 162 -51t64 -137q188 188 368 188q76 0 127.5 -27.5t73.5 -73.5q23 -48 28 -108q1 -14 1 -27q0 -48 -13 -100l-118 -559l-13 -170h-276l137 670q11 54 11 91q0 83 -56 83 q-33 0 -78 -19.5t-88.5 -49.5t-72 -53t-50.5 -42l-108 -510l-12 -170h-277l137 670q11 54 11 91q0 83 -56 83q-48 0 -117.5 -39t-115.5 -78l-45 -39l-109 -514l-16 -174h-275z" />
<glyph unicode="n" horiz-adv-x="1132" d="M55 0l174 823l-14 176l295 64l-27 -170q6 7 18 18.5t49 41t75.5 52.5t95 41.5t110.5 18.5q76 0 128 -27.5t74 -73.5q21 -48 27 -108q1 -15 2 -29q0 -47 -13 -98l-119 -559l-12 -170h-277l137 670q11 54 11 91q0 83 -56 83q-48 0 -117.5 -39t-115.5 -78l-45 -39l-109 -514 l-16 -174h-275z" />
<glyph unicode="o" horiz-adv-x="1038" d="M53 383q4 199 78 354t206.5 241.5t303.5 86.5q158 0 258 -109q96 -105 96 -288v-15q-2 -135 -43 -258t-114.5 -217t-184 -149.5t-241.5 -55.5q-85 0 -151 27.5t-105 69.5t-63.5 98.5t-32.5 108.5q-7 46 -7 94v12zM309 420v-18q-1 -107 33 -172q36 -70 113 -70 q37 0 74.5 17.5t73.5 55.5t64.5 91.5t46.5 131.5t19 169v11q0 105 -37 173q-39 72 -108 72q-75 0 -140 -70.5t-101.5 -176.5t-37.5 -214z" />
<glyph unicode="p" horiz-adv-x="1089" d="M-49 -492l280 1321l-16 172l293 64l-27 -168q5 7 15.5 18t42.5 40t65.5 51.5t82.5 40.5t95 18q113 0 188 -90.5t74 -259.5q-3 -145 -40.5 -275.5t-107.5 -236t-183 -168t-254 -62.5q-21 0 -59 6.5t-66 12.5l-27 6l-63 -315l-17 -175h-276zM344 182q68 -20 117 -20 q93 0 166.5 75t112 193.5t40.5 255.5v7q0 80 -22 119q-22 40 -60 40q-36 0 -97.5 -42t-104.5 -84l-43 -42z" />
<glyph unicode="q" horiz-adv-x="1093" d="M70 330q2 115 26.5 222t74.5 200.5t120.5 163t169.5 109.5t217 40q63 0 191 -13t198 -14l-276 -1306l-17 -224h-289l129 594q-6 -5 -16 -14t-40.5 -31t-61 -39t-72 -31t-78.5 -14q-116 0 -198 96q-78 92 -78 246v15zM330 358q0 -90 24.5 -136t61.5 -46q38 0 100.5 42 t105.5 84l44 42l112 535q-14 1 -47.5 3t-64 3.5t-54.5 1.5q-69 0 -134 -77.5t-105 -200.5t-43 -251z" />
<glyph unicode="r" horiz-adv-x="821" d="M55 0l174 823l-12 185l289 57l-37 -219q5 9 14.5 23.5t41 52.5t64.5 67t82 52.5t97 23.5q36 0 70 -7.5t50 -15.5l17 -8l-94 -227q-55 24 -106 24q-56 0 -121 -63t-113.5 -154t-67.5 -176l-55 -264l-12 -174h-281z" />
<glyph unicode="s" horiz-adv-x="829" d="M31 94l22 225l11 -9q10 -8 27.5 -21.5t40.5 -29.5t51 -32.5t56.5 -30t60 -22t58.5 -8.5q53 0 99.5 32t46.5 89q1 33 -19.5 62t-53 52t-72.5 46.5t-80 52.5t-72.5 63t-52.5 85q-19 49 -19 106v6q3 90 63.5 161.5t152 107.5t192.5 36q64 0 139 -14.5t118 -28.5l44 -14 l-76 -195l-7 3q-7 4 -21 10l-31.5 13.5t-41 15.5t-47.5 14t-51.5 10t-52.5 4q-55 0 -91 -29.5t-36 -69.5q0 -35 20 -65.5t53 -54t73 -47.5t79.5 -52.5t72.5 -62.5t53 -84q19 -48 18 -105v-6q-1 -78 -36 -143t-92.5 -106t-127.5 -63t-144 -22q-56 0 -110.5 12.5t-92 30.5 t-67 35.5t-43.5 30.5z" />
<glyph unicode="t" horiz-adv-x="796" d="M111 219q0 13 31.5 169.5t63.5 307.5l32 150h-121l43 188h119l40 180l283 33l-65 -213h313l-107 -188h-249l-111 -551q-3 -15 -3 -28q0 -27 12 -41q18 -22 46 -21q44 0 110 32.5t110 65.5l44 33l-4 -238q-7 -5 -19 -13.5t-50 -30t-75.5 -38t-90.5 -30t-101 -13.5 q-70 0 -125.5 24t-91.5 81q-34 54 -34 132v9z" />
<glyph unicode="u" horiz-adv-x="1140" d="M102 305l115 559l14 170h279l-139 -669q-10 -50 -10 -86q0 -89 63 -89q26 0 64 18t73.5 44t67.5 52.5t51 44.5l20 18l105 493l16 174h275l-150 -708q-15 -67 -15 -118q1 -32 7 -60q16 -68 80 -140l-250 -35q-42 31 -60 82q-15 40 -15 73q0 9 1 17v17q-6 -8 -18 -20.5 t-50 -45t-78.5 -57.5t-101 -45.5t-120.5 -20.5q-145 1 -200 93q-35 59 -35 140q0 46 11 99z" />
<glyph unicode="v" horiz-adv-x="970" d="M88 1026l283 39l82 -625l2 -174l90 174l164 262q49 74 49 154q1 34 -12 76.5t-26 67.5l-13 26l243 39q45 -92 45 -178q-3 -119 -106 -275l-414 -639l-219 41l-109 820z" />
<glyph unicode="w" horiz-adv-x="1599" d="M88 1026l283 39l82 -625l2 -174l90 174l164 262q49 74 49 154q1 34 -12 76.5t-26 67.5l-13 26l268 39q35 -69 43 -143l63 -482l2 -174l91 174l163 262q49 74 49 154q1 34 -12 76.5t-26 67.5l-13 26l269 39q45 -92 45 -178q-3 -117 -107 -275l-426 -639l-231 41l-66 484 l-332 -525l-231 41l-109 820z" />
<glyph unicode="x" horiz-adv-x="1003" d="M-80 0l463 520l-139 328l-115 178l287 37l145 -367l31 41l104 111q20 20 27 46t3 48t-11 41.5t-14 30.5l-7 12l267 37q3 -6 8 -17.5t11 -47.5q3 -21 3 -41q1 -15 -1 -31q-4 -36 -30 -89t-73 -102l-226 -227l232 -508h-275l-121 281l-16 49l-35 -51l-237 -279h-281z" />
<glyph unicode="y" horiz-adv-x="995" d="M-229 -248q79 -31 149 -31q138 0 256 166l94 131l-24 58l-99 758l-59 192l283 39l82 -625l2 -174l90 174l164 262q49 74 49 154q1 34 -12 76.5t-26 67.5l-13 26l268 39q45 -92 45 -178q-3 -117 -107 -275l-528 -817q-64 -99 -148 -167t-165 -97t-160 -29q-18 0 -52 6 t-58 12l-25 7z" />
<glyph unicode="z" horiz-adv-x="958" d="M-35 0l4 59l551 705l74 82h-502l96 188h793v-59l-557 -707l-72 -80h570l-39 -188h-918z" />
<glyph unicode="{" horiz-adv-x="616" d="M61 539l33 147q44 0 78 17.5t52 45t26 46t12 34.5l82 392q34 159 165 242t308 83l-26 -168q-166 0 -201 -164l-80 -383q-9 -41 -29.5 -78.5t-43 -62t-43.5 -43t-34 -27.5l-14 -8q2 -2 5 -4.5t12.5 -13.5t17 -22.5t17.5 -31t13.5 -40.5t6.5 -49t-4 -58l-99 -557 q-35 -164 134 -164l-27 -168q-118 0 -202.5 34t-125.5 109t-18 183l98 565q2 12 2.5 25.5t-4 36.5t-15.5 39.5t-35.5 29.5t-60.5 13z" />
<glyph unicode="|" horiz-adv-x="485" d="M119 -520l39 2068h225l-37 -2068h-227z" />
<glyph unicode="}" horiz-adv-x="616" d="M-164 -496l27 168q163 0 198 164l119 557q9 41 28 78.5t40.5 62t41.5 43t33 27.5l13 8q-2 2 -5.5 5t-13 13.5t-18 22t-17.5 31t-13.5 40.5t-5 49t6.5 58l80 383q35 164 -129 164l27 168q117 0 201 -34t125 -108.5t18 -182.5l-82 -392q-2 -11 -3 -25.5t3.5 -36t15 -39 t36 -30t61.5 -12.5l-33 -147q-45 0 -79 -18t-50.5 -45t-24.5 -46.5t-10 -34.5l-119 -565q-24 -108 -94.5 -183t-166 -109t-210.5 -34z" />
<glyph unicode="~" horiz-adv-x="1204" d="M80 594q154 131 317 131q64 0 129 -18t109 -39.5t98 -39.5t98 -18q107 0 226 103l90 -183q-61 -61 -149.5 -99t-180.5 -38q-57 0 -119.5 18t-108 39.5t-104.5 39.5t-112 18q-126 0 -215 -94z" />
<glyph unicode="&#xa2;" horiz-adv-x="923" d="M55 408q2 152 47.5 278t120 208t171 126.5t202.5 44.5h22l37 164h125l-37 -176q48 -7 98.5 -18.5t76.5 -18.5l26 -8l-67 -205q-89 39 -175 59l-141 -674q64 11 135.5 55.5t110.5 82.5l39 39l12 -236q-6 -5 -16 -14t-44.5 -32.5t-72 -42.5t-94.5 -38t-115 -25l-43 -200 h-125l43 200q-170 18 -256 139t-80 292zM311 469q-2 -94 29.5 -166t97.5 -100l142 667q-82 -14 -144.5 -79.5t-93 -150.5t-31.5 -171z" />
<glyph unicode="&#xa3;" horiz-adv-x="1124" d="M-133 -209q1 0 25.5 39.5t63.5 110.5t80.5 155.5t81 190.5t60.5 200l10 52h-122l38 180h123l86 397q22 108 76.5 191.5t130 134.5t164 76.5t186.5 25.5q66 0 129 -13.5t105 -33t75 -38.5t49 -33l15 -13l-106 -184q-5 5 -14.5 13.5t-39 30t-61 38t-78.5 30t-92 13.5 q-98 0 -174.5 -55.5t-99.5 -165.5l-91 -414h402l-88 -180h-352l-13 -70q-19 -98 -70.5 -219.5t-90.5 -193.5l-39 -72h788l-78 -193h-1079z" />
<glyph unicode="&#xa5;" horiz-adv-x="1095" d="M72 225l37 172h260l34 162h-260l35 172h187l-134 459l-96 178h309l144 -467l12 -80l45 80l340 467h275l-492 -637h231l-71 -172h-258l-35 -162h274l-73 -172h-238l-10 -49l-13 -176h-288l45 225h-260z" />
<glyph unicode="&#xa8;" horiz-adv-x="786" d="M119 1305q0 52 35.5 89.5t81.5 37.5t78 -37t32 -90q-1 -52 -35.5 -88.5t-79.5 -36.5q-46 0 -79.5 36.5t-32.5 88.5zM494 1305q0 52 34.5 89.5t81.5 37.5q46 0 79.5 -37.5t33.5 -89.5q-1 -52 -36 -88.5t-81 -36.5q-48 0 -80.5 36.5t-31.5 88.5z" />
<glyph unicode="&#xa9;" horiz-adv-x="1638" d="M115 659q4 328 213.5 518.5t564.5 190.5q192 0 342.5 -87t232.5 -240.5t78 -344.5q-6 -332 -210.5 -527.5t-551.5 -195.5q-193 0 -348 90t-240 247t-81 349zM305 684q-4 -255 138 -403t388 -148q140 0 258.5 64.5t192 188.5t76.5 284q4 244 -139 393t-373 149 q-109 0 -206.5 -36.5t-171 -102.5t-117.5 -167t-46 -222zM465 664q3 174 105.5 291.5t285.5 117.5q65 0 131.5 -26t100.5 -52l34 -26l-78 -148q-11 10 -29.5 24.5t-70.5 39t-96 24.5q-73 0 -122.5 -64t-51.5 -159t47 -163t129 -68q50 0 109.5 25t93.5 50l34 25l17 -162 q-5 -4 -13.5 -11.5t-38.5 -25.5t-63 -32.5t-86 -26t-108 -12.5q-157 -1 -245 111.5t-85 267.5z" />
<glyph unicode="&#xab;" horiz-adv-x="1351" d="M59 508l637 500l78 -189l-401 -317l256 -309l-150 -185zM608 508l639 500l78 -189l-401 -317l256 -309l-150 -185z" />
<glyph unicode="&#xad;" horiz-adv-x="638" d="M41 399l2 213h594l-59 -213h-537z" />
<glyph unicode="&#xae;" horiz-adv-x="1638" d="M115 659q4 328 213.5 518.5t564.5 190.5q192 0 342.5 -87t232.5 -240.5t78 -344.5q-6 -332 -210.5 -527.5t-551.5 -195.5q-193 0 -348 90t-240 247t-81 349zM305 684q-4 -255 138 -403t388 -148q140 0 258.5 64.5t192 188.5t76.5 284q4 244 -139 393t-373 149 q-109 0 -206.5 -36.5t-171 -102.5t-117.5 -167t-46 -222zM563 319l10 611l-10 131h254q120 0 203.5 -63.5t83.5 -178.5q-3 -60 -44 -120.5t-104 -88.5l244 -291h-248l-176 269l-4 -162q0 -11 12 -107h-221zM776 686h8q52 0 92.5 35t43.5 98q0 61 -38.5 88t-93.5 27h-8z" />
<glyph unicode="&#xb4;" horiz-adv-x="692" d="M133 1204l264 279h305l-413 -336z" />
<glyph unicode="&#xb8;" horiz-adv-x="823" d="M109 -401l75 141q28 -33 76.5 -48.5t89.5 -15.5q34 0 57.5 13.5t24.5 42.5q0 26 -34.5 53t-78 57t-57.5 58l37 106h125q15 -22 44 -46t57 -44.5t55 -44t43.5 -53t15.5 -62.5q-1 -62 -28.5 -109.5t-72 -74t-95 -40t-105.5 -13.5q-125 0 -229 80z" />
<glyph unicode="&#xbb;" horiz-adv-x="1351" d="M43 197l401 317l-260 309l152 185l420 -500l-637 -500zM594 197l401 317l-260 309l152 185l420 -500l-637 -500z" />
<glyph unicode="&#x160;" horiz-adv-x="952" d="M2 86l37 211q7 -5 20 -13t51.5 -28.5t76.5 -36t89 -28.5t95 -13q37 0 74 10.5t71.5 31t56.5 57t23 83.5q1 37 -23.5 74.5t-64 71.5t-87.5 70t-95.5 78.5t-86.5 88.5t-63 108t-22 130q3 118 75 213.5t181 145t229 49.5q88 0 173.5 -17t127.5 -34l41 -17l-96 -201l-15 6 q-14 7 -41 17.5t-58.5 21t-71.5 18t-76 7.5q-79 0 -135.5 -48.5t-57.5 -121.5q-1 -48 23 -91.5t62.5 -79t85.5 -71t93.5 -76t84.5 -84.5t61.5 -105t21.5 -130q-1 -115 -67 -210t-176 -147.5t-240 -52.5q-59 0 -119.5 11.5t-105 28t-80 33.5t-54.5 28zM340 1731l164 61 l160 -190l196 190l154 -61l-262 -273h-209z" />
<glyph unicode="&#x161;" horiz-adv-x="829" d="M31 94l22 225l11 -9q10 -8 27.5 -21.5t40.5 -29.5t51 -32.5t56.5 -30t60 -22t58.5 -8.5q53 0 99.5 32t46.5 89q1 33 -19.5 62t-53 52t-72.5 46.5t-80 52.5t-72.5 63t-52.5 85t-19 112q3 90 63.5 161.5t152 107.5t192.5 36q64 0 139 -14.5t118 -28.5l44 -14l-76 -195l-7 3 q-7 4 -21 10l-31.5 13.5t-41 15.5t-47.5 14t-51.5 10t-52.5 4q-55 0 -91 -29.5t-36 -69.5q0 -35 20 -65.5t53 -54t73 -47.5t79.5 -52.5t72.5 -62.5t52.5 -84t18.5 -111q-1 -78 -36 -143t-92.5 -106t-127.5 -63t-144 -22q-56 0 -110.5 12.5t-92 30.5t-67 35.5t-43.5 30.5z M233 1421l164 62l160 -191l197 191l153 -62l-264 -272h-209z" />
<glyph unicode="&#x17d;" horiz-adv-x="1169" d="M-55 0l4 72l821 979l107 108h-691l107 209h1005l-2 -72l-825 -977l-113 -112h760l-45 -207h-1128zM504 1729l168 61l159 -191l197 191l152 -61l-262 -273h-209z" />
<glyph unicode="&#x17e;" horiz-adv-x="958" d="M-35 0l4 59l551 705l74 82h-502l96 188h793v-59l-557 -707l-72 -80h570l-39 -188h-918zM276 1421l164 62l160 -191l197 191l153 -62l-264 -272h-209z" />
<glyph unicode="&#x2c6;" horiz-adv-x="823" d="M84 1210l260 273h209l205 -273l-168 -61l-158 190l-196 -190z" />
<glyph unicode="&#x2da;" horiz-adv-x="1064" d="M362 1331q1 73 57 126.5t128 53.5q74 0 129.5 -53.5t54.5 -126.5q-3 -73 -59.5 -126.5t-130.5 -53.5q-73 0 -127.5 53.5t-51.5 126.5zM459 1333q-2 -35 23.5 -65.5t62.5 -30.5q40 0 64 29.5t26 66.5q0 35 -26 61.5t-60 26.5q-37 0 -63.5 -26.5t-26.5 -61.5z" />
<glyph unicode="&#x2dc;" horiz-adv-x="778" d="M66 1243q2 6 7 16t24.5 36t43 46t65.5 36t91 16q45 0 92 -18t85 -36t63 -18q98 0 133 72l110 -80q-2 -6 -6 -16t-21.5 -35t-40.5 -44t-66 -35t-95 -16q-54 0 -103.5 17.5t-86 35t-58.5 17.5q-40 0 -73 -17.5t-46 -35.5l-14 -17z" />
<glyph unicode="&#x401;" horiz-adv-x="1048" d="M68 0l245 1157l15 211h784l-43 -203h-489l-76 -362h432l-94 -203h-381l-84 -397h516l-94 -203h-731zM479 1614q10 52 53 89.5t89 37.5t72 -37.5t16 -89.5t-52.5 -88.5t-89.5 -36.5q-46 0 -72 36.5t-16 88.5zM856 1614q10 52 52 89.5t89 37.5q46 0 72 -37.5t16 -89.5 t-52.5 -88.5t-88.5 -36.5q-47 0 -72.5 36.5t-15.5 88.5z" />
<glyph unicode="&#x402;" horiz-adv-x="1361" d="M150 0l243 1151h-231l47 219h795l-48 -219h-297l-67 -320q180 56 362 56q165 0 257 -79.5t92 -240.5q0 -124 -29.5 -239.5t-83 -207t-137 -147t-183.5 -55.5q-27 0 -56 7t-44 15l-16 7l16 246q54 -35 107 -35q42 0 74.5 42.5t49 105t24 117.5t7.5 95q0 160 -190 160 q-57 0 -131.5 -15.5t-120.5 -30.5l-45 -16l-86 -405q-1 -15 -7.5 -96.5t-7.5 -114.5h-294z" />
<glyph unicode="&#x403;" horiz-adv-x="989" d="M70 0l245 1157l15 211h784l-43 -203h-489l-209 -989l-15 -176h-288zM537 1491l294 278h306l-451 -335z" />
<glyph unicode="&#x404;" horiz-adv-x="1286" d="M84 481q0 181 65.5 348t177.5 291t272 198.5t339 74.5q281 0 432 -170l-149 -197q-126 164 -324 164q-168 0 -297 -109.5t-178 -277.5h561l-45 -213h-567q-18 -191 77.5 -299.5t253.5 -108.5q107 0 228 50t227 143l6 -211q-116 -88 -263 -139.5t-279 -51.5 q-88 0 -167.5 20t-147 61.5t-117 101t-77.5 143t-28 182.5z" />
<glyph unicode="&#x405;" horiz-adv-x="946" d="M-37 113l68 229q5 -7 15.5 -18.5t44.5 -40.5t71.5 -51.5t96 -41t118.5 -18.5q83 0 148.5 50t80.5 120q9 41 -8.5 78t-52 65t-80.5 58.5t-94 59t-92.5 67t-76 82t-43.5 104t3 133.5q36 171 175.5 287.5t326.5 116.5q119 0 210 -30.5t148 -72.5l-94 -205q-5 5 -13.5 12.5 t-38.5 27t-63.5 34.5t-87 27t-109.5 12q-62 0 -123.5 -44.5t-74.5 -111.5q-9 -42 8 -79t52.5 -64.5t82 -57.5t95.5 -58t93.5 -66.5t76.5 -83t44 -107.5t-4 -139q-39 -179 -181 -296.5t-335 -117.5q-74 0 -141.5 14.5t-110.5 35t-75 41t-46 34.5z" />
<glyph unicode="&#x406;" horiz-adv-x="673" d="M201 0l245 1157l15 211h295l-252 -1192l-15 -176h-288z" />
<glyph unicode="&#x407;" horiz-adv-x="647" d="M84 0l246 1157l14 211h295l-252 -1192l-14 -176h-289zM260 1614q10 52 52.5 89.5t88.5 37.5t72 -37.5t16 -89.5t-52.5 -88.5t-88.5 -36.5t-72 36.5t-16 88.5zM637 1614q10 52 52 89.5t89 37.5q46 0 72 -37.5t16 -89.5t-52.5 -88.5t-88.5 -36.5q-47 0 -72.5 36.5 t-15.5 88.5z" />
<glyph unicode="&#x408;" horiz-adv-x="673" d="M-317 -389l63 229q49 -30 131 -30q80 0 144.5 81.5t91.5 206.5l225 1059l14 211h295l-268 -1270q-21 -101 -66.5 -190t-113 -160.5t-163 -113.5t-206.5 -42q-54 0 -147 19z" />
<glyph unicode="&#x409;" horiz-adv-x="1851" d="M-78 -4l23 219q36 -20 86 -20q23 0 43.5 7t40 25.5t36 37.5t34.5 56t32 67.5t32.5 85t32 95.5t34 113t34.5 123t37 139l57 213l15 211h889l-109 -516h123q217 0 322.5 -86t105.5 -234q0 -159 -81.5 -281.5t-219.5 -186.5t-307 -64h-391l243 1155h-327l-56 -213 q-31 -119 -47 -178t-45.5 -161.5t-49 -155t-51.5 -131.5t-59.5 -119.5t-67 -91t-79.5 -74.5t-90.5 -41t-106.5 -17q-83 0 -133 23zM1098 199h127q121 0 204.5 83.5t83.5 209.5q0 161 -243 161h-76z" />
<glyph unicode="&#x40a;" horiz-adv-x="1841" d="M70 0l245 1157l15 211h295l-111 -528h444l68 317l14 211h297l-110 -528h123q218 0 323 -84t105 -232q0 -159 -82 -279.5t-219 -182.5t-306 -62h-391l129 616h-444l-92 -440l-15 -176h-288zM1087 199h127q121 0 205 79.5t84 204.5q0 158 -246 158h-75z" />
<glyph unicode="&#x40b;" horiz-adv-x="1390" d="M150 0l243 1151h-231l47 219h795l-48 -219h-297l-67 -320q180 56 362 56q164 0 257.5 -79t93.5 -237q0 -55 -64 -360l-14 -211h-295q100 484 100 518q0 160 -190 160q-57 0 -131.5 -15.5t-120.5 -30.5l-45 -16l-86 -405q-1 -15 -7.5 -96.5t-7.5 -114.5h-294z" />
<glyph unicode="&#x40c;" horiz-adv-x="1234" d="M70 0l245 1157l15 211h295l-121 -571h74l260 344q100 135 193 193.5t196 58.5q62 0 114 -25l-20 -217q-41 16 -92 16q-40 0 -79.5 -30.5t-96.5 -104.5l-260 -336l319 -696h-319l-256 584h-78l-86 -408l-15 -176h-288zM688 1491l295 278h305l-450 -335z" />
<glyph unicode="&#x40e;" horiz-adv-x="1288" d="M129 8l10 217q44 -26 146 -26q140 0 229 125l-238 780l-120 264h336l202 -672l8 -110l54 110l434 672h285l-693 -1055q-113 -171 -234.5 -255.5t-275.5 -84.5q-74 0 -143 35zM586 1735l186 59q1 -8 4 -21.5t14 -47.5t24.5 -59.5t37 -47t49.5 -21.5q42 0 95.5 49.5 t86.5 98.5l33 49l162 -59q-7 -13 -19 -35t-53.5 -77.5t-86.5 -97.5t-115 -77t-142 -35q-52 0 -95.5 18t-71.5 46t-49 62.5t-32 69t-18 62.5t-8 46z" />
<glyph unicode="&#x40f;" horiz-adv-x="1531" d="M63 0l252 1192l15 176h288l-241 -1145h639l205 969l14 176h289l-246 -1157l-14 -211h-484l-71 -334h-260l71 334h-457z" />
<glyph unicode="&#x410;" horiz-adv-x="1130" d="M-170 0l799 1352l202 41l177 -1137l63 -256h-291l-51 317h-461l-184 -317h-254zM389 528h313l-49 398l-2 80l-35 -80z" />
<glyph unicode="&#x411;" horiz-adv-x="1134" d="M68 0l245 1157l15 211h823l-43 -203h-528l-66 -313h125q217 0 322.5 -86t105.5 -234q0 -159 -81.5 -281.5t-219.5 -186.5t-307 -64h-391zM375 199h127q121 0 205 83.5t84 209.5q0 161 -244 161h-76z" />
<glyph unicode="&#x412;" horiz-adv-x="1112" d="M72 0l243 1163l13 205l377 21q173 10 272.5 -82t97.5 -226q-3 -106 -71.5 -192t-155.5 -129q78 -42 128 -120t50 -167q-2 -94 -43.5 -178.5t-115 -150.5t-187.5 -105t-252 -39h-356zM383 199h102q127 0 199 75.5t74 186.5q2 75 -55 124.5t-162 49.5h-70zM512 827h80 q60 0 129 -14q38 48 65.5 118t28.5 126q2 59 -36.5 95.5t-108.5 33.5l-82 -4z" />
<glyph unicode="&#x413;" horiz-adv-x="987" d="M68 0l245 1157l15 211h784l-43 -203h-489l-209 -989l-15 -176h-288z" />
<glyph unicode="&#x414;" horiz-adv-x="1398" d="M-162 -334l121 547h137q62 86 110 179t86 203t62.5 198.5t57.5 226.5l32 137l15 211h913l-244 -1155h154l-113 -547h-262l70 334h-805l-74 -334h-260zM383 213h479l199 942h-354l-29 -135q-51 -246 -120 -441.5t-175 -365.5z" />
<glyph unicode="&#x415;" horiz-adv-x="1048" d="M68 0l245 1157l15 211h784l-43 -203h-489l-76 -362h432l-94 -203h-381l-84 -397h516l-94 -203h-731z" />
<glyph unicode="&#x416;" horiz-adv-x="1798" d="M-82 0l594 696l-96 336q-21 73 -49.5 104t-69.5 31q-53 0 -100 -16l69 217q66 25 127 25q86 0 156 -60t104 -192l88 -344h90l78 360l15 211h295l-121 -571h47l235 344q92 135 192 193.5t218 58.5q63 0 115 -25l-21 -217q-41 16 -92 16q-41 0 -82 -31t-94 -104l-240 -336 l299 -696h-284l-238 584h-100l-86 -408l-15 -176h-288l122 584h-53l-483 -584h-332z" />
<glyph unicode="&#x417;" horiz-adv-x="1067" d="M-27 115l93 211q75 -68 169.5 -107t184.5 -39q119 0 195.5 76.5t76.5 187.5q0 154 -198 154h-189l43 203h197q76 0 139 -13q55 57 86 126t31 137q0 64 -42.5 102.5t-119.5 38.5q-65 0 -159.5 -41t-192.5 -121l-66 197q229 166 463 166q172 0 276.5 -75t104.5 -220 q0 -226 -250 -391q72 -41 113 -106.5t41 -149.5q0 -94 -35 -174.5t-93.5 -135t-135.5 -93.5t-160 -57t-168 -18q-216 0 -404 142z" />
<glyph unicode="&#x418;" horiz-adv-x="1531" d="M70 0l245 1157l15 211h295l-207 -977l78 117l788 860h246l-252 -1192l-14 -176h-289l207 977l-78 -117l-789 -860h-245z" />
<glyph unicode="&#x419;" horiz-adv-x="1531" d="M70 0l245 1157l15 211h295l-207 -977l78 117l788 860h246l-252 -1192l-14 -176h-289l207 977l-78 -117l-789 -860h-245zM674 1720l186 60q2 -8 5 -21.5t14.5 -47.5t25 -59.5t37 -47t49.5 -21.5q42 0 95 49.5t86 98.5l32 49l162 -60q-6 -13 -18.5 -34.5t-53.5 -77t-86 -98 t-114.5 -77t-141.5 -34.5q-52 0 -95.5 17.5t-71.5 46t-49.5 63t-32.5 68.5t-18 62.5t-9 45.5z" />
<glyph unicode="&#x41a;" horiz-adv-x="1234" d="M70 0l245 1157l15 211h295l-121 -571h63l260 344q101 135 195.5 193.5t204.5 58.5q62 0 114 -25l-20 -217q-41 16 -92 16q-40 0 -79.5 -30.5t-96.5 -104.5l-260 -336l319 -696h-293l-256 584h-104l-86 -408l-15 -176h-288z" />
<glyph unicode="&#x41b;" horiz-adv-x="1390" d="M-78 -4l23 219q36 -20 86 -20q23 0 43.5 7t40 25.5t36 37.5t34.5 56t32 67.5t32.5 85t32 95.5t34 113t34.5 123t37 139l57 213l15 211h927l-251 -1190l-13 -178h-291l244 1155h-368l-56 -213q-31 -119 -47 -178t-45.5 -161.5t-49 -155t-51.5 -131.5t-59.5 -119.5t-67 -91 t-79.5 -74.5t-90.5 -41t-106.5 -17q-83 0 -133 23z" />
<glyph unicode="&#x41c;" horiz-adv-x="1792" d="M72 0l235 1159l-4 209h189l403 -840l698 840h193l-254 -1194l-10 -174h-289l176 836l-111 -170l-489 -541l-289 547l-51 174l-133 -672l-10 -174h-254z" />
<glyph unicode="&#x41d;" horiz-adv-x="1503" d="M72 0l245 1159l13 209h299l-125 -567h604l80 358l12 209h299l-254 -1194l-10 -174h-293l123 578h-604l-86 -404l-10 -174h-293z" />
<glyph unicode="&#x41e;" horiz-adv-x="1349" d="M76 510q3 142 37 273t98.5 241t153 191.5t207.5 127.5t255 46q114 0 205.5 -35t147.5 -89.5t93 -126.5t51 -141t13 -137q-5 -257 -104 -460t-270 -315t-385 -112q-123 0 -220.5 42.5t-159 116.5t-93 170.5t-29.5 207.5zM348 535q-3 -164 67.5 -263.5t190.5 -99.5 q93 0 178 59t145 152t96.5 209t39.5 229q2 167 -68 269t-196 102q-57 0 -117.5 -25.5t-120 -79.5t-106.5 -129.5t-77 -185.5t-32 -237z" />
<glyph unicode="&#x41f;" horiz-adv-x="1531" d="M70 0l245 1157l15 211h1200l-252 -1192l-14 -176h-289l242 1145h-639l-205 -969l-15 -176h-288z" />
<glyph unicode="&#x420;" horiz-adv-x="1081" d="M59 0l244 1159l12 209h422q106 0 195.5 -45t143.5 -129.5t52 -189.5q-3 -154 -85 -272.5t-226 -183.5t-328 -65h-63l-64 -309l-10 -174h-293zM469 688h88q119 0 204.5 78t88.5 223q2 78 -48.5 129t-129.5 51h-97z" />
<glyph unicode="&#x421;" horiz-adv-x="1263" d="M98 532q4 245 104.5 440t281 306t409.5 111q61 0 126.5 -14t115 -34.5t91 -41t63.5 -34.5l22 -14l-131 -184l-17 12q-17 12 -47.5 30.5t-68 36.5t-85 31t-90.5 13q-96 0 -187 -49.5t-160 -133.5t-111.5 -203t-44.5 -251q-2 -75 17 -140.5t56.5 -117.5t100.5 -82.5 t143 -30.5q71 0 142 23.5t122.5 56.5t92.5 66t62 56l21 24l13 -248q-8 -8 -23 -20.5t-64.5 -44.5t-104 -57t-138.5 -45t-170 -20q-248 0 -397.5 156.5t-143.5 402.5z" />
<glyph unicode="&#x422;" horiz-adv-x="1124" d="M102 1161l45 207h1082l-43 -207h-387l-209 -987l-10 -174h-293l243 1161h-428z" />
<glyph unicode="&#x423;" horiz-adv-x="1288" d="M129 8l10 217q44 -26 146 -26q140 0 229 125l-238 780l-120 264h317l203 -672l26 -110l41 110l435 672h297l-693 -1055q-113 -171 -234.5 -255.5t-275.5 -84.5q-74 0 -143 35z" />
<glyph unicode="&#x424;" horiz-adv-x="1499" d="M78 575q0 127 56.5 241.5t151 196t216 135.5t252.5 69l14 172h297l-37 -172q206 -14 331.5 -129t125.5 -293q0 -129 -57 -243t-152.5 -195.5t-218 -134.5t-254.5 -68l-17 -174h-288l37 174q-205 14 -331 128.5t-126 292.5zM358 596q0 -107 58.5 -175t169.5 -77l145 682 q-103 -9 -189.5 -70.5t-135 -157t-48.5 -202.5zM831 344q105 9 191 71t134 158t48 205q0 106 -58 172.5t-169 75.5z" />
<glyph unicode="&#x425;" horiz-adv-x="1112" d="M-109 0l535 702l-176 519l-98 147h325l135 -383l19 -70l41 70l274 383h277l-508 -678l239 -690h-286l-142 410l-16 73l-45 -69l-293 -414h-281z" />
<glyph unicode="&#x426;" horiz-adv-x="1495" d="M70 0l245 1157l15 211h295l-244 -1155h577l201 944l15 211h294l-243 -1155h153l-112 -547h-262l69 334h-1003z" />
<glyph unicode="&#x427;" horiz-adv-x="1363" d="M195 772q0 60 69 385l15 211h294q-106 -506 -106 -541q0 -161 192 -161q57 0 131 15t119 31l45 15l93 430q1 20 4.5 65.5t6 83t3.5 62.5h295l-246 -1157l-14 -211h-295l108 512q-182 -55 -362 -55q-164 0 -258 78.5t-94 236.5z" />
<glyph unicode="&#x428;" horiz-adv-x="2000" d="M70 0l245 1157l15 211h295l-244 -1155h432l201 944l14 211h295l-244 -1155h432l201 944l14 211h295l-288 -1368h-1663z" />
<glyph unicode="&#x429;" horiz-adv-x="2048" d="M70 0l245 1157l15 211h295l-244 -1155h432l201 944l14 211h295l-244 -1155h432l201 944l14 211h295l-243 -1155h153l-112 -547h-263l70 334h-1556z" />
<glyph unicode="&#x42a;" horiz-adv-x="1300" d="M164 1163l43 205h590l-109 -516h123q217 0 322.5 -86t105.5 -234q0 -159 -81.5 -281.5t-219.5 -186.5t-307 -64h-391l245 1163h-321zM547 199h127q121 0 205 83.5t84 209.5q0 161 -244 161h-76z" />
<glyph unicode="&#x42b;" horiz-adv-x="1736" d="M70 0l245 1157l15 211h297l-109 -516h123q217 0 322.5 -86t105.5 -234q0 -159 -81.5 -281.5t-219.5 -186.5t-307 -64h-391zM377 199h127q121 0 205 83.5t84 209.5q0 161 -244 161h-76zM1180 0l245 1157l15 211h295l-252 -1192l-15 -176h-288z" />
<glyph unicode="&#x42c;" horiz-adv-x="1130" d="M70 0l245 1157l15 211h297l-109 -516h123q217 0 322.5 -86t105.5 -234q0 -159 -81.5 -281.5t-219.5 -186.5t-307 -64h-391zM377 199h127q121 0 205 83.5t84 209.5q0 161 -244 161h-76z" />
<glyph unicode="&#x42d;" horiz-adv-x="1282" d="M-16 164l90 211q68 -93 166.5 -143t205.5 -50q102 0 200.5 46t181 140t126.5 222h-567l45 213h561q21 169 -61 278t-250 109q-198 0 -393 -164l-68 197q230 170 506 170q268 0 407.5 -141t139.5 -386q0 -167 -60.5 -327.5t-166.5 -286t-264.5 -202.5t-340.5 -77 q-133 0 -258.5 51.5t-199.5 139.5z" />
<glyph unicode="&#x42e;" horiz-adv-x="1898" d="M70 0l245 1157l15 211h295l-119 -567h176q94 256 302.5 422t436.5 166q234 0 355.5 -130t121.5 -356q0 -117 -30.5 -234t-84.5 -219t-130 -190.5t-164 -151.5t-190 -99t-205 -36q-226 0 -349.5 139t-123.5 367q0 49 6 99h-170l-84 -402l-15 -176h-288zM909 508 q0 -154 63.5 -245t178.5 -91q86 0 162 47t129 121.5t92 166.5t57.5 183t18.5 170q0 152 -64 242t-178 90q-85 0 -161 -46.5t-129 -120.5t-92.5 -165.5t-58 -182t-18.5 -169.5z" />
<glyph unicode="&#x42f;" horiz-adv-x="1234" d="M-82 0l477 541q-170 76 -170 278q0 163 80 288.5t219 193t312 67.5h391l-246 -1157l-14 -211h-297l104 496h-123l-424 -496h-309zM500 860q0 -166 243 -166h76l101 475h-127q-125 0 -209 -89.5t-84 -219.5z" />
<glyph unicode="&#x430;" horiz-adv-x="1067" d="M53 313q2 142 46.5 277.5t119.5 241t185 169.5t235 64q52 0 188.5 -13.5t202.5 -17.5l-149 -708q-24 -109 -9 -178t80 -140l-254 -35q-41 30 -60 79t-15 77l2 14q-6 -7 -16.5 -18.5t-44 -40.5t-67 -51.5t-81 -41t-90.5 -18.5q-118 0 -197.5 88t-75.5 252zM313 344 q-2 -66 18.5 -117t63.5 -51q44 0 103 40.5t96 81.5l37 40l112 545q-66 8 -92 8q-78 0 -155 -73t-129 -201.5t-54 -272.5z" />
<glyph unicode="&#x431;" horiz-adv-x="1130" d="M45 330q0 54 27 182q37 173 77.5 295.5t100 217.5t127 155.5t171.5 105t218.5 70t282.5 47.5l198 51l-84 -237q-128 -17 -217 -32.5t-171.5 -35.5t-138 -45.5t-104 -58.5t-83 -78.5t-62.5 -100.5t-53 -129q161 199 411 199q153 0 239.5 -90t86.5 -244q0 -166 -86 -310.5 t-236 -231.5t-327 -87q-169 0 -273 97.5t-104 259.5zM317 369q0 -93 47.5 -153t133.5 -60q84 0 153 61.5t104.5 148.5t35.5 173q0 94 -44.5 154.5t-121.5 60.5q-86 0 -158.5 -60.5t-111 -148.5t-38.5 -176z" />
<glyph unicode="&#x432;" horiz-adv-x="1011" d="M10 35l154 723q31 150 139 216t297 66q358 0 358 -204q0 -151 -192 -250q156 -66 156 -217q0 -168 -135 -277.5t-341 -109.5q-99 0 -208 13t-168 27zM285 188q59 -22 157 -22q100 0 162 54.5t62 131.5q0 107 -185 107h-139zM379 633h246q88 67 88 141q0 39 -36 62.5 t-102 23.5q-74 0 -116.5 -28.5t-52.5 -73.5z" />
<glyph unicode="&#x433;" horiz-adv-x="843" d="M6 193q0 82 33.5 151.5t86.5 117.5t117.5 89.5t129 73.5t117.5 61t86.5 62t33.5 67q0 30 -24 49t-68 19q-20 0 -42 -2.5t-43.5 -6.5t-43 -9.5t-40.5 -11.5t-36.5 -12t-31.5 -11t-24.5 -9t-15.5 -6l-5 -2l8 195q182 57 325 57q127 0 212 -57t85 -154q0 -84 -33 -154 t-85.5 -117.5t-116.5 -87t-128 -69.5t-116.5 -57t-85.5 -58t-33 -65q0 -39 31.5 -59.5t73.5 -20.5q27 0 62 8.5t69.5 22t69.5 29.5t64.5 32.5t53 30t37.5 21.5l14 9l-75 -225q-7 -5 -20 -13t-54.5 -29t-83.5 -37t-102.5 -29t-116.5 -13q-122 0 -203.5 58.5t-81.5 161.5z" />
<glyph unicode="&#x434;" horiz-adv-x="1144" d="M47 410q0 129 42 247t115.5 206t180.5 140t229 52q44 0 91 -12.5t73 -25.5l25 -13q-14 90 -58.5 155.5t-117 105t-160 60.5t-199.5 27l29 194q801 -7 801 -723q0 -121 -21.5 -238t-71 -229t-122 -196t-184 -135.5t-248.5 -51.5q-93 0 -165.5 27t-116.5 69.5t-72.5 101.5 t-39 117t-10.5 122zM317 424q0 -128 52.5 -198t140.5 -70q66 0 120.5 43t88.5 109t57.5 149t33 160t9.5 145v39q-39 33 -99.5 54.5t-107.5 21.5q-72 0 -130.5 -44t-93 -113t-53 -146t-18.5 -150z" />
<glyph unicode="&#x435;" horiz-adv-x="940" d="M68 420q3 173 72.5 319t198.5 235t290 89q151 0 227.5 -68.5t73.5 -179.5q-2 -80 -37.5 -143.5t-93.5 -105t-138 -69.5t-163.5 -41t-178.5 -16q-2 -109 53 -180.5t148 -71.5q48 0 101 19t93.5 46t74.5 54.5t53 46.5l18 19l12 -242l-17 -17t-49.5 -38t-82 -48t-114 -38 t-146.5 -17q-102 0 -181 36t-125.5 98.5t-69 142t-19.5 170.5zM342 600q122 15 168 28q155 45 158 167q0 44 -20.5 66t-53.5 22q-49 0 -91.5 -25.5t-73 -68.5t-52 -90t-35.5 -99z" />
<glyph unicode="&#x436;" horiz-adv-x="1605" d="M-92 0l506 532l-68 218q-34 110 -117 110q-49 0 -110 -22l69 202q63 25 119 25q193 0 258 -215l70 -238h67l54 246l14 176h277l-91 -422h27l172 238q85 120 180 167.5t209 47.5q59 0 107 -25l-17 -202q-46 22 -98 22q-87 0 -166 -110l-158 -218l281 -532h-276l-211 432 h-88l-54 -256l-14 -176h-277l91 432h-37l-391 -432h-328z" />
<glyph unicode="&#x437;" horiz-adv-x="954" d="M-29 98l78 209q6 -6 17.5 -15.5t47 -34.5t71 -44.5t84.5 -35t93 -15.5q105 0 173.5 46.5t68.5 125.5q0 104 -153 104h-199l39 180h221q54 0 70 -2q98 73 98 166q0 45 -35 72t-106 27q-158 0 -306 -133l-77 180q6 6 18 15t52.5 32.5t86 41.5t117.5 33t148 15 q172 0 262 -57.5t90 -163.5q0 -94 -55 -173t-140 -134q123 -68 123 -187q0 -82 -30.5 -147.5t-79.5 -107.5t-116.5 -70.5t-137 -40t-144.5 -11.5q-64 0 -126.5 13t-106.5 31.5t-78 36.5t-51 31z" />
<glyph unicode="&#x438;" horiz-adv-x="1140" d="M102 305l115 559l14 170h279l-139 -669q-36 -175 53 -175q26 0 64 18t73.5 44t67.5 52.5t51 44.5l20 18l105 493l16 174h275l-150 -708q-24 -110 -8.5 -178.5t80.5 -139.5l-250 -35q-42 31 -60.5 82t-13.5 90v17q-6 -8 -18 -20.5t-50 -45t-78.5 -57.5t-101 -45.5 t-120.5 -20.5q-145 0 -200 92.5t-24 239.5z" />
<glyph unicode="&#x439;" horiz-adv-x="1140" d="M102 305l115 559l14 170h279l-139 -669q-36 -175 53 -175q26 0 64 18t73.5 44t67.5 52.5t51 44.5l20 18l105 493l16 174h275l-150 -708q-24 -110 -8.5 -178.5t80.5 -139.5l-250 -35q-42 31 -60.5 82t-13.5 90v17q-6 -8 -18 -20.5t-50 -45t-78.5 -57.5t-101 -45.5 t-120.5 -20.5q-145 0 -200 92.5t-24 239.5zM434 1442l199 61q0 -7 1.5 -19t8 -43t16.5 -54.5t30.5 -42.5t47.5 -19t55.5 18.5t50.5 44.5t40 52t27 44l10 19l170 -61q-5 -12 -15.5 -32t-47 -70.5t-78 -89.5t-109 -71t-140.5 -32q-53 0 -96.5 16.5t-70 42.5t-47 57t-30 62.5 t-15 57.5t-6.5 43z" />
<glyph unicode="&#x43a;" horiz-adv-x="1081" d="M33 0l174 825l16 207l289 31l-96 -451h37l188 238q93 118 186 166.5t203 48.5q59 0 107 -25l-17 -202q-46 22 -98 22q-74 0 -166 -110l-176 -218l299 -532h-279l-221 432h-102l-53 -256l-15 -176h-276z" />
<glyph unicode="&#x43b;" horiz-adv-x="1136" d="M-88 -2l20 209q41 -23 84 -23q140 0 267 508l43 166l14 176h778l-182 -858l-14 -176h-277l178 846h-248l-34 -146q-174 -727 -502 -727q-66 0 -127 25z" />
<glyph unicode="&#x43c;" horiz-adv-x="1437" d="M27 0l182 858l14 176h191l311 -565l512 565h182l-182 -858l-14 -176h-277l125 588l-90 -121l-340 -371l-215 389l-31 107l-88 -416l-14 -176h-266z" />
<glyph unicode="&#x43d;" horiz-adv-x="1118" d="M33 0l174 825l16 207l289 31l-98 -457h340l47 219l16 207l289 31l-188 -887l-15 -176h-276l90 426h-340l-53 -250l-15 -176h-276z" />
<glyph unicode="&#x43e;" horiz-adv-x="1038" d="M53 383q4 199 78 354t206.5 241.5t303.5 86.5q158 0 258 -109t96 -303q-2 -135 -43 -258t-114.5 -217t-184 -149.5t-241.5 -55.5q-85 0 -151 27.5t-105 69.5t-63.5 98.5t-32.5 108.5t-7 106zM309 420q-3 -120 33.5 -190t112.5 -70q37 0 74.5 17.5t73.5 55.5t64.5 91.5 t46.5 131.5t19 169q2 112 -37 184t-108 72q-75 0 -140 -70.5t-101.5 -176.5t-37.5 -214z" />
<glyph unicode="&#x43f;" horiz-adv-x="1132" d="M55 0l174 823l-14 176l295 64l-27 -170q6 7 18 18.5t49 41t75.5 52.5t95 41.5t110.5 18.5q76 0 128 -27.5t74 -74t27.5 -107t-11.5 -127.5l-119 -559l-12 -170h-277l137 670q36 174 -45 174q-48 0 -117.5 -39t-115.5 -78l-45 -39l-109 -514l-16 -174h-275z" />
<glyph unicode="&#x440;" horiz-adv-x="1089" d="M-49 -492l280 1321l-16 172l293 64l-27 -168q5 7 15.5 18t42.5 40t65.5 51.5t82.5 40.5t95 18q113 0 188 -90.5t74 -259.5q-3 -145 -40.5 -275.5t-107.5 -236t-183 -168t-254 -62.5q-21 0 -59 6.5t-66 12.5l-27 6l-63 -315l-17 -175h-276zM344 182q68 -20 117 -20 q93 0 166.5 75t112 193.5t40.5 255.5q1 85 -21.5 125.5t-60.5 40.5q-36 0 -97.5 -42t-104.5 -84l-43 -42z" />
<glyph unicode="&#x441;" horiz-adv-x="923" d="M55 408q2 152 47.5 278t120 208t171 126.5t202.5 44.5q72 0 159 -14.5t138 -28.5l51 -14l-67 -205q-18 8 -47 20t-97 31.5t-112 19.5q-72 0 -132 -37.5t-97.5 -97.5t-58 -130t-22.5 -140q-1 -57 10 -106t35 -89.5t67 -64t101 -23.5q44 0 93.5 18.5t88.5 45t71.5 52.5 t50.5 44l18 19l12 -236q-7 -6 -19.5 -16.5t-53.5 -37.5t-85.5 -47.5t-112.5 -37.5t-136 -17q-101 0 -179.5 35t-125.5 96t-70 138t-21 166z" />
<glyph unicode="&#x442;" horiz-adv-x="1722" d="M55 0l174 823l-14 176l295 64l-27 -170q6 7 18 18.5t49 41t75.5 52.5t95 41.5t110.5 18.5q106 0 162 -51t64 -137q188 188 368 188q76 0 127.5 -27.5t74 -74t27.5 -107t-12 -127.5l-118 -559l-13 -170h-276l137 670q36 174 -45 174q-33 0 -78 -19.5t-88.5 -49.5t-72 -53 t-50.5 -42l-108 -510l-12 -170h-277l137 670q36 174 -45 174q-48 0 -117.5 -39t-115.5 -78l-45 -39l-109 -514l-16 -174h-275z" />
<glyph unicode="&#x443;" horiz-adv-x="995" d="M-229 -248q79 -31 149 -31q138 0 256 166l94 131l-24 58l-99 758l-59 192l283 39l82 -625l2 -174l90 174l164 262q49 74 49 154q1 34 -12 76.5t-26 67.5l-13 26l268 39q45 -92 45 -178q-3 -117 -107 -275l-528 -817q-64 -99 -148 -167t-165 -97t-160 -29q-18 0 -52 6 t-58 12l-25 7z" />
<glyph unicode="&#x444;" horiz-adv-x="1423" d="M41 340q0 179 86 334t238 255t340 122q48 227 177.5 365.5t325.5 139.5l66 -190q-122 0 -206.5 -84.5t-109.5 -228.5q209 -9 320 -105.5t111 -273.5q0 -272 -189 -476.5t-475 -238.5q-45 -205 -174.5 -327.5t-319.5 -123.5l-65 191q110 0 191.5 70t113.5 190 q-208 9 -319 106.5t-111 274.5zM311 371q0 -108 51.5 -171.5t153.5 -70.5l160 752q-86 -9 -157.5 -58t-115.5 -122t-68 -158.5t-24 -171.5zM754 131q70 7 130 41t102 84.5t72.5 114.5t45 133t14.5 137q0 108 -51.5 171.5t-153.5 70.5z" />
<glyph unicode="&#x445;" horiz-adv-x="1003" d="M-80 0l463 520l-139 328l-115 178l287 37l145 -367l31 41l104 111q20 20 27 46t3 48t-11 41.5t-14 30.5l-7 12l267 37q3 -6 8 -17.5t11 -47.5t1.5 -72.5t-30 -89t-72.5 -101.5l-226 -227l232 -508h-275l-121 281l-16 49l-35 -51l-237 -279h-281z" />
<glyph unicode="&#x446;" horiz-adv-x="1159" d="M92 205q0 55 125 659l14 170h279q-27 -130 -68 -325q-60 -289 -72 -350.5t-12 -82.5q0 -86 66 -86q26 0 64 18t73.5 44t67.5 52.5t51 44.5l20 18l105 493l16 174h275q-146 -705 -146 -729q0 -63 40 -105t108 -46l-97 -461h-229l66 307q-104 27 -144 162q-6 -8 -18 -20.5 t-50 -45t-78.5 -57.5t-101 -45.5t-120.5 -20.5q-118 0 -176 62.5t-58 169.5z" />
<glyph unicode="&#x447;" horiz-adv-x="1124" d="M139 559q0 61 43 266l17 207l288 31q-88 -410 -88 -440q0 -113 129 -113q38 0 93 10t91 20l36 9l59 276l16 207l289 31l-188 -887l-15 -176h-276l72 340q-132 -37 -269 -37q-297 0 -297 256z" />
<glyph unicode="&#x448;" horiz-adv-x="1726" d="M92 205q0 55 125 659l14 170h279q-27 -130 -68 -325q-60 -289 -72 -350.5t-12 -82.5q0 -86 66 -86q26 0 64 18t73.5 44t67.5 52.5t51 44.5l20 18l103 497l14 170h279q-27 -130 -68 -325q-60 -289 -72 -350.5t-12 -82.5q0 -86 66 -86q26 0 64 18t73.5 44t67.5 52.5 t51 44.5l20 18l105 493l16 174h274q-76 -358 -113 -541.5t-43.5 -223.5t-6.5 -62q0 -57 20 -103t66 -96l-250 -35q-74 57 -74 189q-6 -8 -18 -20.5t-50.5 -45t-79 -57.5t-101 -45.5t-120.5 -20.5q-101 0 -159 46t-70 126q-172 -172 -356 -172q-118 0 -176 62.5t-58 169.5z " />
<glyph unicode="&#x449;" horiz-adv-x="1744" d="M92 205q0 55 125 659l14 170h279q-27 -130 -68 -325q-60 -289 -72 -350.5t-12 -82.5q0 -86 66 -86q26 0 64 18t73.5 44t67.5 52.5t51 44.5l20 18l103 497l14 170h279q-27 -130 -68 -325q-60 -289 -72 -350.5t-12 -82.5q0 -86 66 -86q26 0 64 18t73.5 44t67.5 52.5 t51 44.5l20 18l105 493l16 174h274q-147 -700 -147 -727q0 -64 40.5 -106.5t108.5 -46.5l-96 -461h-229l65 307q-103 27 -143 162q-6 -8 -18 -20.5t-50.5 -45t-79 -57.5t-101 -45.5t-120.5 -20.5q-101 0 -159 46t-70 126q-172 -172 -356 -172q-118 0 -176 62.5t-58 169.5z " />
<glyph unicode="&#x44a;" horiz-adv-x="1132" d="M76 846l41 188h542l-73 -346h102q198 0 295.5 -87.5t97.5 -221.5q0 -176 -132.5 -285.5t-342.5 -109.5q-94 0 -197 12.5t-159 25.5l-57 13l172 811h-289zM475 188q63 -22 139 -22q90 0 148.5 57.5t58.5 136.5q0 65 -40 106.5t-113 41.5h-125z" />
<glyph unicode="&#x44b;" horiz-adv-x="1505" d="M39 35l168 790l16 207l289 31l-80 -375h103q198 0 295.5 -87.5t97.5 -221.5q0 -176 -132.5 -285.5t-342.5 -109.5q-94 0 -197.5 12.5t-159.5 25.5zM322 188q63 -22 139 -22q90 0 148.5 57.5t58.5 136.5q0 65 -40.5 106.5t-113.5 41.5h-125zM1014 0l174 827l16 207l289 31 l-188 -889l-15 -176h-276z" />
<glyph unicode="&#x44c;" horiz-adv-x="978" d="M39 35l168 790l16 207l289 31l-80 -375h103q198 0 295.5 -87.5t97.5 -221.5q0 -176 -132.5 -285.5t-342.5 -109.5q-94 0 -197.5 12.5t-159.5 25.5zM322 188q63 -22 139 -22q90 0 148.5 57.5t58.5 136.5q0 65 -40.5 106.5t-113.5 41.5h-125z" />
<glyph unicode="&#x44d;" horiz-adv-x="993" d="M-18 133l79 213q5 -7 14.5 -18t40 -39t63.5 -50t83 -39.5t100 -17.5q98 0 175 67.5t112 174.5h-377l41 192h381q25 254 -192 254q-64 0 -139 -31t-140 -96l-78 185q6 6 18 15t51.5 32.5t83.5 41.5t112 33t139 15q199 0 303 -104t104 -289q0 -78 -18 -159.5t-51 -159.5 t-85 -147t-115 -121t-145.5 -82t-172.5 -30q-75 0 -142.5 16.5t-110 40t-74.5 47t-46 39.5z" />
<glyph unicode="&#x44e;" horiz-adv-x="1560" d="M27 0l182 858l14 176h277l-92 -428h135q73 215 236 337t386 122q165 0 265 -99.5t100 -277.5q0 -102 -31.5 -205.5t-91.5 -194.5t-140 -161.5t-185 -112t-218 -41.5q-119 0 -203 56t-121.5 143.5t-37.5 196.5q0 39 2 57h-133l-54 -250l-14 -176h-276zM774 391 q0 -106 42.5 -170.5t119.5 -64.5q73 0 135.5 52.5t100 130.5t58.5 161.5t21 152.5q0 105 -42 167.5t-119 62.5q-59 0 -111.5 -34t-89 -88t-63 -120t-39.5 -130.5t-13 -119.5z" />
<glyph unicode="&#x44f;" horiz-adv-x="1040" d="M-92 0l381 387q-144 64 -144 217q0 106 43.5 189.5t119 135t172 78.5t206.5 27h336l-182 -858l-15 -176h-276l72 346h-93l-319 -346h-301zM408 645q0 -119 151 -119h105l69 328h-104q-91 0 -156 -56t-65 -153z" />
<glyph unicode="&#x451;" horiz-adv-x="940" d="M68 420q3 173 72.5 319t198.5 235t290 89q151 0 227.5 -68.5t73.5 -179.5q-2 -80 -37.5 -143.5t-93.5 -105t-138 -69.5t-163.5 -41t-178.5 -16q-2 -109 53 -180.5t148 -71.5q48 0 101 19t93.5 46t74.5 54.5t53 46.5l18 19l12 -242l-17 -17t-49.5 -38t-82 -48t-114 -38 t-146.5 -17q-102 0 -181 36t-125.5 98.5t-69 142t-19.5 170.5zM293 1305q0 52 35.5 89.5t81.5 37.5t79 -37.5t33 -89.5q-1 -52 -35.5 -88.5t-80.5 -36.5t-80 36.5t-33 88.5zM342 600q122 15 168 28q155 45 158 167q0 44 -20.5 66t-53.5 22q-49 0 -91.5 -25.5t-73 -68.5 t-52 -90t-35.5 -99zM670 1305q0 52 34.5 89.5t81.5 37.5q46 0 79.5 -37.5t33.5 -89.5q-1 -52 -36 -88.5t-81 -36.5q-48 0 -80.5 36.5t-31.5 88.5z" />
<glyph unicode="&#x452;" horiz-adv-x="1173" d="M70 0l235 1114h-121l37 176h121l6 29l17 207l288 30l-57 -266h340l-37 -176h-340l-59 -278q80 60 172.5 91t179.5 31q110 0 185 -52.5t75 -151.5q0 -28 -80 -406q-49 -228 -141.5 -329t-247.5 -101q-27 0 -56.5 7t-44.5 15l-16 7l17 246q53 -35 106 -35q31 0 50 10.5 t40 53.5t39 126q53 251 53 303t-21.5 73t-72.5 21q-69 0 -139 -28t-106 -56l-35 -28l-97 -457l-14 -176h-276z" />
<glyph unicode="&#x453;" horiz-adv-x="839" d="M27 0l182 858l14 176h688l-39 -180h-411l-144 -678l-14 -176h-276zM418 1143l295 278h305l-451 -336z" />
<glyph unicode="&#x454;" horiz-adv-x="946" d="M41 360q0 137 49 265.5t133 225.5t204.5 155.5t256.5 58.5q71 0 132.5 -14t99 -34.5t65 -40.5t38.5 -34l11 -14l-156 -185q-40 66 -100.5 96.5t-124.5 30.5q-219 0 -303 -254h381l-41 -192h-377q-9 -107 39 -174.5t146 -67.5q50 0 106.5 17t101.5 41t82.5 48t58.5 41 l21 17l-8 -213q-8 -7 -22 -17.5t-60.5 -38t-96.5 -48.5t-125.5 -38.5t-150.5 -17.5q-92 0 -162.5 30.5t-112.5 84.5t-63.5 122.5t-21.5 149.5z" />
<glyph unicode="&#x455;" horiz-adv-x="831" d="M-10 94l69 215q5 -6 15.5 -15.5t42 -34t64.5 -43.5t80.5 -34.5t92.5 -15.5q61 0 110.5 26.5t59.5 75.5q7 32 -14.5 60t-60.5 50t-87 45t-95 51.5t-84 62.5t-53 84.5t-3 111.5q15 73 50 130.5t80.5 94.5t104 61t117.5 34t125 10q80 0 149.5 -17t99.5 -34l30 -17l-90 -204 q-3 4 -10 10t-32 22t-53.5 28t-76 22t-99.5 10q-53 0 -97.5 -28t-53.5 -69q-7 -33 14.5 -61t61 -49.5t88.5 -44t96 -51.5t83 -65.5t51.5 -93t0.5 -126.5q-33 -154 -155 -238t-300 -84q-65 0 -122 12.5t-92 30.5t-60.5 35.5t-36.5 30.5z" />
<glyph unicode="&#x456;" horiz-adv-x="575" d="M53 0l174 827l17 207l288 31l-188 -889l-14 -176h-277zM315 1337q13 60 64 102t110 42q56 0 88 -42.5t19 -101.5q-12 -57 -61 -97t-105 -40q-59 0 -93 40t-22 97z" />
<glyph unicode="&#x457;" horiz-adv-x="585" d="M63 0l175 827l16 207l289 31l-189 -889l-14 -176h-277zM164 1305q10 52 52.5 89.5t88.5 37.5t72 -37.5t16 -89.5t-52.5 -88.5t-88.5 -36.5t-72 36.5t-16 88.5zM541 1305q10 52 52 89.5t89 37.5q46 0 72 -37.5t16 -89.5t-52.5 -88.5t-88.5 -36.5q-47 0 -72.5 36.5 t-15.5 88.5z" />
<glyph unicode="&#x458;" horiz-adv-x="567" d="M-248 -289q69 0 123 25t91 73t61.5 108.5t40.5 139.5l163 770l17 207l289 31l-220 -1030q-50 -235 -197.5 -384t-324.5 -151zM317 1337q13 60 64.5 102t110.5 42q56 0 87.5 -42.5t18.5 -101.5q-12 -57 -61 -97t-105 -40q-59 0 -93 40t-22 97z" />
<glyph unicode="&#x459;" horiz-adv-x="1562" d="M-88 -2l20 209q41 -23 84 -23q140 0 267 508l43 166l14 176h770l-74 -346h82q393 0 393 -258q0 -186 -134.5 -314t-332.5 -128q-88 0 -188 12t-156 24l-55 13l170 809h-240l-34 -146q-174 -727 -502 -727q-66 0 -127 25zM926 188q53 -18 121 -18q86 0 145 65t59 156 q0 117 -153 117h-105z" />
<glyph unicode="&#x45a;" horiz-adv-x="1581" d="M33 0l174 825l16 207l289 31l-88 -416h369l36 178l17 207l289 31l-88 -416h81q207 0 301.5 -66.5t94.5 -181.5q0 -117 -61.5 -211.5t-166 -147t-229.5 -52.5q-88 0 -189 13t-158 27l-56 13l90 426h-369l-61 -291l-15 -176h-276zM944 186q58 -16 121 -16q79 2 139 54.5 t60 133.5q0 50 -37.5 79.5t-118.5 29.5h-104z" />
<glyph unicode="&#x45b;" horiz-adv-x="1196" d="M70 0l235 1114h-121l37 176h121l6 29l17 207l288 30l-57 -266h340l-37 -176h-340l-59 -278q80 60 172.5 91t179.5 31q110 0 185 -52.5t75 -151.5q0 -28 -119 -582l-12 -172h-276q58 273 85.5 410.5t34 178t6.5 62.5q0 52 -21.5 73t-72.5 21q-69 0 -139 -28t-106 -56 l-35 -28l-97 -457l-14 -176h-276z" />
<glyph unicode="&#x45c;" horiz-adv-x="1081" d="M33 0l174 825l16 207l289 31l-96 -451h51l188 238q92 117 183.5 166t191.5 49q59 0 107 -25l-17 -202q-46 22 -98 22q-74 0 -166 -110l-176 -218l299 -532h-317l-222 432h-63l-53 -256l-15 -176h-276zM553 1204l295 279h305l-448 -336z" />
<glyph unicode="&#x45e;" horiz-adv-x="976" d="M-229 -248q79 -31 149 -31q138 0 256 166l94 131l-24 58l-99 758l-59 192l283 39l82 -625l2 -174l90 174l164 262q49 74 49 154q1 34 -12 76.5t-26 67.5l-13 26l268 39q45 -92 45 -178q-3 -117 -107 -275l-528 -817q-64 -99 -148 -167t-165 -97t-160 -29q-18 0 -52 6 t-58 12l-25 7zM412 1421l196 62q0 -7 1.5 -19t8.5 -43t17.5 -54.5t31.5 -42.5t48 -19t55.5 18.5t49.5 44.5t39 52t27 44l9 19l172 -62q-5 -12 -15.5 -32t-47 -70.5t-78.5 -89.5t-109.5 -71t-140.5 -32q-53 0 -96.5 16.5t-70 42.5t-46.5 57.5t-29 62.5t-14.5 57t-6.5 42z" />
<glyph unicode="&#x45f;" horiz-adv-x="1161" d="M27 0l182 858l14 176h277l-183 -854h390l145 678l14 176h277l-182 -858l-15 -176h-346l-65 -307h-248l65 307h-325z" />
<glyph unicode="&#x490;" horiz-adv-x="989" d="M70 0l245 1157l15 211h567l31 139h217l-74 -342h-489l-209 -989l-15 -176h-288z" />
<glyph unicode="&#x491;" horiz-adv-x="815" d="M27 0l182 858l14 176h463l33 158h225l-72 -338h-411l-144 -678l-14 -176h-276z" />
<glyph unicode="&#x2000;" horiz-adv-x="897" />
<glyph unicode="&#x2001;" horiz-adv-x="1794" />
<glyph unicode="&#x2002;" horiz-adv-x="897" />
<glyph unicode="&#x2003;" horiz-adv-x="1794" />
<glyph unicode="&#x2004;" horiz-adv-x="598" />
<glyph unicode="&#x2005;" horiz-adv-x="448" />
<glyph unicode="&#x2006;" horiz-adv-x="299" />
<glyph unicode="&#x2007;" horiz-adv-x="299" />
<glyph unicode="&#x2008;" horiz-adv-x="224" />
<glyph unicode="&#x2009;" horiz-adv-x="358" />
<glyph unicode="&#x200a;" horiz-adv-x="99" />
<glyph unicode="&#x2010;" horiz-adv-x="638" d="M41 399l2 213h594l-59 -213h-537z" />
<glyph unicode="&#x2011;" horiz-adv-x="638" d="M41 399l2 213h594l-59 -213h-537z" />
<glyph unicode="&#x2012;" horiz-adv-x="638" d="M41 399l2 213h594l-59 -213h-537z" />
<glyph unicode="&#x2013;" horiz-adv-x="946" d="M82 399l2 213h823l-59 -213h-766z" />
<glyph unicode="&#x2014;" horiz-adv-x="1411" d="M82 399l2 213h1284l-59 -213h-1227z" />
<glyph unicode="&#x2018;" horiz-adv-x="512" d="M180 1001q3 84 84 193t242 207l55 -88q-69 -48 -112 -111.5t-43 -109.5q-1 -40 12 -60t45 -35v-14q-2 -49 -42.5 -94t-98.5 -45q-61 0 -101.5 40.5t-40.5 116.5z" />
<glyph unicode="&#x2019;" horiz-adv-x="512" d="M174 932q68 48 111 111.5t43 109.5q1 40 -12.5 59.5t-45.5 34.5v15q3 49 44 94t98 45q61 0 102 -41t41 -117q-2 -39 -21 -84.5t-56.5 -98t-102 -109t-148.5 -107.5z" />
<glyph unicode="&#x201a;" horiz-adv-x="512" d="M-20 -195q68 48 110.5 112t42.5 110q1 40 -12 59.5t-45 34.5l2 14q0 49 39.5 94t97.5 45q61 0 102.5 -41t40.5 -116q-2 -84 -82.5 -193t-242.5 -207z" />
<glyph unicode="&#x201c;" horiz-adv-x="874" d="M180 1001q3 84 84 193t242 207l55 -88q-69 -48 -112 -111.5t-43 -109.5q-1 -40 12 -60t45 -35v-14q-2 -49 -42.5 -94t-98.5 -45q-61 0 -101.5 40.5t-40.5 116.5zM541 1001q3 84 84.5 193t242.5 207l56 -88q-69 -48 -112.5 -111.5t-43.5 -109.5q-1 -40 12 -60t45 -35v-14 q-2 -49 -42.5 -94t-98.5 -45q-61 0 -102 40.5t-41 116.5z" />
<glyph unicode="&#x201d;" horiz-adv-x="870" d="M174 932q68 48 111 111.5t43 109.5q1 40 -12.5 59.5t-45.5 34.5v15q3 49 44 94t98 45q61 0 102 -41t41 -117q-2 -39 -21 -84.5t-56.5 -98t-102 -109t-148.5 -107.5zM530 932q69 48 112.5 111.5t43.5 109.5q1 40 -12 59.5t-45 34.5v15q2 49 42.5 94t98.5 45q61 0 102 -41 t41 -117q-3 -84 -84.5 -192.5t-242.5 -206.5z" />
<glyph unicode="&#x201e;" horiz-adv-x="870" d="M-20 -195q68 48 110.5 112t42.5 110q1 40 -12 59.5t-45 34.5l2 14q0 49 39.5 94t97.5 45q61 0 102.5 -41t40.5 -116q-2 -84 -82.5 -193t-242.5 -207zM336 -195q69 48 112.5 112t43.5 110q1 40 -12.5 59.5t-45.5 34.5l2 14q0 49 39.5 94t97.5 45q61 0 103 -41t41 -116 q-2 -83 -83 -192.5t-243 -207.5z" />
<glyph unicode="&#x2022;" horiz-adv-x="868" d="M123 506q5 130 97.5 220.5t223.5 90.5q129 0 220 -91t88 -220q-1 -131 -95.5 -223.5t-224.5 -92.5q-132 0 -221.5 92t-87.5 224z" />
<glyph unicode="&#x2026;" horiz-adv-x="1501" d="M145 104q2 53 41.5 90t94.5 37q52 0 88 -37t34 -90q0 -55 -38 -93t-91 -38q-55 0 -92 37.5t-37 93.5zM627 104q1 52 41 89.5t94 37.5q52 0 88.5 -37t34.5 -90q0 -55 -38 -93t-91 -38q-54 0 -91.5 38t-37.5 93zM1100 104q2 53 40.5 90t92.5 37t90.5 -37t34.5 -90 q0 -55 -38.5 -93t-92.5 -38t-90.5 37.5t-36.5 93.5z" />
<glyph unicode="&#x202f;" horiz-adv-x="358" />
<glyph unicode="&#x2039;" horiz-adv-x="800" d="M59 508l637 500l78 -189l-401 -317l256 -309l-150 -185z" />
<glyph unicode="&#x203a;" horiz-adv-x="800" d="M43 197l401 317l-260 309l152 185l420 -500l-637 -500z" />
<glyph unicode="&#x205f;" horiz-adv-x="448" />
<glyph unicode="&#x20ac;" horiz-adv-x="1230" d="M-29 408l39 182h111q10 86 26 149h-110l39 183h139q105 212 295 339.5t444 127.5q93 0 184.5 -26.5t137.5 -52.5l45 -26l-115 -203q-4 4 -12 11t-36.5 25.5t-61 32t-87 25t-114.5 11.5q-139 0 -248 -71t-184 -193h653l-104 -183h-629q-22 -78 -31 -149h594l-106 -182 h-492q16 -108 95.5 -169t230.5 -61q81 0 189 37.5t218 114.5l-51 -238q-208 -119 -438 -119q-213 0 -341 113.5t-140 321.5h-140z" />
<glyph unicode="&#x2122;" horiz-adv-x="1662" d="M80 1284v160h590v-160h-191l-10 -493l12 -117h-233l14 610h-182zM721 1444h160l305 -438l284 438h158l-10 -653l12 -117h-241l6 352l-217 -328l-240 338l-4 -245l12 -117h-221l12 637z" />
<glyph unicode="&#xe000;" horiz-adv-x="1064" d="M0 0v1065h1065v-1065h-1065z" />
</font>
</defs>
</svg>
