<?xml version="1.0" standalone="no"?>
<!DOCTYPE svg PUBLIC "-//W3C//DTD SVG 1.1//EN" "http://www.w3.org/Graphics/SVG/1.1/DTD/svg11.dtd" >
<svg xmlns="http://www.w3.org/2000/svg">
<metadata></metadata>
<defs>
<font id="philosopheritalic" horiz-adv-x="514" >
<font-face units-per-em="2048" ascent="1638" descent="-410" />
<missing-glyph horiz-adv-x="512" />
<glyph horiz-adv-x="2048" />
<glyph horiz-adv-x="2048" />
<glyph unicode="&#xd;" horiz-adv-x="512" />
<glyph unicode=" "  horiz-adv-x="512" />
<glyph unicode="&#x09;" horiz-adv-x="512" />
<glyph unicode="&#xa0;" horiz-adv-x="512" />
<glyph unicode="!" horiz-adv-x="489" d="M47 63q0 25 10.5 47.5t28.5 41t41.5 30t50.5 11.5q41 0 67.5 -27t26.5 -66q0 -25 -11 -47t-29.5 -40.5t-43 -30t-49.5 -11.5q-41 0 -66.5 26t-25.5 66zM141 317l146 1035h192l-219 -1035h-119z" />
<glyph unicode="&#x22;" horiz-adv-x="753" d="M209 799l37 553h205l-160 -553h-82zM537 799l36 553h205l-160 -553h-81z" />
<glyph unicode="#" horiz-adv-x="1370" d="M27 358l22 123h295l139 369h-245l20 123h272l160 409h133l-159 -409h297l159 409h133l-159 -409h280l-20 -123h-307l-142 -369h260l-22 -123h-287l-133 -358h-133l133 358h-297l-133 -358h-133l133 358h-266zM475 481h299l139 369h-297z" />
<glyph unicode="$" horiz-adv-x="1073" d="M37 190q0 2 1 9.5t4 31t11 70.5t25 133h37v-8q0 -182 68.5 -271t209.5 -106l96 553l-127 86q-98 66 -141 129.5t-43 149.5q0 92 35 166.5t96.5 129t143.5 87t176 39.5l20 116h82l-20 -121q63 -6 122.5 -23.5t106.5 -45t75.5 -65.5t28.5 -83q0 -4 -1 -10t-4 -29.5 t-12 -70.5t-23 -133h-37v8q0 180 -68 267t-203 104l-92 -519l156 -102q100 -66 150.5 -128t50.5 -148q0 -98 -41 -178.5t-110 -137.5t-160 -89t-189 -36l-25 -129h-82l25 133q-68 6 -129.5 24.5t-109.5 47.5t-75.5 66.5t-27.5 82.5zM350 1059q0 -72 47 -120t133 -105l84 473 q-49 -4 -96 -22.5t-84 -50.5t-60.5 -76t-23.5 -99zM475 47q51 2 103.5 19.5t94.5 49t68.5 78t26.5 105.5q0 72 -46 126t-134 114l-25 14z" />
<glyph unicode="%" horiz-adv-x="1384" d="M51 0l1170 1352h153l-1169 -1352h-154zM154 1024q0 70 26.5 132.5t73.5 107.5t111.5 71.5t140.5 26.5q123 0 188.5 -56.5t65.5 -158.5q0 -72 -26.5 -133.5t-74 -106.5t-112 -71.5t-139.5 -26.5q-123 0 -188.5 56.5t-65.5 158.5zM276 1024q1 -143 144 -143q51 0 92 22.5 t68.5 59t42 84t14.5 98.5q0 145 -143 145q-53 0 -93.5 -22.5t-68 -59.5t-42 -85t-14.5 -99zM664 205q0 72 26.5 133t73.5 107.5t111.5 72t140.5 25.5q123 0 188.5 -56.5t65.5 -158.5q0 -72 -26.5 -133.5t-73 -106.5t-111 -71.5t-139.5 -26.5q-123 0 -189.5 55t-66.5 160z M786 207q1 -146 146 -146q51 0 92 22.5t67.5 59.5t41 85t14.5 100q0 143 -143 143q-51 0 -92.5 -22.5t-69 -59.5t-42 -84t-14.5 -98z" />
<glyph unicode="&#x26;" horiz-adv-x="1257" d="M31 229q0 76 32.5 137.5t85 115t118 98.5t130.5 88q-41 41 -73 94q-29 45 -50.5 106.5t-21.5 135.5q0 86 33.5 156.5t92 122.5t136.5 81t168 29q143 0 218 -64.5t75 -169.5q0 -82 -34 -148.5t-88 -123t-120.5 -103.5t-134.5 -88l334 -450q51 47 93 92t73 82q37 43 63 82 l35 -31q-27 -41 -61 -86q-29 -39 -72 -88t-96 -98l147 -199h-225l-68 88q-84 -55 -186.5 -92t-224.5 -37q-193 0 -286 76.5t-93 193.5zM227 229q1 -198 234 -198q94 0 175 28.5t150 75.5l-340 461q-90 -66 -154.5 -157t-64.5 -210zM449 1020q0 -51 14 -95t31.5 -78t34 -54.5 t20.5 -24.5q47 35 92 75t80 87t56.5 103.5t21.5 121.5q0 45 -11.5 77t-30 51.5t-41.5 28.5t-46 9q-53 0 -94 -27.5t-69 -71.5t-43 -97.5t-15 -104.5z" />
<glyph unicode="'" horiz-adv-x="425" d="M209 799l37 553h205l-160 -553h-82z" />
<glyph unicode="(" horiz-adv-x="634" d="M39 287q0 184 50 342.5t140 297t218 258.5t284 228l17 -31q-131 -102 -230.5 -234t-167 -284.5t-101.5 -319.5t-34 -337t48 -325.5t169 -280.5l-26 -31q-88 76 -156 155.5t-115 167t-71.5 184.5t-24.5 210z" />
<glyph unicode=")" horiz-adv-x="634" d="M-139 -399q129 102 228 235t167 284.5t101.5 317.5t33.5 336q0 172 -49 326.5t-168 281.5l25 31q176 -152 272 -324t96 -395q0 -184 -50 -342.5t-141 -297t-218 -258.5t-283 -226z" />
<glyph unicode="*" horiz-adv-x="870" d="M156 911l315 103l-278 102l106 144l197 -216l-7 308h164l-116 -308l274 216l57 -144l-315 -102l278 -103l-106 -143l-199 215l9 -307h-164l114 307l-272 -215z" />
<glyph unicode="+" horiz-adv-x="1083" d="M78 614l22 123h410l72 410h123l-72 -410h409l-22 -123h-410l-71 -409h-123l71 409h-409z" />
<glyph unicode="," horiz-adv-x="493" d="M-20 -287q86 53 141 119t72 158l-66 -21q-41 0 -67.5 27t-26.5 65q0 55 43 99.5t102 44.5q53 0 83 -26.5t30 -80.5q0 -68 -24.5 -128t-65.5 -113.5t-94.5 -97.5t-112.5 -76z" />
<glyph unicode="-" horiz-adv-x="796" d="M121 471l24 143h523l-25 -143h-522z" />
<glyph unicode="." horiz-adv-x="460" d="M35 63q0 25 10 48.5t28.5 42t42 30t50.5 11.5q43 0 68.5 -27t25.5 -66q0 -49 -40 -90t-93 -41q-41 0 -66.5 26t-25.5 66z" />
<glyph unicode="/" horiz-adv-x="911" d="M-47 0l895 1352h149l-895 -1352h-149z" />
<glyph unicode="0" horiz-adv-x="1202" d="M102 412q0 92 13.5 200.5t44 217t80 211t121 180t166.5 125t218 47.5q104 0 179 -32t122.5 -90.5t69 -143.5t21.5 -189q0 -92 -13.5 -200.5t-44 -217t-80 -210t-121 -179.5t-167 -125t-217.5 -47q-209 0 -300.5 121t-91.5 332zM295 328q0 -145 49 -216t164 -71 q74 0 135.5 45t109.5 122t84.5 177t60.5 208.5t36 219.5t12 209q0 147 -49 218t-166 71q-74 0 -135 -46t-109.5 -122t-84 -176.5t-59.5 -210t-36 -220t-12 -208.5z" />
<glyph unicode="1" horiz-adv-x="626" d="M115 1065l368 287h103l-238 -1352h-184l201 1147l-222 -129z" />
<glyph unicode="2" horiz-adv-x="1089" d="M-10 0l16 102q127 115 238.5 205t204 167t165 145.5t122.5 139t77 148.5t27 174q0 117 -63.5 173.5t-158.5 56.5q-123 0 -230 -89t-169 -259h-41q14 78 32.5 148.5t63.5 117.5q33 33 80 63.5t102.5 52t116 35t121.5 13.5q55 0 116.5 -11.5t114 -44t86 -90t33.5 -149.5 q0 -106 -44 -204.5t-116.5 -190t-166.5 -176.5t-193.5 -161.5t-198 -148.5t-178.5 -135h461q123 0 199 53t94 162h41l-22 -133q-6 -31 -18.5 -60.5t-35 -52t-59.5 -37t-90 -14.5h-727z" />
<glyph unicode="3" horiz-adv-x="1087" d="M14 178l39 37q61 -86 146.5 -130t201.5 -44q82 0 151 34t118 91t76.5 132t27.5 157q0 61 -19.5 106t-50 76t-69.5 45t-78 14q-47 0 -77.5 -2t-57.5 -6t-52.5 -9t-62.5 -13l-39 86l647 518h-378q-123 0 -199 -53.5t-96 -161.5h-41l24 133q6 31 18.5 60.5t35 52t59.5 37 t90 14.5h651l-14 -82l-639 -512q57 16 113.5 18t74.5 2q41 0 103.5 -12t121 -46t100.5 -96.5t42 -160.5q0 -106 -42 -198.5t-114.5 -160t-172 -106.5t-214.5 -39q-154 0 -256 59.5t-168 159.5z" />
<glyph unicode="4" horiz-adv-x="1124" d="M0 348l16 82l838 922h164l-162 -922h184l-16 -82h-184l-60 -348h-184l59 348h-655zM139 430h533l127 725z" />
<glyph unicode="5" horiz-adv-x="1091" d="M18 174l45 35q63 -86 146.5 -127t196.5 -41q88 0 157.5 34t117.5 91t73.5 134t25.5 161q0 121 -73.5 178t-206.5 57q-47 0 -93.5 -3t-82.5 -7l-82 -10l-68 82l125 594h768l-14 -82h-600l-107 -502q31 2 68 4q29 2 66.5 4t76.5 2q70 0 145.5 -13t138 -48t103.5 -96.5 t41 -157.5q0 -115 -46 -207t-123 -158.5t-179 -102.5t-215 -36q-154 0 -245 57.5t-159 157.5z" />
<glyph unicode="6" horiz-adv-x="1101" d="M100 395q0 98 13.5 210t45 222.5t83 213t125 180t172 125t227.5 47.5q100 0 175 -19.5t132 -42.5l-16 -41q-47 8 -117 14.5t-147 6.5q-92 0 -166 -37t-130.5 -105.5t-95.5 -165t-59 -215.5q61 39 138 66t186 27q178 0 259 -89.5t81 -238.5q0 -109 -36 -215.5 t-103.5 -190.5t-167 -136t-226.5 -52q-193 0 -283 109.5t-90 326.5zM293 375q0 -178 52 -256t142 -78q82 0 143.5 53t101.5 131t60.5 166t20.5 160q0 119 -53 183.5t-170 64.5q-78 0 -139.5 -28t-124.5 -75q-16 -96 -24.5 -176t-8.5 -145z" />
<glyph unicode="7" horiz-adv-x="976" d="M137 1055l25 133q6 31 18.5 60.5t35 52t59 37t90.5 14.5h716l-14 -82l-735 -1270h-185l736 1270h-410q-123 0 -198.5 -53.5t-96.5 -161.5h-41z" />
<glyph unicode="8" horiz-adv-x="1138" d="M45 242q0 82 32 147.5t86 119.5t126.5 97t156.5 80q-43 27 -82.5 57.5t-69.5 66.5t-48.5 79t-18.5 98q0 100 39 176t105.5 127t154.5 77t187 26q76 0 143.5 -13.5t117.5 -44t78.5 -79.5t28.5 -121t-24.5 -131.5t-68.5 -109.5t-102.5 -92t-125.5 -75q45 -31 89 -62.5 t78 -71.5t55.5 -89t21.5 -111q0 -106 -46.5 -187t-122 -136.5t-173 -83t-201.5 -27.5q-86 0 -162 16.5t-132 50t-89 88t-33 128.5zM240 248q0 -53 18 -92t51 -64.5t76 -38t90 -12.5q61 0 118.5 20.5t103.5 59.5t74 93t28 122q0 53 -21.5 97t-58.5 81t-86 68.5t-103 62.5 q-59 -27 -111 -65.5t-92 -88t-63.5 -111t-23.5 -132.5zM432 1053q0 -43 20.5 -83t54.5 -74t78 -63.5t93 -54.5q90 59 149.5 146.5t59.5 205.5q0 51 -16.5 86t-44 56.5t-61.5 30t-67 8.5q-51 0 -99 -18.5t-85 -52.5t-59.5 -82t-22.5 -105z" />
<glyph unicode="9" horiz-adv-x="1103" d="M68 20l18 41q45 -8 114.5 -14t147.5 -6q92 0 166 37t130 105.5t95 164.5t60 215q-59 -39 -137 -65.5t-187 -26.5q-178 0 -259 88t-81 240q0 109 36 215t103.5 190t167 136.5t226.5 52.5q193 0 282.5 -111t89.5 -330q0 -98 -14 -209.5t-45 -222t-82 -212t-125 -179.5 t-173 -124t-226 -46q-100 0 -174 19.5t-133 41.5zM328 799q0 -117 53 -181.5t170 -64.5q78 0 140.5 27.5t123.5 74.5q16 96 24.5 176t8.5 146q0 178 -52.5 256t-142.5 78q-82 0 -143 -53.5t-101 -132t-60.5 -168t-20.5 -158.5z" />
<glyph unicode=":" horiz-adv-x="497" d="M49 63q0 25 10.5 48.5t28.5 42t41.5 30t50.5 11.5q43 0 69.5 -27t26.5 -66q0 -25 -11 -48t-29.5 -41.5t-43 -30t-51.5 -11.5q-41 0 -66.5 26t-25.5 66zM182 815q0 25 11.5 47.5t30 41t41.5 29.5t50 11q43 0 68 -25.5t25 -64.5q0 -51 -38 -91t-94 -40q-41 0 -67.5 25.5 t-26.5 66.5z" />
<glyph unicode=";" horiz-adv-x="530" d="M-6 -287q90 61 144.5 124t72.5 163q-10 -8 -28.5 -19.5t-49.5 -11.5q-41 0 -62.5 25.5t-21.5 62.5q0 59 46 103.5t110 44.5q45 0 71.5 -31t26.5 -86q0 -68 -24.5 -125t-64.5 -107.5t-93 -92.5t-111 -78zM203 813q0 51 39 91t94 40q41 0 67.5 -26.5t26.5 -65.5 q0 -25 -11 -47.5t-29.5 -39.5t-43 -28.5t-49.5 -11.5q-41 0 -67.5 24.5t-26.5 63.5z" />
<glyph unicode="&#x3c;" horiz-adv-x="1269" d="M78 655l10 62l1147 461l-23 -123l-917 -369l788 -369l-22 -122z" />
<glyph unicode="=" horiz-adv-x="1355" d="M115 430l20 123h1075l-20 -123h-1075zM178 799l23 123h1075l-23 -123h-1075z" />
<glyph unicode="&#x3e;" horiz-adv-x="1269" d="M76 195l22 122l920 369l-791 369l23 123l983 -461l-10 -62z" />
<glyph unicode="?" horiz-adv-x="985" d="M133 963q14 78 32.5 148.5t65.5 117.5q33 33 80 63.5t102.5 52t116 35t121.5 13.5q55 0 116.5 -11.5t114 -44t86 -90t33.5 -149.5q0 -104 -32.5 -180t-83.5 -135.5t-112.5 -107.5t-122 -99.5t-111 -113t-76.5 -143.5h-82q18 82 56 147.5t84 123t95.5 111t89 110.5 t65.5 122.5t26 147.5q0 117 -63.5 173.5t-158.5 56.5q-123 0 -231 -89t-170 -259h-41zM268 63q0 49 38 91.5t93 42.5q43 0 70 -27t27 -68q0 -25 -11.5 -48t-30 -40.5t-43 -29t-51.5 -11.5q-43 0 -67.5 26t-24.5 64z" />
<glyph unicode="@" horiz-adv-x="1751" d="M51 287q0 135 29 269t84 257t138 229.5t190.5 184.5t240.5 122t291 44q154 0 277.5 -43t210.5 -124t134.5 -201t47.5 -273q0 -74 -11.5 -158t-36 -167t-64.5 -157.5t-97.5 -133t-133 -92.5t-171.5 -34q-86 0 -130 28t-67 75h-10q-37 -39 -103.5 -76t-181.5 -37 q-80 0 -138 27.5t-95 75t-55.5 113t-18.5 138.5q0 98 31.5 212t93 211t153.5 162t215 65q106 0 159.5 -37t76.5 -76h10l88 92h103l-135 -768q-2 -10 -2 -31q0 -37 18 -64.5t63 -27.5q61 0 112.5 34t90.5 89t67.5 125t47 141.5t28 140t9.5 119.5q0 139 -42 246t-120 178.5 t-188.5 108.5t-249.5 37q-211 0 -374 -86t-274.5 -228.5t-170 -325t-58.5 -374.5q0 -145 42 -255t119 -182.5t187.5 -109.5t247.5 -37q201 0 363.5 44t302.5 130l30 -61q-139 -86 -313 -140.5t-397 -54.5q-152 0 -275 42t-209 125t-133 206t-47 283zM573 340 q0 -113 42 -185.5t139 -72.5q45 0 80.5 12t64.5 31.5t51.5 43.5t40.5 46l103 584q-10 23 -24.5 45t-34 39.5t-47 28t-66.5 10.5q-92 0 -159 -61.5t-109 -150.5t-61.5 -190.5t-19.5 -179.5z" />
<glyph unicode="A" horiz-adv-x="1298" d="M-47 0l811 1352h61l258 -1096q12 -57 27.5 -97t37 -64.5t51.5 -37t71 -16.5l-6 -41q-37 -10 -84 -10q-35 0 -79 8t-87 35.5t-80 81t-55 141.5l-29 133h-574l-231 -389h-92zM322 471h501l-141 594z" />
<glyph unicode="B" horiz-adv-x="1277" d="M121 0l194 1106q4 25 6.5 46.5t2.5 41.5q0 53 -25 85t-92 32h-41l8 41h533q74 0 160.5 -9.5t161.5 -40t124 -88t49 -153.5q0 -70 -25.5 -127t-70.5 -102.5t-103.5 -79t-125.5 -56.5q162 -27 225 -92t63 -160q0 -123 -54 -207.5t-143 -137t-204 -76t-234 -23.5h-227h-182z M322 100q45 -14 94 -21t96 -7q78 0 157 19.5t143.5 61.5t104 107.5t39.5 157.5q0 111 -86 169t-258 58h-194zM432 727h195q66 0 133 21.5t122.5 63.5t90.5 101.5t35 135.5q0 61 -30 104t-76 71.5t-103.5 42t-114.5 13.5q-39 0 -82 -6t-76 -14z" />
<glyph unicode="C" horiz-adv-x="1363" d="M92 502q0 147 58.5 304t162 288t245.5 215t312 84q59 0 139.5 -11.5t153 -40t122.5 -81t50 -134.5q0 -51 -8 -101t-16 -103h-41q-4 201 -93.5 295t-258.5 94q-158 0 -274 -74t-193.5 -191.5t-115.5 -263t-38 -288.5q0 -92 21.5 -174t69.5 -143.5t123 -98.5t183 -37 q154 0 278 73.5t234 213.5l35 -31q-68 -96 -138.5 -160.5t-147 -104.5t-160.5 -56.5t-177 -16.5q-127 0 -224 41t-164.5 112.5t-102.5 172t-35 217.5z" />
<glyph unicode="D" horiz-adv-x="1466" d="M121 0l194 1106q4 25 6.5 46.5t2.5 41.5q0 53 -25 85t-92 32h-41l8 41h537q178 0 309 -36t218 -103.5t130 -165t43 -218.5q0 -178 -66.5 -330.5t-184.5 -263t-280.5 -173t-353.5 -62.5h-213h-192zM328 98q59 -14 111.5 -20t92.5 -6q143 0 264.5 63.5t207.5 168t134 238.5 t48 273q0 106 -31 192.5t-89 146.5t-140 93t-185 33q-45 0 -98 -8t-113 -25z" />
<glyph unicode="E" horiz-adv-x="1214" d="M123 0q49 285 84 482.5t57.5 327.5t34.5 203.5t18.5 111.5t7.5 50.5t1 18.5q0 53 -25 85t-92 32h-41l8 41h873q88 0 118.5 -35t30.5 -84q0 -6 -1 -14.5t-4 -28t-9 -56t-17 -100.5h-41q6 33 7 62q0 92 -57.5 133t-164.5 41h-381l-94 -533h553l-14 -82h-553l-100 -573h358 q139 0 229 51t158 174l39 -10l-107 -195q-25 -47 -66.5 -74.5t-103.5 -27.5h-522h-184z" />
<glyph unicode="F" horiz-adv-x="1087" d="M123 0q49 285 84 482.5t57.5 327.5t34.5 203.5t18.5 111.5t7.5 50.5t1 18.5q0 53 -25 85t-92 32h-41l8 41h817q88 0 119 -35t31 -84q0 -6 -1 -14.5t-4 -28t-9.5 -56t-16.5 -100.5h-41q6 33 6 62q0 92 -57 133t-164 41h-326l-96 -543h463l-14 -82h-463l-113 -645h-184z " />
<glyph unicode="G" horiz-adv-x="1474" d="M100 551q0 150 55.5 300t157 271t243.5 196t314 75q61 0 145.5 -9.5t159 -38t128 -81t53.5 -138.5q0 -41 -6.5 -87t-14.5 -87h-41q-11 359 -376 359q-158 0 -275 -77t-193.5 -196.5t-114.5 -266t-38 -288.5q0 -123 30.5 -206.5t84 -136t126 -76t156.5 -23.5 q111 0 187.5 19.5t142.5 52.5l63 356q8 43 25.5 85t57.5 77t112 56.5t186 21.5l-8 -41q-49 0 -81.5 -13.5t-53 -39t-33 -61.5t-20.5 -81l-68 -385q-123 -68 -249 -98.5t-275 -30.5q-135 0 -242.5 45t-182.5 124t-115 187.5t-40 235.5z" />
<glyph unicode="H" horiz-adv-x="1425" d="M121 0l194 1106q4 25 6.5 46.5t2.5 41.5q0 53 -25 85t-92 32h-41l8 41h184q82 0 118 -23.5t36 -101.5q0 -47 -12 -121l-66 -369h615l108 615h184l-194 -1106q-10 -57 -10 -92q0 -53 25.5 -83t90.5 -30h41l-6 -41h-184q-82 0 -119 24.5t-37 100.5q0 25 4 54.5t11 66.5 l71 409h-614l-115 -655h-184z" />
<glyph unicode="I" horiz-adv-x="591" d="M115 125q0 25 4 54.5t10 66.5l195 1106h184l-195 -1106q-10 -57 -10 -92q0 -53 25.5 -83t91.5 -30h41l-6 -41h-185q-82 0 -118.5 24.5t-36.5 100.5z" />
<glyph unicode="J" horiz-adv-x="540" d="M-164 -281l8 41q98 0 164 106.5t98 293.5l211 1192h185l-211 -1192q-20 -115 -52 -199t-84.5 -137t-130 -79t-188.5 -26z" />
<glyph unicode="K" horiz-adv-x="1388" d="M123 0q49 285 84 482.5t57.5 327.5t34.5 203.5t18.5 111.5t7.5 50.5t1 18.5q0 53 -25 85t-92 32h-41l8 41h184q82 0 119 -24.5t37 -100.5q0 -12 -2 -31.5t-11 -72t-25.5 -151t-47.5 -265.5l506 430q45 39 88 76.5t89 68.5t97.5 50.5t112.5 19.5h102l-10 -52q-43 0 -80 -6 t-73.5 -22.5t-77.5 -44t-90 -70.5l-469 -399l383 -492q68 -88 150.5 -152.5t158.5 -74.5l-6 -39q-25 -8 -57.5 -14t-79.5 -6q-43 0 -88.5 9t-94.5 36.5t-102 74.5t-113 125l-350 451l-119 -676h-184z" />
<glyph unicode="L" horiz-adv-x="1140" d="M123 0q49 285 84 482.5t57.5 327.5t34.5 203.5t18.5 111.5t7.5 50.5t1 18.5q0 53 -25 85t-92 32h-41l8 41h184q82 0 118 -23.5t36 -101.5q0 -8 -1 -21.5t-7 -51.5t-17.5 -109.5t-33 -196.5t-54 -311.5t-79.5 -454.5h727l-15 -82h-911z" />
<glyph unicode="M" horiz-adv-x="1755" d="M78 0l237 1352h195l303 -1065l670 1065h184l-178 -1004q-18 -98 -19 -176q0 -106 35 -164.5t109 -58.5l-6 -41q-176 0 -249 63.5t-73 204.5q0 74 19 172l139 789l-711 -1137h-41l-330 1157l-202 -1157h-82z" />
<glyph unicode="N" horiz-adv-x="1406" d="M127 0q49 283 84 477.5t56.5 323.5t33.5 200.5t18.5 107.5t7.5 46t1 16q0 66 -34 103t-122 37h-20l8 41h133q100 0 159.5 -33t94.5 -90l561 -891l178 1014h82l-242 -1372h-41l-688 1095l-188 -1075h-82z" />
<glyph unicode="O" horiz-adv-x="1458" d="M98 514q0 154 54.5 309.5t155 282.5t243.5 207t321 80q125 0 223.5 -42t165 -117t101.5 -177.5t35 -222.5q0 -154 -54.5 -309.5t-156 -281.5t-244.5 -205t-321 -79q-127 0 -224.5 42t-163 115.5t-100.5 175t-35 222.5zM299 473q0 -205 86 -318.5t250 -113.5q98 0 177 39 t141.5 103.5t108.5 149.5t75.5 178t44 186.5t14.5 176.5q0 205 -87 321t-251 116q-98 0 -178 -39t-141.5 -103.5t-107.5 -150.5t-74.5 -179.5t-43 -187.5t-14.5 -178z" />
<glyph unicode="P" horiz-adv-x="1136" d="M123 0q49 285 84 482.5t57.5 327.5t34.5 203.5t18.5 111.5t7.5 50.5t1 18.5q0 53 -25 85t-92 32h-41l8 41h533q59 0 137 -10.5t146.5 -43t116.5 -97t48 -171.5q0 -109 -43 -195.5t-114.5 -150t-168 -97.5t-202.5 -34h-226l-96 -553h-184zM420 645q29 -8 69.5 -14t79.5 -6 q55 0 121 23.5t124 72.5t97 124t39 177q0 72 -27.5 121t-67.5 79.5t-86 44t-83 13.5q-39 0 -82 -6t-76 -14z" />
<glyph unicode="Q" horiz-adv-x="1456" d="M98 514q0 154 54.5 309.5t155 282.5t243.5 207t321 80q125 0 223.5 -42t164 -116t100.5 -175.5t35 -221.5q0 -137 -40 -272.5t-117 -250t-189.5 -202.5t-255.5 -131q10 -78 53 -143.5t103.5 -114t131 -76t136.5 -27.5l-9 -41q-111 0 -217 19.5t-204.5 65.5t-185.5 125 t-161 196q-166 51 -254 192t-88 336zM299 473q0 -205 86 -318.5t250 -113.5q98 0 177 39t141.5 103.5t108.5 149.5t75.5 178t44 186.5t14.5 176.5q0 205 -87 321t-251 116q-98 0 -178 -39t-141.5 -103.5t-107.5 -150.5t-74.5 -179.5t-43 -187.5t-14.5 -178z" />
<glyph unicode="R" horiz-adv-x="1218" d="M123 0q49 285 84 482.5t57.5 327.5t34.5 203.5t18.5 111.5t7.5 50.5t1 18.5q0 53 -25 85t-92 32h-41l8 41h533q59 0 138 -9.5t148.5 -41t117.5 -90t48 -156.5q0 -84 -29.5 -152.5t-83 -121t-125 -89.5t-157.5 -57l152 -359q27 -66 53 -108.5t54 -70t59.5 -40t68.5 -16.5 l-6 -41q-16 -8 -52 -14t-75 -6q-53 0 -96 14t-81 49t-72 92.5t-69 140.5l-143 349h-143l-109 -625h-184zM432 717q29 -8 70 -14.5t80 -6.5q68 0 134 26t120.5 72t87 108.5t32.5 135.5q0 66 -27.5 112t-68.5 74.5t-88 42t-86 13.5t-82 -6t-76 -14z" />
<glyph unicode="S" horiz-adv-x="1093" d="M47 190q0 2 1 9.5t4 31t11.5 70.5t24.5 133h37v-14q0 -199 87 -286t257 -87q53 0 108.5 16.5t99.5 48t72.5 79t28.5 108.5q0 72 -46 126t-134 114l-225 149q-98 66 -141.5 129.5t-43.5 149.5q0 92 37 168.5t99.5 133t147.5 88.5t181 32q72 0 143.5 -15.5t129 -43 t93.5 -69.5t36 -94q0 -4 -1 -10t-4 -29.5t-12.5 -70.5t-23.5 -133h-37v14q0 199 -84 284t-254 85q-49 0 -99.5 -17.5t-90 -50.5t-64.5 -78t-25 -100q0 -72 48.5 -121t136.5 -109l225 -149q100 -66 150.5 -128t50.5 -148q0 -96 -41 -177.5t-109.5 -139.5t-159 -91t-188.5 -33 q-80 0 -155.5 15.5t-136 45t-97.5 70.5t-37 94z" />
<glyph unicode="T" horiz-adv-x="1198" d="M123 1034l27 154q6 31 18 60.5t34.5 52t59.5 37t90 14.5h953l-15 -82h-461l-223 -1270h-184l223 1270h-184q-123 0 -199 -56.5t-98 -179.5h-41z" />
<glyph unicode="U" horiz-adv-x="1406" d="M145 1311l9 41h184q82 0 119 -24.5t37 -100.5q0 -25 -4.5 -54.5t-10.5 -66.5l-104 -584q-8 -45 -12.5 -84t-4.5 -76q0 -143 69 -222t230 -79q117 0 202 31t145.5 95.5t98.5 163t62 233.5l135 768h82l-135 -768q-27 -150 -69.5 -263.5t-114.5 -189.5t-179.5 -113.5 t-265.5 -37.5q-238 0 -338 96t-100 286q0 49 6.5 104.5t16.5 117.5l92 522q4 25 6 46.5t2 41.5q0 53 -24.5 85t-92.5 32h-41z" />
<glyph unicode="V" horiz-adv-x="1308" d="M66 1327l6 41q8 0 32.5 2t38.5 2q37 0 83 -8t89 -34.5t80 -78t58 -139.5l204 -825q72 119 119 194.5t78 126.5t51.5 86t41 69t45 75t62.5 106.5t96 162.5t146 245h99l-830 -1372h-37l-276 1132q-14 57 -29.5 97t-36 64.5t-50.5 37t-70 16.5z" />
<glyph unicode="W" horiz-adv-x="1775" d="M61 1327l7 41q8 0 32.5 2t38.5 2q43 0 90 -7t89 -33.5t75 -79t49 -140.5l136 -790l333 649l-24 141q-10 57 -23.5 97t-35 64.5t-52.5 37t-76 16.5l7 41q8 0 32.5 2t38.5 2q43 0 90 -7t89 -33.5t75 -79t49 -140.5l136 -790l532 1030h88l-711 -1372h-41l-151 862l-447 -862 h-41l-198 1132q-10 57 -23.5 97t-35 64.5t-52.5 37t-76 16.5z" />
<glyph unicode="X" horiz-adv-x="1357" d="M-18 0l628 666l-213 419q-18 39 -40.5 77t-54.5 70t-79 53.5t-114 25.5l8 41h245q49 0 87 -20.5t67 -53.5t51.5 -73t40.5 -79l152 -307l504 533h102l-567 -604l241 -482q20 -39 45 -76.5t55.5 -69.5t69.5 -53.5t88 -25.5l-6 -41h-215q-49 0 -88 20.5t-67.5 53t-51 72.5 t-41.5 79l-180 369l-565 -594h-102z" />
<glyph unicode="Y" horiz-adv-x="1288" d="M72 1311l8 41h184q57 0 99.5 -19.5t73 -51.5t53 -72t40.5 -83l218 -460l548 686h93l-617 -779l-100 -573h-185l99 559l-256 526q-23 45 -46.5 85t-52 70t-67.5 48.5t-92 22.5z" />
<glyph unicode="Z" horiz-adv-x="1216" d="M-45 0l6 41l1067 1229h-491q-123 0 -199 -56.5t-98 -179.5h-41l26 154q6 31 18.5 60.5t35 52t59.5 37t90 14.5h891l-1094 -1270h840l-14 -82h-1096z" />
<glyph unicode="[" horiz-adv-x="649" d="M-16 -410l317 1803h440l-14 -82h-276l-289 -1639h276l-14 -82h-270h-170z" />
<glyph unicode="\" horiz-adv-x="901" d="M184 1352h150l420 -1352h-150z" />
<glyph unicode="]" horiz-adv-x="649" d="M-117 -410l15 82h274l289 1639h-277l15 82h440l-317 -1803h-166h-273z" />
<glyph unicode="^" horiz-adv-x="1003" d="M78 676l565 717h41l315 -717h-137l-231 526l-416 -526h-137z" />
<glyph unicode="_" horiz-adv-x="880" d="M-84 -123l23 123h819l-23 -123h-819z" />
<glyph unicode="`" horiz-adv-x="409" d="M203 1393h205l51 -410h-103z" />
<glyph unicode="a" horiz-adv-x="1075" d="M66 334q0 106 30.5 217t92 204t153.5 155.5t217 72.5q106 0 159.5 -37t76.5 -76h10l88 93h102l-137 -785l-31 -178h-102l-57 92h-11q-37 -39 -104.5 -75.5t-190.5 -36.5q-76 0 -132 27.5t-93 74.5t-54 112.5t-17 139.5zM260 322q0 -113 41 -187t137 -74q92 0 144.5 38 t91.5 85l106 594q-12 23 -26.5 45.5t-34 40t-47 27.5t-66.5 10q-94 0 -159.5 -61.5t-107.5 -150.5t-60.5 -189.5t-18.5 -177.5z" />
<glyph unicode="b" horiz-adv-x="1077" d="M51 0q49 285 84 482.5t57.5 327.5t35 203.5t18.5 111.5t7 50.5t1 18.5q0 53 -24.5 85t-92.5 32h-41l8 41h185q82 0 117.5 -23.5t35.5 -101.5q0 -47 -12 -121l-33 -184q49 23 115 42t152 19q82 0 141 -26.5t98 -74.5t57.5 -114t18.5 -143q0 -63 -12.5 -136t-38 -145 t-64.5 -137.5t-91 -116.5t-118.5 -80.5t-146.5 -29.5q-115 0 -174.5 36.5t-83.5 75.5h-10l-86 -92h-103zM266 184q23 -47 67 -85t128 -38q59 0 106 29t83 76t61.5 108.5t42 125t23.5 126t7 111.5q0 117 -45 190.5t-151 73.5q-47 0 -101.5 -19.5t-103.5 -41.5z" />
<glyph unicode="c" horiz-adv-x="991" d="M66 356q0 113 36.5 224.5t107.5 200.5t173 145.5t233 56.5q39 0 93.5 -3t103.5 -18.5t83 -47t34 -91.5q0 -29 -6 -68.5t-17 -95.5l-2 -14h-41q2 12 2 23.5v21.5q0 109 -62.5 160t-160.5 51q-100 0 -172 -53t-119 -134t-69.5 -178.5t-22.5 -185.5q0 -129 56.5 -209 t179.5 -80q109 0 183.5 43t141.5 121l35 -30q-90 -117 -191.5 -166t-224.5 -49q-98 0 -168.5 28.5t-116.5 78.5t-67.5 118.5t-21.5 150.5z" />
<glyph unicode="d" horiz-adv-x="1075" d="M68 338q0 100 29.5 214t90 210t152.5 158.5t219 62.5q86 0 144.5 -19.5t101.5 -41.5q14 82 22.5 131t12.5 76.5t5 41t1 23.5q0 53 -24.5 85t-92.5 32h-41l8 41h185q82 0 117.5 -23.5t35.5 -101.5q0 -8 -1 -22.5t-7 -54.5t-19.5 -116t-36 -210t-57 -334.5t-86.5 -489.5 h-102l-57 92h-11q-37 -39 -104.5 -75.5t-190.5 -36.5q-76 0 -131 26.5t-92 74.5t-54 113.5t-17 143.5zM262 322q0 -117 41 -189t135 -72q92 0 144.5 38t91.5 85l117 656q-43 23 -90.5 42t-94.5 19q-96 0 -162.5 -60.5t-106.5 -148.5t-57.5 -189.5t-17.5 -180.5z" />
<glyph unicode="e" horiz-adv-x="997" d="M66 354q0 106 34.5 218t102 203t167 149.5t226.5 58.5q182 0 262 -67.5t80 -165.5q0 -84 -36 -147.5t-96.5 -106.5t-138 -64.5t-161.5 -21.5h-246q-4 -23 -6 -43.5t-2 -40.5q0 -111 56.5 -188t166.5 -77q100 0 174 43t142 121l34 -30q-90 -117 -189 -166t-216 -49 q-90 0 -156.5 28.5t-110.5 78.5t-65.5 118.5t-21.5 148.5zM274 492h236q98 4 165.5 73.5t67.5 179.5q0 72 -42 114t-119 42q-109 0 -191 -108.5t-117 -300.5z" />
<glyph unicode="f" horiz-adv-x="696" d="M-174 -389l8 41q98 0 163.5 106.5t98.5 292.5l146 830h-144l15 82h143l12 61q20 106 64.5 174t102 106.5t123 53t130.5 14.5q127 0 168 -31q37 -29 55 -92l-69 -51q-23 47 -66 69.5t-112 22.5q-70 0 -125.5 -57t-85.5 -209l-13 -61h287l-14 -82h-287l-145 -830 q-20 -115 -53 -198.5t-85.5 -137t-129 -79t-187.5 -25.5z" />
<glyph unicode="g" horiz-adv-x="1073" d="M23 -195l45 31q41 -78 100 -121t168 -43q117 0 199.5 100.5t113.5 278.5l2 10q-51 -23 -115.5 -42t-150.5 -19q-82 0 -141.5 27.5t-98.5 75t-57 113t-18 140.5q0 94 28.5 204t87 204t145.5 156.5t206 62.5q115 0 174 -37t82 -76h10l88 93h102l-159 -912 q-18 -104 -59.5 -189t-103 -145.5t-139 -93.5t-170.5 -33q-123 0 -206.5 49.5t-132.5 165.5zM262 344q0 -115 46 -188.5t153 -73.5q47 0 100 19.5t105 41.5l112 635q-23 45 -66.5 84t-127.5 39q-88 0 -149.5 -59.5t-99.5 -145.5t-55.5 -182t-17.5 -170z" />
<glyph unicode="h" horiz-adv-x="1089" d="M51 0q49 285 84 482.5t57.5 327.5t35 203.5t18.5 111.5t7 50.5t1 18.5q0 53 -24.5 85t-92.5 32h-41l8 41h185q82 0 117.5 -23.5t35.5 -101.5q0 -12 -1 -29.5t-7 -53.5t-16.5 -98.5t-28.5 -164.5q47 39 120 70.5t165 31.5q57 0 109.5 -11t93.5 -41t65.5 -81t24.5 -129 q0 -8 -1 -19.5t-4.5 -37t-10.5 -70.5t-20 -123t-32.5 -192.5t-48.5 -278.5h-184q29 160 48 272.5t31.5 187.5t19.5 119t10 67.5t4 32.5t1 15q0 53 -15 91t-41 61.5t-58.5 34t-69.5 10.5q-61 0 -118.5 -33t-104.5 -76l-137 -782h-185z" />
<glyph unicode="i" d="M63 922l7 41h184q82 0 119 -25t37 -100q0 -8 -1 -20.5t-5.5 -41t-13.5 -82t-24.5 -143.5t-39 -225.5t-56.5 -325.5h-184q33 188 55.5 319.5t38 218.5t23.5 138t12 78.5t5 38t1 16.5q0 53 -25.5 83t-91.5 30h-41zM260 1192q0 47 29.5 82t83.5 35q41 0 67.5 -31t26.5 -76 q0 -47 -29.5 -82t-83.5 -35q-41 0 -67.5 31t-26.5 76z" />
<glyph unicode="j" d="M-176 -389l8 41q98 0 163.5 106.5t98.5 292.5q31 174 52.5 297t36 205t21.5 130t11 73.5t5 36t1 16.5q0 53 -25.5 83t-91.5 30h-41l7 41h184q82 0 119 -25t37 -100q0 -8 -1 -20.5t-5.5 -40t-12.5 -78t-22.5 -134.5t-37 -210t-52.5 -304q-20 -115 -53 -198.5t-85.5 -137 t-129.5 -79t-187 -25.5zM260 1192q0 47 29.5 82t83.5 35q41 0 67.5 -31t26.5 -76q0 -47 -29.5 -82t-83.5 -35q-41 0 -67.5 31t-26.5 76z" />
<glyph unicode="k" horiz-adv-x="993" d="M49 0l195 1106q4 25 6 46.5t2 41.5q0 53 -24.5 85t-92.5 32h-41l8 41h185q82 0 117.5 -23.5t35.5 -101.5q0 -47 -12 -121l-106 -604l313 327q57 59 122.5 96.5t166.5 37.5h61l-8 -52q-53 0 -108.5 -22.5t-102.5 -69.5l-277 -287l199 -327q47 -78 92 -117t105 -49l-6 -39 q-16 -8 -46 -14t-61 -6q-78 0 -146.5 35.5t-121.5 127.5l-189 328l-82 -471h-184z" />
<glyph unicode="l" horiz-adv-x="499" d="M59 0q49 285 84 482.5t57.5 327.5t35 203.5t18.5 111.5t7 50.5t1 18.5q0 53 -24.5 85t-92.5 32h-41l9 41h184q82 0 118 -23.5t36 -101.5q0 -8 -1 -22.5t-7.5 -54.5t-19.5 -116t-35.5 -210t-57.5 -334.5t-86 -489.5h-185z" />
<glyph unicode="m" horiz-adv-x="1615" d="M63 922l7 41h184q78 0 115 -21.5t45 -60.5h10q47 39 119.5 70.5t165.5 31.5q76 0 136 -29.5t85 -113.5q66 70 156 106.5t176 36.5q49 0 91 -10t73.5 -38t50 -74t18.5 -118q0 -10 -1 -22t-4 -39t-11.5 -75t-21.5 -128t-32.5 -196.5t-48.5 -282.5h-184q29 164 48.5 280.5 t32.5 195.5t21.5 126t11.5 73.5t4 38t1 19.5q0 86 -34 122t-93 36q-31 0 -65 -12.5t-65.5 -32t-60 -43t-47.5 -45.5v-15q0 -12 -3 -38.5t-15.5 -102.5t-37 -217t-67.5 -385h-184q29 164 48.5 280.5t32.5 195.5t21.5 126t11.5 73.5t4 38t1 19.5q0 86 -34 122t-93 36 q-61 0 -118.5 -33t-104.5 -76l-138 -782h-184q33 188 55.5 319.5t38 218.5t23.5 138t12 78.5t5 38t1 16.5q0 53 -25.5 83t-91.5 30h-41z" />
<glyph unicode="n" horiz-adv-x="1124" d="M63 922l7 41h184q78 0 115 -21.5t45 -60.5h10q47 39 119.5 70.5t165.5 31.5q57 0 109 -11t93 -41t65.5 -81t24.5 -129q0 -8 -1 -19.5t-4 -37t-10 -70.5t-20.5 -123t-33 -192.5t-47.5 -278.5h-185q29 160 48.5 272.5t32 187.5t19.5 119t10 67.5t4 32.5t1 15q0 53 -15.5 91 t-41 61.5t-58 34t-69.5 10.5q-61 0 -118.5 -33t-104.5 -76l-138 -782h-184q33 188 55.5 319.5t38 218.5t23.5 138t12 78.5t5 38t1 16.5q0 53 -25.5 83t-91.5 30h-41z" />
<glyph unicode="o" horiz-adv-x="1083" d="M66 367q0 109 37.5 219t109.5 198t173 143.5t228 55.5q92 0 162 -29.5t117 -81t70.5 -123t23.5 -153.5q0 -109 -38 -219.5t-109.5 -198.5t-173 -143t-228.5 -55q-92 0 -161.5 29.5t-116.5 80.5t-70.5 122t-23.5 155zM258 354q0 -129 50.5 -211t144.5 -82q86 0 150.5 58.5 t106.5 142.5t63.5 178.5t21.5 167.5q0 129 -50.5 211t-144.5 82q-86 0 -150.5 -58.5t-106.5 -142.5t-63.5 -178t-21.5 -168z" />
<glyph unicode="p" horiz-adv-x="1112" d="M16 -389q49 285 84 482.5t58.5 328.5t36 205.5t18.5 112.5t7 50.5t1 18.5q0 53 -25.5 83t-91.5 30h-41l7 41h184q78 0 115 -22.5t43 -70.5h10q39 39 109.5 76t187.5 37q76 0 131 -26.5t92 -74.5t54.5 -114t17.5 -143q0 -102 -30 -215t-90 -209.5t-152.5 -158.5 t-219.5 -62q-86 0 -145.5 19t-100.5 42l-75 -430h-185zM291 123q41 -23 89 -42.5t95 -19.5q96 0 163 60.5t106.5 148.5t57 189.5t17.5 181.5q0 117 -41 188.5t-135 71.5q-86 0 -141.5 -38t-93.5 -85z" />
<glyph unicode="q" horiz-adv-x="1073" d="M66 338q0 94 28.5 207.5t87 210t146.5 162t209 65.5q115 0 174 -37t82 -76h10l88 93h102l-237 -1352h-185l76 430q-51 -23 -115.5 -42t-150.5 -19q-82 0 -141.5 26.5t-98.5 74.5t-57 113.5t-18 143.5zM260 326q0 -117 45 -191t152 -74q47 0 100 19.5t105 42.5l116 655 q-23 45 -66.5 84t-127.5 39q-59 0 -106.5 -28.5t-83.5 -75.5t-61.5 -108.5t-42 -125t-23.5 -126t-7 -111.5z" />
<glyph unicode="r" horiz-adv-x="825" d="M72 922l6 41h164q78 0 114.5 -22.5t42.5 -70.5h11q39 39 106.5 76t159.5 37q31 0 63.5 -7t53.5 -24q23 -16 35 -38.5t22 -53.5l-94 -61q-16 31 -57.5 46t-94.5 15q-61 0 -117.5 -27.5t-95.5 -74.5l-133 -758h-184q33 188 55.5 319.5t37.5 218.5t23.5 138t12.5 78.5t5 38 t1 16.5q0 53 -25.5 83t-91.5 30h-20z" />
<glyph unicode="s" horiz-adv-x="919" d="M35 154q0 27 5 56.5t11 65.5h41v-4q0 -98 60.5 -154.5t189.5 -56.5q37 0 80 8.5t82 28t64.5 52t25.5 81.5q0 51 -38 87t-116 71l-114 51q-94 41 -147.5 97.5t-53.5 136.5q0 74 34 131t89 97t124.5 60.5t141.5 20.5q41 0 96.5 -4t105.5 -21.5t85 -51.5t35 -93 q0 -31 -5.5 -62.5t-9.5 -64.5h-41v4q0 98 -58 154.5t-181 56.5q-35 0 -75 -8t-75 -27.5t-58.5 -51.5t-23.5 -77q0 -47 35 -86t100 -67l113 -52q106 -47 163.5 -100t57.5 -137q0 -78 -35.5 -136.5t-94 -98.5t-131.5 -60t-148 -20q-43 0 -100.5 4t-110 20t-88 52t-35.5 98z " />
<glyph unicode="t" horiz-adv-x="688" d="M94 881l15 82h143l33 184l125 123h82l-56 -307h246l-14 -82h-246q-29 -164 -48.5 -279t-32.5 -190.5t-20.5 -118.5t-10.5 -65.5t-4 -31t-1 -12.5q0 -123 117 -123q53 0 90 12.5t70 28.5l14 -41q-35 -23 -98.5 -52t-171.5 -29q-92 0 -148.5 47t-56.5 147q0 8 2 26.5t13 87 t35 207t67 386.5h-144z" />
<glyph unicode="u" horiz-adv-x="1099" d="M51 922l6 41h164q82 0 119 -25t37 -100q0 -25 -4 -54.5t-11 -66.5q-27 -150 -41 -235t-21 -129t-8 -59t-1 -24q0 -55 15.5 -93t41 -61.5t58 -33.5t69.5 -10q61 0 118.5 32.5t104.5 75.5l138 783h184l-168 -963h-102l-58 82h-10q-47 -39 -120 -70.5t-165 -31.5 q-57 0 -110.5 12t-94 41.5t-65.5 81t-25 131.5q0 12 2 29.5t9.5 64.5t23 135t41.5 242q10 57 10 92q0 53 -25.5 83t-90.5 30h-21z" />
<glyph unicode="v" horiz-adv-x="1019" d="M49 938l8 41q8 0 32 2t38 2q45 0 91 -10t86 -38t73 -78t53 -130l107 -440l405 676h102l-591 -983h-41l-187 747q-14 57 -29.5 96t-36 63.5t-47 37t-63.5 14.5z" />
<glyph unicode="w" horiz-adv-x="1533" d="M47 938l8 41q8 0 33 2t39 2q49 0 95 -11t84 -40t67.5 -79t46.5 -126l98 -430l252 440q-29 106 -64.5 151.5t-105.5 49.5l8 41q8 0 33 2t39 2q49 0 95 -11t84 -40t67.5 -79t46.5 -126l98 -430l383 666h102l-571 -983h-41l-145 634l-367 -634h-41l-166 747 q-27 115 -64.5 161t-113.5 50z" />
<glyph unicode="x" horiz-adv-x="1003" d="M-20 0l407 461l-125 297q-61 147 -182 164l6 41h174q70 0 121 -44.5t82 -119.5l90 -215l332 379h102l-407 -461l125 -297q61 -150 192 -164l-6 -41h-184q-70 0 -121 44t-82 120l-90 215l-332 -379h-102z" />
<glyph unicode="y" horiz-adv-x="1052" d="M35 -410l12 62q45 0 87 9t80 32.5t75 65.5t71 108l62 113l-186 798q-18 78 -69.5 117t-127.5 47l6 41h174q92 0 145.5 -43t71.5 -121l133 -567l383 711h103l-592 -1096q-45 -84 -88 -138.5t-87 -85t-91 -42t-101 -11.5h-61z" />
<glyph unicode="z" horiz-adv-x="958" d="M-6 0l6 39l680 842h-236q-131 0 -201.5 -49.5t-86.5 -135.5h-41l18 103q6 31 18.5 60.5t35 52t59.5 37t90 14.5h625l-707 -881h553l-14 -82h-799z" />
<glyph unicode="{" horiz-adv-x="622" d="M2 461l10 61q119 16 175.5 83t72.5 153l49 286q25 139 118 230.5t286 138.5l-11 -61q-57 -16 -94 -36t-61.5 -46.5t-37.5 -62.5t-22 -81l-59 -348q-23 -123 -88.5 -189.5t-177.5 -96.5q86 -27 129 -76t43 -135q0 -61 -12.5 -123t-25.5 -123.5t-25.5 -124t-12.5 -125.5 q0 -59 29.5 -94t111.5 -60l-12 -61q-150 39 -215.5 110.5t-65.5 178.5q0 51 10.5 102t23 102.5t22.5 105.5t10 112q0 66 -38 117t-132 63z" />
<glyph unicode="|" horiz-adv-x="495" d="M-12 -389l313 1782h184l-313 -1782h-184z" />
<glyph unicode="}" horiz-adv-x="622" d="M-117 -430l13 61q55 14 92 35t60.5 47.5t36.5 61.5t21 82l62 348q23 123 87 189.5t179 97.5q-86 27 -129 74.5t-43 133.5q0 61 12.5 123t25.5 123.5t25.5 125t12.5 128.5q0 57 -32 92t-109 60l10 61q150 -39 215 -111.5t65 -177.5q0 -53 -10 -105t-21.5 -104.5 t-21.5 -105.5t-10 -109q0 -66 38 -115.5t130 -62.5l-10 -61q-119 -16 -174.5 -83t-71.5 -153l-51 -286q-25 -139 -117 -230.5t-285 -138.5z" />
<glyph unicode="~" horiz-adv-x="1294" d="M94 389q14 76 45 131t72 89t87 50.5t93 16.5q76 0 144.5 -25.5t133 -56.5t125 -56.5t121.5 -25.5q78 0 128.5 41t60.5 102h82q-14 -78 -45 -132t-72 -88t-88 -50t-92 -16q-78 0 -145.5 25.5t-132 56t-125 56t-121.5 25.5q-78 0 -128.5 -40.5t-60.5 -102.5h-82z" />
<glyph unicode="&#xa2;" horiz-adv-x="993" d="M55 358q0 111 34 216.5t98.5 190.5t159.5 143.5t218 74.5l15 82h82l-15 -82q37 0 85 -5t89 -22.5t70 -49.5t29 -83q0 -45 -8.5 -89t-16.5 -89h-41q2 12 2 23.5v21.5q0 109 -62.5 160t-160.5 51l-148 -840q109 0 183.5 43t142.5 121l35 -30q-82 -106 -173 -156.5 t-202 -58.5l-14 -82h-82l14 82q-86 6 -148.5 36.5t-104.5 82t-61.5 117t-19.5 142.5zM250 350q0 -106 38 -181t118 -97l143 819q-80 -25 -136.5 -82t-92 -133t-53 -162t-17.5 -164z" />
<glyph unicode="&#xa3;" horiz-adv-x="1087" d="M-29 0l9 51q45 12 81.5 38t66.5 73t53.5 117.5t41.5 171.5l37 204h-143l14 82h143l37 205q25 137 69 222t102.5 131t126 61.5t136.5 15.5q41 0 97.5 -3t106.5 -19.5t85 -49t35 -94.5q0 -23 -3 -44t-7 -46h-92q-6 100 -57.5 137t-137.5 37q-47 0 -89 -14t-77 -52 t-63.5 -106.5t-46.5 -175.5l-37 -205h286l-14 -82h-287l-36 -204q-25 -147 -70 -234.5t-107 -134.5h379q123 0 199 56.5t98 178.5h41l-26 -153q-6 -31 -18.5 -60.5t-35 -52t-59.5 -37t-90 -14.5h-748z" />
<glyph unicode="&#xa5;" horiz-adv-x="1417" d="M178 1311l8 41h185q57 0 99 -19.5t72.5 -51.5t53 -72t41.5 -83l217 -460l549 686h92l-616 -779l-7 -30h195l-14 -82h-195l-14 -82h194l-14 -82h-195l-51 -297h-184l51 297h-194l14 82h194l15 82h-195l15 82h194l4 16l-256 526q-23 45 -46 85t-52 70t-68 48.5t-92 22.5z " />
<glyph unicode="&#xa8;" horiz-adv-x="634" d="M223 1495q0 47 35 85t88 38q41 0 63.5 -22.5t22.5 -59.5q0 -47 -35 -85t-88 -38q-41 0 -63.5 22.5t-22.5 59.5zM571 1495q0 47 35 85t88 38q41 0 63.5 -22.5t22.5 -59.5q0 -47 -34.5 -85t-88.5 -38q-41 0 -63.5 22.5t-22.5 59.5z" />
<glyph unicode="&#xa9;" horiz-adv-x="1615" d="M88 535q0 166 66.5 322.5t183.5 278t275.5 194.5t340.5 73q139 0 252 -43t193 -120t124 -185.5t44 -237.5q0 -166 -67.5 -322.5t-184.5 -278.5t-275.5 -194.5t-341.5 -72.5q-139 0 -251.5 43t-192.5 119.5t-123 185.5t-43 238zM170 543q0 -115 38 -209t108.5 -162 t171 -104.5t225.5 -36.5q156 0 295 61.5t245.5 165.5t169 245.5t62.5 301.5q0 117 -38 212t-108.5 162.5t-172 104.5t-226.5 37q-158 0 -297 -61.5t-244.5 -167t-167 -248t-61.5 -301.5zM408 569q0 94 36.5 197.5t103 188.5t160 140.5t203.5 55.5q39 0 91.5 -7t98.5 -26.5 t78.5 -53.5t32.5 -89q0 -29 -4 -59.5t-10 -65.5q0 -2 -1 -3t-1 -3h-27q-2 131 -59 192.5t-168 61.5q-100 0 -176 -48.5t-127 -125t-76.5 -171t-25.5 -186.5q0 -59 14 -113.5t46 -95.5t81 -64.5t119 -23.5q100 0 180 47.5t151 139.5l23 -21q-86 -125 -185.5 -173t-220.5 -48 q-82 0 -144 26.5t-105 73.5t-65.5 112t-22.5 142z" />
<glyph unicode="&#xab;" horiz-adv-x="768" d="M55 461l389 399h82l-266 -399l125 -400h-82zM342 461l258 297h82l-176 -297l72 -297h-82z" />
<glyph unicode="&#xad;" horiz-adv-x="796" d="M121 471l24 143h523l-25 -143h-522z" />
<glyph unicode="&#xae;" horiz-adv-x="1615" d="M88 535q0 166 66.5 322.5t183.5 278t275.5 194.5t340.5 73q139 0 252 -43t193 -120t124 -185.5t44 -237.5q0 -166 -67.5 -322.5t-184.5 -278.5t-275.5 -194.5t-341.5 -72.5q-139 0 -251.5 43t-192.5 119.5t-123 185.5t-43 238zM170 543q0 -115 38 -209t108.5 -162 t171 -104.5t225.5 -36.5q156 0 295 61.5t245.5 165.5t169 245.5t62.5 301.5q0 117 -38 212t-108.5 162.5t-172 104.5t-226.5 37q-158 0 -297 -61.5t-244.5 -167t-167 -248t-61.5 -301.5zM496 256l125 715q6 33 6 61q0 35 -15.5 53.5t-58.5 18.5h-27l4 26h344q39 0 90.5 -6 t96.5 -26.5t75.5 -58.5t30.5 -101q0 -111 -71.5 -179.5t-182.5 -88.5l107 -238q37 -82 67.5 -113.5t79.5 -37.5l-4 -25q-10 -6 -35.5 -10t-54.5 -4q-33 0 -58.5 9t-47 31.5t-43 59.5t-43.5 90l-99 230h-98l-70 -406h-118zM696 721q18 -4 45 -9t52 -5q41 0 84 16t77.5 46 t57 71t22.5 90q0 41 -17.5 70.5t-44 48t-57 27.5t-55.5 9t-53.5 -5t-48.5 -9z" />
<glyph unicode="&#xb4;" horiz-adv-x="358" d="M211 1434l129 266h195l-242 -266h-82z" />
<glyph unicode="&#xb8;" horiz-adv-x="368" d="M-72 -401l15 84h102q37 0 66.5 20.5t29.5 60.5q0 51 -71 52h-93l33 184h92l-18 -102h20q61 0 100.5 -30t39.5 -89q0 -78 -55.5 -129t-137.5 -51h-123z" />
<glyph unicode="&#xbb;" horiz-adv-x="768" d="M49 164l174 297l-69 297h82l151 -297l-256 -297h-82zM205 61l264 400l-123 399h82l246 -399l-387 -400h-82z" />
<glyph unicode="&#x160;" horiz-adv-x="1093" d="M47 190q0 2 1 9.5t4 31t11.5 70.5t24.5 133h37v-14q0 -199 87 -286t257 -87q53 0 108.5 16.5t99.5 48t72.5 79t28.5 108.5q0 72 -46 126t-134 114l-225 149q-98 66 -141.5 129.5t-43.5 149.5q0 92 37 168.5t99.5 133t147.5 88.5t181 32q72 0 143.5 -15.5t129 -43 t93.5 -69.5t36 -94q0 -4 -1 -10t-4 -29.5t-12.5 -70.5t-23.5 -133h-37v14q0 199 -84 284t-254 85q-49 0 -99.5 -17.5t-90 -50.5t-64.5 -78t-25 -100q0 -72 48.5 -121t136.5 -109l225 -149q100 -66 150.5 -128t50.5 -148q0 -96 -41 -177.5t-109.5 -139.5t-159 -91t-188.5 -33 q-80 0 -155.5 15.5t-136 45t-97.5 70.5t-37 94zM449 1710h102l145 -163l203 163h103l-205 -235h-225z" />
<glyph unicode="&#x161;" horiz-adv-x="919" d="M35 154q0 27 5 56.5t11 65.5h41v-4q0 -98 60.5 -154.5t189.5 -56.5q37 0 80 8.5t82 28t64.5 52t25.5 81.5q0 51 -38 87t-116 71l-114 51q-94 41 -147.5 97.5t-53.5 136.5q0 74 34 131t89 97t124.5 60.5t141.5 20.5q41 0 96.5 -4t105.5 -21.5t85 -51.5t35 -93 q0 -31 -5.5 -62.5t-9.5 -64.5h-41v4q0 98 -58 154.5t-181 56.5q-35 0 -75 -8t-75 -27.5t-58.5 -51.5t-23.5 -77q0 -47 35 -86t100 -67l113 -52q106 -47 163.5 -100t57.5 -137q0 -78 -35.5 -136.5t-94 -98.5t-131.5 -60t-148 -20q-43 0 -100.5 4t-110 20t-88 52t-35.5 98z M293 1300h102l145 -163l203 163h103l-205 -235h-225z" />
<glyph unicode="&#x17d;" horiz-adv-x="1216" d="M-45 0l6 41l1067 1229h-491q-123 0 -199 -56.5t-98 -179.5h-41l26 154q6 31 18.5 60.5t35 52t59.5 37t90 14.5h891l-1094 -1270h840l-14 -82h-1096zM559 1689h102l145 -163l203 163h103l-205 -235h-225z" />
<glyph unicode="&#x17e;" horiz-adv-x="958" d="M-6 0l6 39l680 842h-236q-131 0 -201.5 -49.5t-86.5 -135.5h-41l18 103q6 31 18.5 60.5t35 52t59.5 37t90 14.5h625l-707 -881h553l-14 -82h-799zM353 1300h102l145 -163l203 163h103l-205 -235h-225z" />
<glyph unicode="&#x2c6;" horiz-adv-x="634" d="M197 1352l204 235h226l123 -235h-103l-145 164l-203 -164h-102z" />
<glyph unicode="&#x2da;" horiz-adv-x="409" d="M195 1233q0 37 17 72.5t46 64.5t65.5 46.5t77.5 17.5q61 0 103.5 -44t42.5 -104q0 -37 -17.5 -72.5t-46 -64.5t-66.5 -46.5t-77 -17.5q-61 0 -103 44.5t-42 103.5zM276 1237q0 -37 20.5 -58.5t55.5 -21.5q47 0 80 37t33 88q0 37 -20.5 58.5t-55.5 21.5q-47 0 -80 -37 t-33 -88z" />
<glyph unicode="&#x2dc;" horiz-adv-x="542" d="M203 1393q20 109 58 151.5t99 42.5q33 0 57.5 -13t46 -28.5t44 -28t53.5 -12.5q12 0 24.5 8.5t24 20.5t18.5 26.5t9 26.5h61q-18 -109 -57 -151.5t-100 -42.5q-33 0 -56.5 12t-45 27.5t-45 29t-54.5 13.5q-12 0 -24.5 -8.5t-22.5 -20.5t-18.5 -26.5t-10.5 -26.5h-61z" />
<glyph unicode="&#x401;" horiz-adv-x="1214" d="M123 0q49 285 84 482.5t57.5 327.5t34.5 203.5t18.5 111.5t7.5 50.5t1 18.5q0 53 -25 85t-92 32h-41l8 41h873q88 0 118.5 -35t30.5 -84q0 -6 -1 -14.5t-4 -28t-9 -56t-17 -100.5h-41q6 33 7 62q0 92 -57.5 133t-164.5 41h-381l-94 -533h553l-14 -82h-553l-100 -573h358 q139 0 229 51t158 174l39 -10l-107 -195q-25 -47 -66.5 -74.5t-103.5 -27.5h-522h-184zM502 1577q0 47 35 85t88 38q41 0 63.5 -22.5t22.5 -59.5q0 -47 -35 -85t-88 -38q-41 0 -63.5 22.5t-22.5 59.5zM850 1577q0 47 35 85t88 38q41 0 63.5 -22.5t22.5 -59.5 q0 -47 -34.5 -85t-88.5 -38q-41 0 -63.5 22.5t-22.5 59.5z" />
<glyph unicode="&#x402;" horiz-adv-x="1273" d="M117 1270l14 82h717l-14 -82h-267l-84 -471q53 31 153.5 56.5t209.5 25.5q68 0 130 -12.5t109.5 -47.5t75 -96t27.5 -160q0 -127 -24.5 -243.5t-77 -207.5t-132.5 -145.5t-188 -54.5q-14 0 -28.5 1t-30.5 3l8 41q53 0 95 33t73.5 83t54.5 113.5t37 128t20 123t6 101.5 q0 74 -18 122t-50 75.5t-74 38.5t-91 11q-78 0 -163 -25.5t-138 -55.5l-123 -707h-184l223 1270h-266z" />
<glyph unicode="&#x403;" horiz-adv-x="1107" d="M123 0q49 285 84 482.5t57.5 327.5t34.5 203.5t18.5 111.5t7.5 50.5t1 18.5q0 53 -25 85t-92 32h-41l8 41h850q88 0 119 -36t31 -85q0 -6 -1 -13.5t-4.5 -28t-9.5 -56t-16 -99.5h-41q6 33 6 62q0 92 -57.5 133t-163.5 41h-359l-223 -1270h-184zM639 1434l186 235h174 l-258 -235h-102z" />
<glyph unicode="&#x404;" horiz-adv-x="1366" d="M94 506q0 178 66.5 339t176 282.5t250 193.5t285.5 72q231 0 348 -78t117 -189q0 -47 -7 -99t-17 -105h-41q-4 203 -92 296t-260 93q-96 0 -186.5 -31t-169.5 -101.5t-141.5 -183t-98.5 -278.5h677l-14 -82h-678q-4 -33 -7 -65.5t-3 -63.5q0 -92 21.5 -177t68.5 -148.5 t123 -101.5t184 -38q154 0 278 72.5t234 214.5l35 -31q-66 -96 -137.5 -160.5t-148 -104.5t-160.5 -56.5t-176 -16.5q-127 0 -225.5 41t-165 114.5t-101.5 174t-35 217.5z" />
<glyph unicode="&#x405;" horiz-adv-x="1093" d="M47 190q0 2 1 9.5t4 31t11.5 70.5t24.5 133h37v-14q0 -199 87 -286t257 -87q53 0 108.5 16.5t99.5 48t72.5 79t28.5 108.5q0 72 -46 126t-134 114l-225 149q-98 66 -141.5 129.5t-43.5 149.5q0 92 37 168.5t99.5 133t147.5 88.5t181 32q72 0 143.5 -15.5t129 -43 t93.5 -69.5t36 -94q0 -4 -1 -10t-4 -29.5t-12.5 -70.5t-23.5 -133h-37v14q0 199 -84 284t-254 85q-49 0 -99.5 -17.5t-90 -50.5t-64.5 -78t-25 -100q0 -72 48.5 -121t136.5 -109l225 -149q100 -66 150.5 -128t50.5 -148q0 -96 -41 -177.5t-109.5 -139.5t-159 -91t-188.5 -33 q-80 0 -155.5 15.5t-136 45t-97.5 70.5t-37 94z" />
<glyph unicode="&#x406;" horiz-adv-x="591" d="M115 125q0 25 4 54.5t10 66.5l195 1106h184l-195 -1106q-10 -57 -10 -92q0 -53 25.5 -83t91.5 -30h41l-6 -41h-185q-82 0 -118.5 24.5t-36.5 100.5z" />
<glyph unicode="&#x407;" horiz-adv-x="591" d="M115 125q0 25 4 54.5t10 66.5l195 1106h184l-195 -1106q-10 -57 -10 -92q0 -53 25.5 -83t91.5 -30h41l-6 -41h-185q-82 0 -118.5 24.5t-36.5 100.5zM190 1546q0 47 35 85t88 38q41 0 63.5 -21.5t22.5 -56.5q0 -49 -32.5 -88t-87.5 -39q-41 0 -65 22.5t-24 59.5zM506 1546 q0 47 34.5 85t88.5 38q41 0 63.5 -21.5t22.5 -56.5q0 -49 -33 -88t-88 -39q-41 0 -64.5 22.5t-23.5 59.5z" />
<glyph unicode="&#x408;" horiz-adv-x="540" d="M-164 -281l8 41q98 0 164 106.5t98 293.5l211 1192h185l-211 -1192q-20 -115 -52 -199t-84.5 -137t-130 -79t-188.5 -26z" />
<glyph unicode="&#x409;" horiz-adv-x="1976" d="M-109 -2l9 51q45 2 91 19.5t91 60.5t89 116.5t86 189.5t84 281t83 390q4 25 6 46.5t2 41.5q0 53 -24.5 85t-92.5 32h-20l8 41h993l-100 -574h225q82 0 167 -12t154.5 -46t114 -94.5t44.5 -158.5q0 -147 -62.5 -239.5t-155 -142.5t-200 -67.5t-199.5 -17.5h-223h-187 l224 1270h-492l-28 -164q-61 -350 -132 -569.5t-147 -343t-154.5 -168.5t-154.5 -45q-23 0 -50.5 5t-48.5 13zM1075 102q45 -16 94.5 -23t96.5 -7q88 0 165.5 24.5t136 73.5t93.5 122t35 171q0 123 -85 183.5t-235 60.5q-47 0 -97 -7.5t-101 -23.5z" />
<glyph unicode="&#x40a;" horiz-adv-x="1998" d="M123 0q49 285 84 482.5t57.5 327.5t34.5 203.5t18.5 111.5t7.5 50.5t1 18.5q0 53 -25 85t-92 32h-41l8 41h184q82 0 118 -24.5t36 -100.5q0 -12 -2 -31.5t-9 -69t-23.5 -141.5t-43.5 -248h594l109 615h184l-109 -615h226q82 0 167 -12t155.5 -44t115.5 -90.5t45 -150.5 q0 -139 -61.5 -225t-153.5 -133t-198.5 -64.5t-198.5 -17.5h-410l115 655h-594l-115 -655h-184zM1102 102q45 -16 94 -23t96 -7q80 0 156 21.5t136.5 66.5t97 112.5t36.5 157.5q0 117 -85 176.5t-236 59.5q-47 0 -98.5 -7.5t-102.5 -23.5z" />
<glyph unicode="&#x40b;" horiz-adv-x="1288" d="M117 1270l14 82h717l-14 -82h-267l-84 -471q53 31 153.5 56.5t209.5 25.5q72 0 136.5 -12.5t112.5 -43t76.5 -84t28.5 -135.5q0 -10 -2 -29.5t-11 -79t-28.5 -176t-56.5 -321.5h-184q35 201 54 313.5t28.5 169t11.5 71.5t2 24q0 57 -19.5 98t-53.5 65.5t-78 35.5t-95 11 q-78 0 -163 -25.5t-138 -55.5l-123 -707h-184l223 1270h-266z" />
<glyph unicode="&#x40c;" horiz-adv-x="1388" d="M123 0q49 285 84 482.5t57.5 327.5t34.5 203.5t18.5 111.5t7.5 50.5t1 18.5q0 53 -25 85t-92 32h-41l8 41h184q82 0 119 -24.5t37 -100.5q0 -12 -2 -31.5t-11 -72t-25.5 -151t-47.5 -265.5l506 430q45 39 88 76.5t89 68.5t97.5 50.5t112.5 19.5h102l-10 -52q-43 0 -80 -6 t-73.5 -22.5t-77.5 -44t-90 -70.5l-469 -399l383 -492q68 -88 150.5 -152.5t158.5 -74.5l-6 -39q-25 -8 -57.5 -14t-79.5 -6q-43 0 -88.5 9t-94.5 36.5t-102 74.5t-113 125l-350 451l-119 -676h-184zM715 1387l186 235h174l-258 -235h-102z" />
<glyph unicode="&#x40e;" horiz-adv-x="1245" d="M68 1311l8 41h246q49 0 82.5 -19.5t57 -51.5t38 -72t26.5 -83l170 -614l516 840h123l-708 -1157q-61 -100 -150.5 -157.5t-212.5 -57.5h-102l10 61q45 0 93 7t92 24.5t82 47.5t67 75l31 51l-232 839q-12 43 -25.5 82t-38 70t-65.5 50.5t-108 23.5zM624 1620l45 31 q25 -39 74 -65.5t135 -26.5t145.5 26.5t96.5 65.5l37 -31q-53 -86 -126 -135t-173 -49t-155.5 49t-78.5 135z" />
<glyph unicode="&#x40f;" horiz-adv-x="1384" d="M123 0q49 285 84 482.5t57.5 327.5t34.5 203.5t18.5 111.5t7.5 50.5t1 18.5q0 53 -25 85t-92 32h-41l8 41h184q82 0 118 -24.5t36 -100.5q0 -8 -1 -21.5t-7 -51.5t-17.5 -109.5t-33 -196.5t-54 -311.5t-79.5 -454.5h614l223 1270h184l-237 -1352h-410l-94 -358h-102 l32 358h-409z" />
<glyph unicode="&#x410;" horiz-adv-x="1298" d="M-47 0l811 1352h61l258 -1096q12 -57 27.5 -97t37 -64.5t51.5 -37t71 -16.5l-6 -41q-37 -10 -84 -10q-35 0 -79 8t-87 35.5t-80 81t-55 141.5l-29 133h-574l-231 -389h-92zM322 471h501l-141 594z" />
<glyph unicode="&#x411;" horiz-adv-x="1253" d="M123 0q49 285 84 482.5t57.5 327.5t34.5 203.5t18.5 111.5t7.5 50.5t1 18.5q0 53 -25 85t-92 32h-41l8 41h862q88 0 119 -36t31 -85q0 -6 -1 -13.5t-4 -28t-9.5 -56t-16.5 -99.5h-41q6 33 6 62q0 92 -57 133t-164 41h-371l-86 -492h226q82 0 167 -12t154.5 -46 t113.5 -94.5t44 -158.5q0 -147 -62.5 -239.5t-154.5 -142.5t-199.5 -67.5t-200.5 -17.5h-225h-184zM324 100q96 -28 190 -28q88 0 166 24.5t136 73.5t93 122t35 171q0 123 -85 183.5t-234 60.5q-96 0 -199 -29z" />
<glyph unicode="&#x412;" horiz-adv-x="1277" d="M121 0l194 1106q4 25 6.5 46.5t2.5 41.5q0 53 -25 85t-92 32h-41l8 41h533q74 0 160.5 -9.5t161.5 -40t124 -88t49 -153.5q0 -70 -25.5 -127t-70.5 -102.5t-103.5 -79t-125.5 -56.5q162 -27 225 -92t63 -160q0 -123 -54 -207.5t-143 -137t-204 -76t-234 -23.5h-227h-182z M322 100q45 -14 94 -21t96 -7q78 0 157 19.5t143.5 61.5t104 107.5t39.5 157.5q0 111 -86 169t-258 58h-194zM432 727h195q66 0 133 21.5t122.5 63.5t90.5 101.5t35 135.5q0 61 -30 104t-76 71.5t-103.5 42t-114.5 13.5q-39 0 -82 -6t-76 -14z" />
<glyph unicode="&#x413;" horiz-adv-x="1107" d="M123 0q49 285 84 482.5t57.5 327.5t34.5 203.5t18.5 111.5t7.5 50.5t1 18.5q0 53 -25 85t-92 32h-41l8 41h850q88 0 119 -36t31 -85q0 -6 -1 -13.5t-4.5 -28t-9.5 -56t-16 -99.5h-41q6 33 6 62q0 92 -57.5 133t-163.5 41h-359l-223 -1270h-184z" />
<glyph unicode="&#x414;" horiz-adv-x="1411" d="M-154 -369l64 379q4 31 29.5 51.5t56.5 20.5h82q137 217 219 473t135 551q4 25 6 46.5t2 41.5q0 53 -24.5 85t-91.5 32h-31l8 41h1024l-223 -1270h112q27 0 43.5 -15.5t16.5 -41.5q0 -2 -1 -9.5t-8.5 -45.5t-20.5 -116.5t-38 -222.5h-92q2 23 2 42.5v39.5 q0 162 -47 224.5t-145 62.5h-666q-55 0 -100 -18.5t-84 -61.5t-73 -113.5t-64 -175.5h-91zM221 82h697l208 1188h-532q-37 -209 -76 -381t-84 -316.5t-97 -265.5t-116 -225z" />
<glyph unicode="&#x415;" horiz-adv-x="1214" d="M123 0q49 285 84 482.5t57.5 327.5t34.5 203.5t18.5 111.5t7.5 50.5t1 18.5q0 53 -25 85t-92 32h-41l8 41h873q88 0 118.5 -35t30.5 -84q0 -6 -1 -14.5t-4 -28t-9 -56t-17 -100.5h-41q6 33 7 62q0 92 -57.5 133t-164.5 41h-381l-94 -533h553l-14 -82h-553l-100 -573h358 q139 0 229 51t158 174l39 -10l-107 -195q-25 -47 -66.5 -74.5t-103.5 -27.5h-522h-184z" />
<glyph unicode="&#x416;" horiz-adv-x="1941" d="M-117 0l8 39q35 4 80 22.5t93.5 49t97.5 70.5t94 85l477 492l-248 399q-53 88 -117.5 115.5t-134.5 27.5l11 52h102q53 0 95 -17.5t76 -47.5t62.5 -68.5t55.5 -81.5l272 -430l115 645h178l-115 -645l424 430q41 43 84 81.5t88 68.5t93.5 47.5t101.5 17.5h102l-10 -52 q-70 0 -142.5 -27.5t-158.5 -115.5l-387 -399l301 -492q57 -92 138 -155.5t151 -71.5l-6 -39q-25 -8 -57.5 -14t-80.5 -6q-35 0 -79.5 9t-96 34.5t-102.5 73.5t-98 128l-269 451l-118 -676h-179l119 676l-428 -451q-76 -80 -144.5 -128t-128 -73.5t-107.5 -34.5t-83 -9 q-47 0 -76.5 6t-52.5 14z" />
<glyph unicode="&#x417;" horiz-adv-x="1171" d="M0 215l47 31q53 -92 144.5 -148.5t238.5 -56.5q88 0 165 24.5t133 71.5t88 114.5t32 151.5q0 117 -86 179.5t-256 62.5h-154l15 82h153q74 0 146.5 22.5t130 67.5t93.5 110.5t36 151.5q0 57 -21.5 101.5t-58.5 73t-84 43t-98 14.5q-147 0 -264 -87t-183 -241h-41 q16 92 33.5 155.5t64.5 110.5q33 33 81 59.5t104.5 45t116 29t112.5 10.5q70 0 146.5 -10.5t140 -43t105.5 -91t42 -152.5q0 -125 -79.5 -232.5t-272.5 -167.5q158 -31 221.5 -100.5t63.5 -169.5q0 -143 -62.5 -234.5t-155 -142.5t-199 -70.5t-192.5 -19.5q-154 0 -267 55.5 t-179 200.5z" />
<glyph unicode="&#x418;" horiz-adv-x="1425" d="M123 0q49 285 84 482.5t57.5 327.5t34.5 203.5t18.5 111.5t7.5 50.5t1 18.5q0 53 -25 85t-92 32h-41l8 41h184q82 0 118 -24.5t36 -100.5q0 -8 -1 -21.5t-6 -48.5t-16.5 -100.5t-31 -178t-49 -282.5t-72.5 -412l862 1168h184l-237 -1352h-184l204 1167l-860 -1167h-184z " />
<glyph unicode="&#x419;" horiz-adv-x="1425" d="M123 0q49 285 84 482.5t57.5 327.5t34.5 203.5t18.5 111.5t7.5 50.5t1 18.5q0 53 -25 85t-92 32h-41l8 41h184q82 0 118 -24.5t36 -100.5q0 -8 -1 -21.5t-6 -48.5t-16.5 -100.5t-31 -178t-49 -282.5t-72.5 -412l862 1168h184l-237 -1352h-184l204 1167l-860 -1167h-184z M657 1638l45 31q25 -39 74 -65.5t135 -26.5t145.5 26.5t96.5 65.5l37 -31q-53 -86 -126 -135t-173 -49t-155.5 49t-78.5 135z" />
<glyph unicode="&#x41a;" horiz-adv-x="1388" d="M123 0q49 285 84 482.5t57.5 327.5t34.5 203.5t18.5 111.5t7.5 50.5t1 18.5q0 53 -25 85t-92 32h-41l8 41h184q82 0 119 -24.5t37 -100.5q0 -12 -2 -31.5t-11 -72t-25.5 -151t-47.5 -265.5l506 430q45 39 88 76.5t89 68.5t97.5 50.5t112.5 19.5h102l-10 -52q-43 0 -80 -6 t-73.5 -22.5t-77.5 -44t-90 -70.5l-469 -399l383 -492q68 -88 150.5 -152.5t158.5 -74.5l-6 -39q-25 -8 -57.5 -14t-79.5 -6q-43 0 -88.5 9t-94.5 36.5t-102 74.5t-113 125l-350 451l-119 -676h-184z" />
<glyph unicode="&#x41b;" horiz-adv-x="1357" d="M-109 -2l9 51q45 2 91 19.5t91 60.5t89 116.5t86 189.5t84 281t83 390q4 25 6 46.5t2 41.5q0 53 -24.5 85t-92.5 32h-20l8 41h1014l-238 -1352h-184l223 1270h-512l-28 -164q-61 -350 -132 -569.5t-147 -343t-154.5 -168.5t-154.5 -45q-23 0 -50.5 5t-48.5 13z" />
<glyph unicode="&#x41c;" horiz-adv-x="1755" d="M78 0l237 1352h195l303 -1065l670 1065h184l-178 -1004q-18 -98 -19 -176q0 -106 35 -164.5t109 -58.5l-6 -41q-176 0 -249 63.5t-73 204.5q0 74 19 172l139 789l-711 -1137h-41l-330 1157l-202 -1157h-82z" />
<glyph unicode="&#x41d;" horiz-adv-x="1425" d="M121 0l194 1106q4 25 6.5 46.5t2.5 41.5q0 53 -25 85t-92 32h-41l8 41h184q82 0 118 -23.5t36 -101.5q0 -47 -12 -121l-66 -369h615l108 615h184l-194 -1106q-10 -57 -10 -92q0 -53 25.5 -83t90.5 -30h41l-6 -41h-184q-82 0 -119 24.5t-37 100.5q0 25 4 54.5t11 66.5 l71 409h-614l-115 -655h-184z" />
<glyph unicode="&#x41e;" horiz-adv-x="1458" d="M98 514q0 154 54.5 309.5t155 282.5t243.5 207t321 80q125 0 223.5 -42t165 -117t101.5 -177.5t35 -222.5q0 -154 -54.5 -309.5t-156 -281.5t-244.5 -205t-321 -79q-127 0 -224.5 42t-163 115.5t-100.5 175t-35 222.5zM299 473q0 -205 86 -318.5t250 -113.5q98 0 177 39 t141.5 103.5t108.5 149.5t75.5 178t44 186.5t14.5 176.5q0 205 -87 321t-251 116q-98 0 -178 -39t-141.5 -103.5t-107.5 -150.5t-74.5 -179.5t-43 -187.5t-14.5 -178z" />
<glyph unicode="&#x41f;" horiz-adv-x="1382" d="M121 0l194 1106q4 25 6.5 46.5t2.5 41.5q0 53 -25 85t-92 32h-41l8 41h1167l-237 -1352h-184l223 1270h-615l-223 -1270h-184z" />
<glyph unicode="&#x420;" horiz-adv-x="1136" d="M123 0q49 285 84 482.5t57.5 327.5t34.5 203.5t18.5 111.5t7.5 50.5t1 18.5q0 53 -25 85t-92 32h-41l8 41h533q59 0 137 -10.5t146.5 -43t116.5 -97t48 -171.5q0 -109 -43 -195.5t-114.5 -150t-168 -97.5t-202.5 -34h-226l-96 -553h-184zM420 645q29 -8 69.5 -14t79.5 -6 q55 0 121 23.5t124 72.5t97 124t39 177q0 72 -27.5 121t-67.5 79.5t-86 44t-83 13.5q-39 0 -82 -6t-76 -14z" />
<glyph unicode="&#x421;" horiz-adv-x="1363" d="M92 502q0 147 58.5 304t162 288t245.5 215t312 84q59 0 139.5 -11.5t153 -40t122.5 -81t50 -134.5q0 -51 -8 -101t-16 -103h-41q-4 201 -93.5 295t-258.5 94q-158 0 -274 -74t-193.5 -191.5t-115.5 -263t-38 -288.5q0 -92 21.5 -174t69.5 -143.5t123 -98.5t183 -37 q154 0 278 73.5t234 213.5l35 -31q-68 -96 -138.5 -160.5t-147 -104.5t-160.5 -56.5t-177 -16.5q-127 0 -224 41t-164.5 112.5t-102.5 172t-35 217.5z" />
<glyph unicode="&#x422;" horiz-adv-x="1198" d="M123 1034l27 154q6 31 18 60.5t34.5 52t59.5 37t90 14.5h953l-15 -82h-461l-223 -1270h-184l223 1270h-184q-123 0 -199 -56.5t-98 -179.5h-41z" />
<glyph unicode="&#x423;" horiz-adv-x="1245" d="M68 1311l8 41h246q49 0 82.5 -19.5t57 -51.5t38 -72t26.5 -83l170 -614l516 840h123l-708 -1157q-61 -100 -150.5 -157.5t-212.5 -57.5h-102l10 61q45 0 93 7t92 24.5t82 47.5t67 75l31 51l-232 839q-12 43 -25.5 82t-38 70t-65.5 50.5t-108 23.5z" />
<glyph unicode="&#x424;" horiz-adv-x="1603" d="M78 512q0 158 50 288t146.5 223t235.5 144.5t315 51.5q6 43 6 59q0 51 -27.5 72.5t-92.5 21.5h-41l6 41h184q86 0 122 -24.5t36 -88.5q0 -16 -2 -34t-6 -47q279 0 412.5 -119t133.5 -322q0 -158 -51 -288t-147 -223t-234.5 -144t-314.5 -51l-25 -133h-184l25 133 q-281 0 -414 118.5t-133 321.5zM281 500q0 -74 18 -137.5t60 -109.5t111 -72.5t169 -26.5l172 983q-133 -2 -232.5 -54.5t-166 -139.5t-99 -201.5t-32.5 -241.5zM823 154q133 2 232.5 54t166 139t99.5 202t33 242q0 74 -18.5 137t-60.5 109t-110.5 73t-169.5 27z" />
<glyph unicode="&#x425;" horiz-adv-x="1357" d="M-18 0l628 666l-213 419q-18 39 -40.5 77t-54.5 70t-79 53.5t-114 25.5l8 41h245q49 0 87 -20.5t67 -53.5t51.5 -73t40.5 -79l152 -307l504 533h102l-567 -604l241 -482q20 -39 45 -76.5t55.5 -69.5t69.5 -53.5t88 -25.5l-6 -41h-215q-49 0 -88 20.5t-67.5 53t-51 72.5 t-41.5 79l-180 369l-565 -594h-102z" />
<glyph unicode="&#x426;" horiz-adv-x="1429" d="M123 0q49 285 84 482.5t57.5 327.5t34.5 203.5t18.5 111.5t7.5 50.5t1 18.5q0 53 -25 85t-92 32h-41l8 41h184q82 0 118 -24.5t36 -100.5q0 -8 -1 -21.5t-7 -51.5t-17.5 -109.5t-33 -196.5t-54 -311.5t-79.5 -454.5h614l223 1270h184l-223 -1270h113q27 0 43 -15.5 t16 -41.5q0 -2 -1 -9.5t-8 -45.5t-20.5 -116.5t-37.5 -222.5h-92q2 23 2 42.5v39.5q0 162 -47.5 224.5t-145.5 62.5h-819z" />
<glyph unicode="&#x427;" horiz-adv-x="1306" d="M131 1311l8 41h185q82 0 117.5 -24.5t35.5 -100.5q0 -53 -9 -105.5t-19.5 -104.5t-19.5 -106.5t-9 -109.5q0 -61 17.5 -102.5t50 -64t82 -31.5t112.5 -9q61 0 138 9t134 32l127 717h185l-238 -1352h-184l96 553q-29 -12 -65.5 -20.5t-74.5 -12.5t-75 -6t-68 -2 q-92 0 -171.5 11.5t-139 45t-93.5 93t-34 157.5q0 45 7 91t16.5 92.5t17.5 94.5t8 97q0 53 -24.5 85t-91.5 32h-21z" />
<glyph unicode="&#x428;" horiz-adv-x="1916" d="M123 0q49 285 84 482.5t57.5 327.5t34.5 203.5t18.5 111.5t7.5 50.5t1 18.5q0 53 -25 85t-92 32h-41l8 41h184q82 0 118 -24.5t36 -100.5q0 -8 -1 -21.5t-7 -51.5t-17.5 -109.5t-33 -196.5t-54 -311.5t-79.5 -454.5h481l223 1270h184l-223 -1270h481l224 1270h184 l-238 -1352h-1515z" />
<glyph unicode="&#x429;" horiz-adv-x="1961" d="M123 0q49 285 84 482.5t57.5 327.5t34.5 203.5t18.5 111.5t7.5 50.5t1 18.5q0 53 -25 85t-92 32h-41l8 41h184q82 0 118 -24.5t36 -100.5q0 -8 -1 -21.5t-7 -51.5t-17.5 -109.5t-33 -196.5t-54 -311.5t-79.5 -454.5h481l223 1270h184l-223 -1270h481l224 1270h184 l-223 -1270h112q27 0 43.5 -15.5t16.5 -41.5q0 -4 -1 -7.5t-1 -7.5l-66 -379h-92q2 23 2 42.5v39.5q0 162 -47 224.5t-145 62.5h-1352z" />
<glyph unicode="&#x42a;" horiz-adv-x="1439" d="M127 963l57 317q4 31 28 51.5t56 20.5h492l-101 -574h226q82 0 167 -12t154.5 -46t113.5 -94.5t44 -158.5q0 -147 -62.5 -239.5t-154.5 -142.5t-199.5 -67.5t-199.5 -17.5h-224h-186l223 1270h-61q-66 0 -116 -15.5t-87 -50.5t-62.5 -94t-46.5 -147h-61zM539 100 q96 -29 190 -28q172 0 283.5 77.5t140.5 239.5q6 39 6 74q0 123 -85 183.5t-234 60.5q-96 0 -199 -29z" />
<glyph unicode="&#x42b;" horiz-adv-x="1712" d="M123 0q49 285 84 482.5t57.5 327.5t34.5 203.5t18.5 111.5t7.5 50.5t1 18.5q0 53 -25 85t-92 32h-41l8 41h184q82 0 118 -24.5t36 -100.5q0 -12 -2 -30.5t-8 -65t-20.5 -129t-39.5 -224.5h226q70 0 148.5 -12t145 -46t110.5 -94.5t44 -158.5q0 -147 -62.5 -239.5 t-152.5 -142.5t-191.5 -67.5t-179.5 -17.5h-225h-184zM324 100q96 -28 190 -28q82 0 154.5 27.5t127 78.5t86 124t31.5 161q0 123 -79.5 183.5t-208.5 60.5q-96 0 -199 -29zM1237 123q0 8 1 22.5t8 54.5t19.5 116.5t36 211t58.5 335t86 489.5h184q-51 -285 -85 -482.5 t-57.5 -328.5t-35.5 -206t-18.5 -113t-7.5 -50t-1 -18q0 -53 25 -83t92 -30h41l-6 -41h-184q-82 0 -119 23.5t-37 99.5z" />
<glyph unicode="&#x42c;" horiz-adv-x="1224" d="M123 0q49 285 84 482.5t57.5 327.5t34.5 203.5t18.5 111.5t7.5 50.5t1 18.5q0 53 -25 85t-92 32h-41l8 41h184q82 0 118 -24.5t36 -100.5q0 -12 -2 -30.5t-8 -65t-20.5 -129t-39.5 -224.5h226q82 0 167 -12t154.5 -46t113.5 -94.5t44 -158.5q0 -147 -62.5 -239.5 t-154.5 -142.5t-199.5 -67.5t-200.5 -17.5h-225h-184zM324 100q96 -28 190 -28q88 0 166 24.5t136 73.5t93 122t35 171q0 123 -85 183.5t-234 60.5q-96 0 -199 -29z" />
<glyph unicode="&#x42d;" horiz-adv-x="1363" d="M25 297l47 31q61 -141 158.5 -214t250.5 -73q127 0 227.5 51t174 134t123 190.5t71.5 218.5h-678l15 82h678q4 39 7 74.5t3 70.5q0 123 -31 209t-84 139.5t-126 77t-156 23.5q-172 0 -293 -93.5t-195 -295.5h-41q16 92 36.5 176t68.5 131q66 68 197.5 116t301.5 48 q115 0 210 -45t164 -124t106.5 -186.5t37.5 -234.5q0 -170 -59 -322.5t-163.5 -268.5t-245 -184.5t-302.5 -68.5q-92 0 -169.5 16.5t-141 56.5t-112 104.5t-80.5 160.5z" />
<glyph unicode="&#x42e;" horiz-adv-x="1798" d="M123 0q49 285 84 482.5t57.5 327.5t34.5 203.5t18.5 111.5t7.5 50.5t1 18.5q0 53 -25 85t-92 32h-41l8 41h184q82 0 118 -24.5t36 -100.5q0 -12 -2 -31.5t-9 -69t-23.5 -141.5t-43.5 -248h146q37 150 104.5 270.5t157.5 206.5t198.5 132.5t225.5 46.5q104 0 190 -38 t146.5 -108.5t94.5 -170t34 -224.5q0 -199 -61.5 -362.5t-163 -281.5t-230.5 -183.5t-262 -65.5q-106 0 -191.5 38t-146 108.5t-93 171t-32.5 223.5q0 76 12 155h-143l-115 -655h-184zM752 455q0 -203 77.5 -308.5t200.5 -105.5q88 0 161 43t128 114.5t95 162t66.5 185.5 t39 185t12.5 162q0 205 -77 311.5t-202 106.5q-88 0 -159.5 -43t-128 -115t-96.5 -163t-66.5 -185t-38.5 -186.5t-12 -163.5z" />
<glyph unicode="&#x42f;" horiz-adv-x="1251" d="M-66 2l7 39q78 8 139 51t115 113l280 368q-41 10 -84 31t-77.5 53.5t-56 81.5t-21.5 119q0 111 31.5 191.5t83.5 135t116.5 87.5t130.5 51t126 23.5t103 5.5h512l-8 -41h-20q-47 0 -78 -14.5t-50.5 -42t-30.5 -65.5t-19 -83l-195 -1106h-184l96 553h-199l-282 -389 q-80 -109 -153 -146.5t-163 -37.5q-31 0 -63.5 7t-55.5 15zM442 885q0 -74 28 -123t68 -80t86 -44t85 -13t82 6t75 14l109 615q-29 8 -70 14t-80 6q-43 0 -108.5 -20.5t-126 -66.5t-104.5 -122t-44 -186z" />
<glyph unicode="&#x430;" horiz-adv-x="1075" d="M66 334q0 106 30.5 217t92 204t153.5 155.5t217 72.5q106 0 159.5 -37t76.5 -76h10l88 93h102l-137 -785l-31 -178h-102l-57 92h-11q-37 -39 -104.5 -75.5t-190.5 -36.5q-76 0 -132 27.5t-93 74.5t-54 112.5t-17 139.5zM260 322q0 -113 41 -187t137 -74q92 0 144.5 38 t91.5 85l106 594q-12 23 -26.5 45.5t-34 40t-47 27.5t-66.5 10q-94 0 -159.5 -61.5t-107.5 -150.5t-60.5 -189.5t-18.5 -177.5z" />
<glyph unicode="&#x431;" horiz-adv-x="1093" d="M100 332q0 180 34 335.5t94.5 273.5t141.5 192.5t175 95.5l319 71q72 16 114 35t56 58h41l-22 -133q-12 -76 -78 -93l-373 -82q-70 -16 -124 -43.5t-99 -80t-81 -136.5t-67 -211h11q66 154 166 220.5t254 66.5q66 0 124 -20.5t101 -61.5t68.5 -105.5t25.5 -150.5 q0 -152 -45 -261t-118 -181t-167 -106.5t-192 -34.5q-80 0 -145.5 19t-112.5 62t-74 110t-27 161zM289 297q0 -68 14 -114t40 -72.5t59.5 -38t70.5 -11.5q88 0 148.5 53.5t97.5 132.5t53 170t16 165q0 131 -53 184t-129 53q-88 0 -148.5 -54t-98 -133t-54 -170t-16.5 -165z " />
<glyph unicode="&#x432;" horiz-adv-x="1036" d="M74 922l6 41h502q70 0 134 -10.5t111 -34t76 -62.5t29 -96q0 -209 -246 -258q98 -20 152.5 -69.5t54.5 -125.5q0 -90 -40 -149.5t-106.5 -94t-152.5 -49t-180 -14.5h-158h-180q33 186 55.5 317.5t37.5 219.5t23.5 139t12.5 78.5t5 38t1 16.5q0 53 -25.5 83t-91.5 30h-20z M274 92q23 -8 62 -14t70 -6q131 0 211.5 56t80.5 179q0 154 -245 154h-113zM354 543h113q117 0 192.5 52t75.5 155q0 72 -51 106.5t-135 34.5q-31 0 -72 -6t-65 -15z" />
<glyph unicode="&#x433;" horiz-adv-x="872" d="M-16 217q0 61 28.5 110.5t74.5 88.5t103.5 67.5t112.5 48.5l133 52q92 35 144.5 85t52.5 111q0 53 -45 87t-137 34q-123 0 -202 -57.5t-112 -157.5h-41q12 80 36 136.5t69 92t118.5 52t186.5 16.5q129 0 212 -55.5t83 -163.5q0 -121 -82 -195.5t-217 -128.5l-131 -51 q-106 -41 -162.5 -88t-56.5 -119q0 -53 48 -87t154 -34q131 0 211 57.5t113 157.5h41q-12 -80 -36 -137t-71 -92t-122.5 -51t-190.5 -16q-139 0 -227 58t-88 179z" />
<glyph unicode="&#x434;" horiz-adv-x="1105" d="M68 356q0 123 41 232.5t112.5 192.5t172 132.5t220.5 49.5q86 0 159.5 -43t98.5 -121q2 25 3.5 44t1.5 38q0 94 -25 168.5t-66 126t-97 78t-120 26.5q-43 0 -88 -8t-84 -20.5t-67.5 -25t-38.5 -20.5l-27 74q47 29 136 60.5t206 31.5q98 0 174 -40t128.5 -113.5t80 -178 t27.5 -233.5q0 -182 -40 -333.5t-115 -261.5t-181.5 -171t-237.5 -61q-92 0 -161.5 27.5t-117.5 77.5t-71.5 119.5t-23.5 151.5zM260 344q0 -129 51.5 -206t145.5 -77q86 0 149.5 55.5t105.5 136.5t62.5 173t20.5 168q0 129 -50.5 208t-144.5 79q-66 0 -127 -42t-108.5 -116 t-76 -171t-28.5 -208z" />
<glyph unicode="&#x435;" horiz-adv-x="997" d="M66 354q0 106 34.5 218t102 203t167 149.5t226.5 58.5q182 0 262 -67.5t80 -165.5q0 -84 -36 -147.5t-96.5 -106.5t-138 -64.5t-161.5 -21.5h-246q-4 -23 -6 -43.5t-2 -40.5q0 -111 56.5 -188t166.5 -77q100 0 174 43t142 121l34 -30q-90 -117 -189 -166t-216 -49 q-90 0 -156.5 28.5t-110.5 78.5t-65.5 118.5t-21.5 148.5zM274 492h236q98 4 165.5 73.5t67.5 179.5q0 72 -42 114t-119 42q-109 0 -191 -108.5t-117 -300.5z" />
<glyph unicode="&#x436;" horiz-adv-x="1404" d="M-82 0l6 39q72 10 134.5 50t129.5 116l269 297l-140 317q-23 47 -69.5 69.5t-108.5 22.5l8 52h52q98 0 156.5 -35t86.5 -99l152 -358l86 492h184l-86 -492l279 358q49 63 118.5 98.5t170.5 35.5h51l-8 -52q-61 0 -118 -22.5t-93 -69.5l-250 -317l162 -297q41 -76 89 -116 t117 -50l-6 -39q-18 -8 -47 -14t-59 -6q-80 0 -140.5 38.5t-107.5 124.5l-164 297l-76 -440h-184l76 440l-266 -297q-78 -86 -153 -124.5t-153 -38.5q-31 0 -56.5 6t-41.5 14z" />
<glyph unicode="&#x437;" horiz-adv-x="933" d="M0 143l45 31q16 -18 36.5 -38.5t51.5 -37t72 -27t98 -10.5q129 0 212 56.5t83 177.5q0 156 -258 156h-92l14 81h92q135 0 214 56.5t79 167.5q0 72 -50 108.5t-126 36.5q-55 0 -104.5 -15.5t-90 -43t-68.5 -67.5t-40 -89h-41q14 92 40 149.5t71 90t112.5 45t165.5 12.5 q63 0 121.5 -11t103.5 -36t73 -66t28 -102q0 -117 -70 -183.5t-178 -92.5q94 -20 145.5 -70.5t51.5 -126.5q0 -92 -41 -152.5t-106.5 -96.5t-148.5 -51t-165 -15q-70 0 -122 12t-91 34.5t-68 52.5t-49 64z" />
<glyph unicode="&#x438;" horiz-adv-x="1099" d="M51 922l6 41h164q82 0 119 -25t37 -100q0 -25 -4 -54.5t-11 -66.5q-27 -150 -41 -235t-21 -129t-8 -59t-1 -24q0 -55 15.5 -93t41 -61.5t58 -33.5t69.5 -10q61 0 118.5 32.5t104.5 75.5l138 783h184l-168 -963h-102l-58 82h-10q-47 -39 -120 -70.5t-165 -31.5 q-57 0 -110.5 12t-94 41.5t-65.5 81t-25 131.5q0 12 2 29.5t9.5 64.5t23 135t41.5 242q10 57 10 92q0 53 -25.5 83t-90.5 30h-21z" />
<glyph unicode="&#x439;" horiz-adv-x="1099" d="M51 922l6 41h164q82 0 119 -25t37 -100q0 -25 -4 -54.5t-11 -66.5q-27 -150 -41 -235t-21 -129t-8 -59t-1 -24q0 -55 15.5 -93t41 -61.5t58 -33.5t69.5 -10q61 0 118.5 32.5t104.5 75.5l138 783h184l-168 -963h-102l-58 82h-10q-47 -39 -120 -70.5t-165 -31.5 q-57 0 -110.5 12t-94 41.5t-65.5 81t-25 131.5q0 12 2 29.5t9.5 64.5t23 135t41.5 242q10 57 10 92q0 53 -25.5 83t-90.5 30h-21zM399 1231l47 31q33 -39 79 -60.5t132 -21.5t140.5 21.5t99.5 60.5l35 -31q-49 -70 -122 -117t-173 -47t-154.5 47t-83.5 117z" />
<glyph unicode="&#x43a;" horiz-adv-x="1021" d="M66 922l6 41h184q82 0 119 -25t37 -100q0 -12 -2 -28.5t-8.5 -55.5t-17.5 -105.5t-30 -177.5l320 358q55 61 121.5 97.5t167.5 36.5h51l-8 -52q-47 0 -100.5 -19.5t-100.5 -72.5l-281 -317l183 -297q41 -70 90 -113t116 -53l-6 -39q-18 -8 -47 -14t-59 -6 q-78 0 -146.5 38.5t-122.5 124.5l-184 297l-76 -440h-184q33 186 55.5 317.5t38 219.5t23.5 139t12 78.5t5 38t1 16.5q0 53 -25.5 83t-91.5 30h-40z" />
<glyph unicode="&#x43b;" horiz-adv-x="1122" d="M-78 -2l8 51q49 0 101.5 25.5t102.5 97.5t96 203t83 342q4 25 7.5 47t3.5 43q0 53 -26 84t-93 31l6 41h831l-168 -963h-184l154 881h-361l-28 -164q-41 -231 -92.5 -374.5t-108.5 -224.5t-117.5 -109.5t-118.5 -28.5q-16 0 -47.5 6t-48.5 12z" />
<glyph unicode="&#x43c;" horiz-adv-x="1331" d="M49 0l168 963h195l188 -676l426 676h184q-31 -172 -51 -293t-33.5 -202l-21.5 -129t-11 -73.5t-4.5 -37t-1.5 -19.5q0 -86 28 -147.5t81 -61.5l-8 -41q-158 0 -222.5 63.5t-64.5 178.5q0 12 2 31.5t10.5 73.5t26.5 157.5t49 284.5l-469 -748h-41l-213 768l-135 -768h-82z " />
<glyph unicode="&#x43d;" horiz-adv-x="1136" d="M68 922l6 41h174q82 0 118.5 -25t36.5 -100q0 -12 -2 -28.5t-7 -49.5t-14 -89.5t-26 -148.5h410l78 441h184q-33 -188 -55.5 -319.5t-37.5 -218.5t-23.5 -138t-12.5 -79t-5 -38t-1 -16q0 -53 24.5 -83t92.5 -30h30l-6 -41h-174q-82 0 -119 23.5t-37 99.5q0 12 2.5 28.5 t6.5 50.5t13 90t26 148h-410l-76 -440h-184q33 186 55.5 317.5t37.5 219.5t23.5 139t12.5 78.5t5 38t1 16.5q0 53 -25.5 83t-91.5 30h-30z" />
<glyph unicode="&#x43e;" horiz-adv-x="1083" d="M66 367q0 109 37.5 219t109.5 198t173 143.5t228 55.5q92 0 162 -29.5t117 -81t70.5 -123t23.5 -153.5q0 -109 -38 -219.5t-109.5 -198.5t-173 -143t-228.5 -55q-92 0 -161.5 29.5t-116.5 80.5t-70.5 122t-23.5 155zM258 354q0 -129 50.5 -211t144.5 -82q86 0 150.5 58.5 t106.5 142.5t63.5 178.5t21.5 167.5q0 129 -50.5 211t-144.5 82q-86 0 -150.5 -58.5t-106.5 -142.5t-63.5 -178t-21.5 -168z" />
<glyph unicode="&#x43f;" horiz-adv-x="1124" d="M63 922l7 41h184q78 0 115 -21.5t45 -60.5h10q47 39 119.5 70.5t165.5 31.5q57 0 109 -11t93 -41t65.5 -81t24.5 -129q0 -8 -1 -19.5t-4 -37t-10 -70.5t-20.5 -123t-33 -192.5t-47.5 -278.5h-185q29 160 48.5 272.5t32 187.5t19.5 119t10 67.5t4 32.5t1 15q0 53 -15.5 91 t-41 61.5t-58 34t-69.5 10.5q-61 0 -118.5 -33t-104.5 -76l-138 -782h-184q33 188 55.5 319.5t38 218.5t23.5 138t12 78.5t5 38t1 16.5q0 53 -25.5 83t-91.5 30h-41z" />
<glyph unicode="&#x440;" horiz-adv-x="1112" d="M16 -389q49 285 84 482.5t58.5 328.5t36 205.5t18.5 112.5t7 50.5t1 18.5q0 53 -25.5 83t-91.5 30h-41l7 41h184q78 0 115 -22.5t43 -70.5h10q39 39 109.5 76t187.5 37q76 0 131 -26.5t92 -74.5t54.5 -114t17.5 -143q0 -102 -30 -215t-90 -209.5t-152.5 -158.5 t-219.5 -62q-86 0 -145.5 19t-100.5 42l-75 -430h-185zM291 123q41 -23 89 -42.5t95 -19.5q96 0 163 60.5t106.5 148.5t57 189.5t17.5 181.5q0 117 -41 188.5t-135 71.5q-86 0 -141.5 -38t-93.5 -85z" />
<glyph unicode="&#x441;" horiz-adv-x="991" d="M66 356q0 113 36.5 224.5t107.5 200.5t173 145.5t233 56.5q39 0 93.5 -3t103.5 -18.5t83 -47t34 -91.5q0 -29 -6 -68.5t-17 -95.5l-2 -14h-41q2 12 2 23.5v21.5q0 109 -62.5 160t-160.5 51q-100 0 -172 -53t-119 -134t-69.5 -178.5t-22.5 -185.5q0 -129 56.5 -209 t179.5 -80q109 0 183.5 43t141.5 121l35 -30q-90 -117 -191.5 -166t-224.5 -49q-98 0 -168.5 28.5t-116.5 78.5t-67.5 118.5t-21.5 150.5z" />
<glyph unicode="&#x442;" horiz-adv-x="1615" d="M63 922l7 41h184q78 0 115 -21.5t45 -60.5h10q47 39 119.5 70.5t165.5 31.5q76 0 136 -29.5t85 -113.5q66 70 156 106.5t176 36.5q49 0 91 -10t73.5 -38t50 -74t18.5 -118q0 -10 -1 -22t-4 -39t-11.5 -75t-21.5 -128t-32.5 -196.5t-48.5 -282.5h-184q29 164 48.5 280.5 t32.5 195.5t21.5 126t11.5 73.5t4 38t1 19.5q0 86 -34 122t-93 36q-31 0 -65 -12.5t-65.5 -32t-60 -43t-47.5 -45.5v-15q0 -12 -3 -38.5t-15.5 -102.5t-37 -217t-67.5 -385h-184q29 164 48.5 280.5t32.5 195.5t21.5 126t11.5 73.5t4 38t1 19.5q0 86 -34 122t-93 36 q-61 0 -118.5 -33t-104.5 -76l-138 -782h-184q33 188 55.5 319.5t38 218.5t23.5 138t12 78.5t5 38t1 16.5q0 53 -25.5 83t-91.5 30h-41z" />
<glyph unicode="&#x443;" horiz-adv-x="1052" d="M35 -411l12 62q45 0 87 9.5t80.5 33t75.5 65.5t71 108l62 113l-187 799q-18 78 -69.5 117t-127.5 47l6 41h174q93 0 146.5 -43t71.5 -121l133 -568l384 712h103l-593 -1097q-45 -84 -88 -138.5t-87.5 -85.5t-91.5 -42.5t-101 -11.5h-61z" />
<glyph unicode="&#x444;" horiz-adv-x="1357" d="M70 371q0 123 41 231.5t116.5 191.5t185 134t246.5 55q10 57 16.5 94t9.5 59.5t4 35t1 22.5q0 53 -24.5 85t-92.5 32h-30l8 41h174q82 0 118 -24.5t36 -100.5q0 -12 -1 -27.5t-5.5 -42.5t-10.5 -68.5t-18 -105.5q104 -4 182 -33.5t129 -82t76.5 -123t25.5 -152.5 q0 -123 -40.5 -232.5t-116.5 -192.5t-185.5 -133t-246.5 -54l-66 -369h-184l65 369q-104 2 -182 32.5t-129 82.5t-76.5 122t-25.5 154zM262 346q0 -129 56.5 -204.5t179.5 -90.5l151 860q-88 -10 -159.5 -54t-122 -117.5t-78 -174t-27.5 -219.5zM678 51q88 8 159.5 53.5 t122 119t78 173t27.5 219.5q0 129 -56.5 205t-179.5 90z" />
<glyph unicode="&#x445;" horiz-adv-x="1003" d="M-20 0l407 461l-125 297q-61 147 -182 164l6 41h174q70 0 121 -44.5t82 -119.5l90 -215l332 379h102l-407 -461l125 -297q61 -150 192 -164l-6 -41h-184q-70 0 -121 44t-82 120l-90 215l-332 -379h-102z" />
<glyph unicode="&#x446;" horiz-adv-x="1155" d="M57 922l6 41h164q82 0 119 -24t37 -99q0 -12 -2 -32t-10.5 -70t-24.5 -142t-43 -248q-6 -43 -6 -76q0 -111 54.5 -155.5t129.5 -44.5q61 0 118.5 32.5t105.5 75.5l137 783h184l-154 -881h80q27 0 43.5 -15.5t16.5 -41.5q0 -2 -1 -9.5t-7.5 -39t-18.5 -100.5t-33 -193h-82 q6 82 7 137q0 86 -25 124t-92 56q-35 10 -48.5 33.5t-13.5 48.5h-10q-47 -39 -119.5 -70.5t-165.5 -31.5q-57 0 -110 12t-94 41.5t-65.5 81t-24.5 131.5q0 23 3 48t7 54q27 150 42 238t22 134t9.5 62.5t2.5 26.5q0 53 -26 83t-91 30h-21z" />
<glyph unicode="&#x447;" horiz-adv-x="1085" d="M78 922l6 41h174q82 0 119 -25t37 -100q0 -61 -16.5 -123t-16.5 -129q0 -80 46.5 -113t107.5 -33t114 12.5t88 24.5l84 486h185l-168 -963h-185l70 395q-35 -12 -89 -24.5t-124 -12.5q-59 0 -116.5 9.5t-103.5 35t-74 69.5t-28 116q0 53 13.5 107.5t13.5 113.5 q0 53 -25.5 83t-91.5 30h-20z" />
<glyph unicode="&#x448;" horiz-adv-x="1579" d="M88 223q0 8 1 20.5t4 40t11.5 75t21.5 126t33.5 195.5t49.5 283h184q-29 -164 -49 -281t-33.5 -194.5t-21.5 -125t-11.5 -74t-4.5 -37.5t-1 -20q0 -88 34 -123.5t95 -35.5q31 0 65 12t65.5 31.5t60.5 43t47 46.5q0 16 3 43.5t15.5 102.5t37 218.5t67.5 393.5h184 q-29 -164 -49 -281t-33.5 -194.5t-21.5 -125t-11.5 -74t-4.5 -37.5t-1 -20q0 -88 34 -123.5t95 -35.5t118.5 32.5t105.5 75.5l137 783h184l-168 -963h-102l-58 82h-10q-47 -39 -119.5 -70.5t-164.5 -31.5q-78 0 -138.5 28.5t-83.5 114.5q-66 -70 -155.5 -106.5t-175.5 -36.5 q-49 0 -91.5 11t-75 38.5t-51 75t-18.5 118.5z" />
<glyph unicode="&#x449;" horiz-adv-x="1628" d="M88 223q0 8 1 20.5t4 40t11.5 75t21.5 126t33.5 195.5t49.5 283h184q-29 -164 -49 -281t-33.5 -194.5t-21.5 -125t-11.5 -74t-4.5 -37.5t-1 -20q0 -88 34 -123.5t95 -35.5q31 0 65 12t65.5 31.5t60.5 43t47 46.5q0 16 3 43.5t15.5 102.5t37 218.5t67.5 393.5h184 q-29 -164 -49 -281t-33.5 -194.5t-21.5 -125t-11.5 -74t-4.5 -37.5t-1 -20q0 -88 34 -123.5t95 -35.5t118.5 32.5t105.5 75.5l137 783h184l-153 -881h79q27 0 43.5 -15.5t16.5 -41.5q0 -2 -1 -9.5t-7.5 -39t-18.5 -100.5t-33 -193h-82q6 82 7 137q0 86 -25 125t-92 55 q-35 10 -48.5 33.5t-13.5 48.5h-10q-47 -39 -119.5 -70.5t-164.5 -31.5q-78 0 -138.5 28.5t-83.5 114.5q-66 -70 -155.5 -106.5t-175.5 -36.5q-49 0 -91.5 11t-75 38.5t-51 75t-18.5 118.5z" />
<glyph unicode="&#x44a;" horiz-adv-x="1196" d="M78 614l49 277q4 31 28.5 51.5t55.5 20.5h420l-68 -390h154q80 0 148.5 -11t118.5 -36.5t79 -69.5t29 -110q0 -102 -40 -168.5t-105.5 -106.5t-151.5 -55.5t-179 -15.5h-157h-180l153 881h-20q-111 0 -180.5 -62.5t-102.5 -204.5h-51zM477 92q23 -8 62 -14t69 -6 q61 0 114.5 14t92.5 47t60.5 85t21.5 126q0 86 -55.5 122t-157.5 36q-31 0 -72 -6.5t-65 -14.5z" />
<glyph unicode="&#x44b;" horiz-adv-x="1413" d="M68 922l6 41h174q82 0 118.5 -25t36.5 -100q0 -12 -1 -27.5t-6 -44.5t-12 -75t-19 -118h153q74 0 138.5 -11t112.5 -36.5t75.5 -69.5t27.5 -110q0 -102 -39.5 -168.5t-104 -105.5t-145.5 -55.5t-165 -16.5h-338q33 186 55.5 317.5t37.5 219.5t23.5 139t12.5 78.5t5 38 t1 16.5q0 53 -25.5 83t-91.5 30h-30zM279 92q23 -8 61.5 -14t69.5 -6q53 0 101 14t85 47t59.5 85t22.5 126q0 86 -53.5 122t-139.5 36q-31 0 -71.5 -6.5t-65.5 -14.5zM979 123q0 8 1 20.5t5 42t13.5 83t24.5 143.5t38.5 224t56.5 327h185q-33 -188 -55.5 -319.5t-38 -218.5 t-23.5 -138t-12.5 -79t-5.5 -38t-1 -16q0 -53 25 -83t92 -30h31l-6 -41h-174q-82 0 -119 23.5t-37 99.5z" />
<glyph unicode="&#x44c;" horiz-adv-x="997" d="M68 922l6 41h174q82 0 118.5 -25t36.5 -100q0 -12 -1 -27.5t-6 -44.5t-12 -75t-19 -118h153q80 0 148.5 -11t119 -36.5t79 -69.5t28.5 -110q0 -102 -40 -168.5t-105.5 -106.5t-151.5 -55.5t-178 -15.5h-338q33 186 55.5 317.5t37.5 219.5t23.5 139t12.5 78.5t5 38t1 16.5 q0 53 -25.5 83t-91.5 30h-30zM279 92q23 -8 61.5 -14t69.5 -6q61 0 114.5 14t92 47t60 85t21.5 126q0 86 -55 122t-158 36q-31 0 -71.5 -6.5t-65.5 -14.5z" />
<glyph unicode="&#x44d;" horiz-adv-x="1003" d="M14 195l47 30q41 -78 99.5 -121t169.5 -43q70 0 129 28t104 77t78 116.5t51 147.5h-430l14 82h431q6 45 6 90q0 129 -55.5 214t-180.5 85q-111 0 -195.5 -62.5t-115.5 -193.5h-41q10 57 18.5 99t18.5 73t24.5 53.5t36.5 40.5q45 39 121.5 55.5t187.5 16.5q96 0 167 -28.5 t117 -80t67.5 -120t21.5 -150.5q0 -123 -38 -235.5t-108.5 -199.5t-172 -138t-230.5 -51q-123 0 -208 49t-134 166z" />
<glyph unicode="&#x44e;" horiz-adv-x="1423" d="M68 922l6 41h174q82 0 118.5 -25t36.5 -100q0 -12 -2 -28.5t-7 -49.5t-14 -89.5t-26 -148.5h123q23 104 70 189.5t112.5 146t146.5 93t173 32.5q164 0 254 -102.5t90 -272.5q0 -135 -42 -250.5t-112.5 -199.5t-165 -131t-200.5 -47q-164 0 -255 99t-91 269q0 43 6 92 h-123l-76 -440h-184q33 186 55.5 317.5t37.5 219.5t23.5 139t12.5 78.5t5 38t1 16.5q0 53 -25.5 83t-91.5 30h-30zM649 315q0 -127 45 -190.5t123 -63.5q53 0 108.5 37t101.5 111t76 183.5t30 252.5q0 129 -45 192.5t-123 63.5q-53 0 -108.5 -38t-101.5 -111.5t-76 -183 t-30 -253.5z" />
<glyph unicode="&#x44f;" horiz-adv-x="1048" d="M-61 0l6 41q72 10 127 59.5t96 104.5l162 215q-80 14 -137.5 67.5t-57.5 145.5q0 96 40 159.5t104.5 101.5t148.5 53.5t170 15.5h481l-6 -41q-92 0 -129 -56.5t-51 -148.5l-125 -717h-184l71 410h-159l-166 -246q-63 -94 -130 -139t-153 -45q-31 0 -58.5 6t-49.5 14z M330 635q0 -82 54 -118t151 -36q31 0 71.5 6.5t65.5 14.5l63 368q-23 8 -60.5 14.5t-68.5 6.5q-59 0 -109.5 -14.5t-87 -45t-58 -80t-21.5 -116.5z" />
<glyph unicode="&#x451;" horiz-adv-x="997" d="M66 354q0 106 34.5 218t102 203t167 149.5t226.5 58.5q182 0 262 -67.5t80 -165.5q0 -84 -36 -147.5t-96.5 -106.5t-138 -64.5t-161.5 -21.5h-246q-4 -23 -6 -43.5t-2 -40.5q0 -111 56.5 -188t166.5 -77q100 0 174 43t142 121l34 -30q-90 -117 -189 -166t-216 -49 q-90 0 -156.5 28.5t-110.5 78.5t-65.5 118.5t-21.5 148.5zM274 492h236q98 4 165.5 73.5t67.5 179.5q0 72 -42 114t-119 42q-109 0 -191 -108.5t-117 -300.5zM389 1169q0 41 31.5 76t78.5 35q35 0 56.5 -21.5t21.5 -54.5q0 -41 -32.5 -74.5t-77.5 -33.5q-35 0 -56.5 20.5 t-21.5 52.5zM737 1169q0 41 31.5 76t79.5 35q35 0 56 -21.5t21 -54.5q0 -41 -32.5 -74.5t-77.5 -33.5q-35 0 -56.5 20.5t-21.5 52.5z" />
<glyph unicode="&#x452;" horiz-adv-x="1087" d="M49 0l180 1024h-143l14 82h144l20 123l125 123h82l-43 -246h246l-15 -82h-245l-43 -246q45 39 117.5 71t164.5 32q57 0 110.5 -12.5t94.5 -42t65.5 -81t24.5 -131.5q0 -12 -2 -29.5t-9 -63.5t-21.5 -133t-41.5 -234q-20 -115 -53 -199t-85 -137.5t-130 -79t-188 -25.5 l6 41q98 0 164.5 106.5t101.5 293.5q25 145 39 228t21.5 126t8.5 57.5t1 22.5q0 55 -15.5 93t-41 62.5t-58.5 34.5t-70 10q-61 0 -118.5 -32.5t-104.5 -75.5l-119 -680h-184z" />
<glyph unicode="&#x453;" horiz-adv-x="872" d="M-16 217q0 61 28.5 110.5t74.5 88.5t103.5 67.5t112.5 48.5l133 52q92 35 144.5 85t52.5 111q0 53 -45 87t-137 34q-123 0 -202 -57.5t-112 -157.5h-41q12 80 36 136.5t69 92t118.5 52t186.5 16.5q129 0 212 -55.5t83 -163.5q0 -121 -82 -195.5t-217 -128.5l-131 -51 q-106 -41 -162.5 -88t-56.5 -119q0 -53 48 -87t154 -34q131 0 211 57.5t113 157.5h41q-12 -80 -36 -137t-71 -92t-122.5 -51t-190.5 -16q-139 0 -227 58t-88 179zM451 1047l186 235h174l-258 -235h-102z" />
<glyph unicode="&#x454;" horiz-adv-x="1007" d="M68 356q0 123 37.5 237t108.5 201t173 138t231 51q160 0 237 -35t77 -125q0 -31 -7 -73.5t-18 -104.5h-41q2 12 2 23.5v21.5q0 109 -62.5 160t-160.5 51q-74 0 -133 -30.5t-104.5 -83t-77 -124t-49.5 -151.5h430l-15 -82h-430q-6 -47 -6 -86q0 -127 57.5 -205t180.5 -78 q109 0 183.5 43t141.5 121l35 -30q-90 -117 -191.5 -166t-224.5 -49q-96 0 -166.5 28.5t-116.5 78.5t-68.5 118.5t-22.5 150.5z" />
<glyph unicode="&#x455;" horiz-adv-x="919" d="M35 154q0 27 5 56.5t11 65.5h41v-4q0 -98 60.5 -154.5t189.5 -56.5q37 0 80 8.5t82 28t64.5 52t25.5 81.5q0 51 -38 87t-116 71l-114 51q-94 41 -147.5 97.5t-53.5 136.5q0 74 34 131t89 97t124.5 60.5t141.5 20.5q41 0 96.5 -4t105.5 -21.5t85 -51.5t35 -93 q0 -31 -5.5 -62.5t-9.5 -64.5h-41v4q0 98 -58 154.5t-181 56.5q-35 0 -75 -8t-75 -27.5t-58.5 -51.5t-23.5 -77q0 -47 35 -86t100 -67l113 -52q106 -47 163.5 -100t57.5 -137q0 -78 -35.5 -136.5t-94 -98.5t-131.5 -60t-148 -20q-43 0 -100.5 4t-110 20t-88 52t-35.5 98z " />
<glyph unicode="&#x456;" d="M63 922l7 41h184q82 0 119 -25t37 -100q0 -8 -1 -20.5t-5.5 -41t-13.5 -82t-24.5 -143.5t-39 -225.5t-56.5 -325.5h-184q33 188 55.5 319.5t38 218.5t23.5 138t12 78.5t5 38t1 16.5q0 53 -25.5 83t-91.5 30h-41zM260 1192q0 47 29.5 82t83.5 35q41 0 67.5 -31t26.5 -76 q0 -47 -29.5 -82t-83.5 -35q-41 0 -67.5 31t-26.5 76z" />
<glyph unicode="&#x457;" d="M63 922l7 41h184q82 0 119 -25t37 -100q0 -8 -1 -20.5t-5.5 -41t-13.5 -82t-24.5 -143.5t-39 -225.5t-56.5 -325.5h-184q33 188 55.5 319.5t38 218.5t23.5 138t12 78.5t5 38t1 16.5q0 53 -25.5 83t-91.5 30h-41zM115 1212q0 47 29.5 82t82.5 35q41 0 68 -30.5t27 -75.5 q0 -47 -30 -82t-83 -35q-41 0 -67.5 30.5t-26.5 75.5zM430 1212q0 47 29.5 82t83.5 35q41 0 67.5 -30.5t26.5 -75.5q0 -47 -29.5 -82t-83.5 -35q-41 0 -67.5 30.5t-26.5 75.5z" />
<glyph unicode="&#x458;" d="M-176 -389l8 41q98 0 163.5 106.5t98.5 292.5q31 174 52.5 297t36 205t21.5 130t11 73.5t5 36t1 16.5q0 53 -25.5 83t-91.5 30h-41l7 41h184q82 0 119 -25t37 -100q0 -8 -1 -20.5t-5.5 -40t-12.5 -78t-22.5 -134.5t-37 -210t-52.5 -304q-20 -115 -53 -198.5t-85.5 -137 t-129.5 -79t-187 -25.5zM260 1192q0 47 29.5 82t83.5 35q41 0 67.5 -31t26.5 -76q0 -47 -29.5 -82t-83.5 -35q-41 0 -67.5 31t-26.5 76z" />
<glyph unicode="&#x459;" horiz-adv-x="1585" d="M-78 -2l8 51q49 0 101.5 25.5t102.5 97.5t96 203t83 342q4 25 7.5 47t3.5 43q0 53 -26 84t-93 31l6 41h809l-68 -390h154q80 0 148.5 -11t118.5 -36.5t79 -69.5t29 -110q0 -102 -40 -168.5t-105.5 -106.5t-151.5 -55.5t-178 -15.5h-158h-180l153 881h-338l-28 -164 q-41 -231 -92.5 -374.5t-108.5 -224.5t-117.5 -109.5t-118.5 -28.5q-16 0 -47.5 6t-48.5 12zM866 92q23 -8 62 -14t69 -6q61 0 114.5 14t92.5 47t60.5 85t21.5 126q0 86 -55 122t-158 36q-31 0 -71.5 -6.5t-65.5 -14.5z" />
<glyph unicode="&#x45a;" horiz-adv-x="1564" d="M68 922l6 41h174q82 0 118.5 -25t36.5 -100q0 -12 -2 -28.5t-6 -48.5t-14 -86t-25 -143h389l76 431h185l-76 -431h153q80 0 148.5 -11t120 -35.5t80 -65.5t28.5 -103q0 -92 -39 -153.5t-103.5 -98t-149.5 -51t-177 -14.5h-338l78 451h-389l-78 -451h-184 q33 186 55.5 317.5t37.5 219.5t23.5 139t12.5 78.5t5 38t1 16.5q0 53 -25.5 83t-91.5 30h-30zM852 92q23 -8 61.5 -14t69.5 -6q125 0 204 58t79 181q0 78 -55.5 114t-159.5 36q-31 0 -72 -6t-66 -15z" />
<glyph unicode="&#x45b;" horiz-adv-x="1089" d="M49 0l180 1024h-143l14 82h144l20 123l125 123h82l-43 -246h246l-15 -82h-245l-43 -246q45 39 117.5 71t164.5 32q57 0 110.5 -12.5t94.5 -42t65.5 -81t24.5 -131.5q0 -12 -2 -31.5t-12 -81t-29.5 -179t-56.5 -322.5h-184q35 203 54 316.5t28.5 171t11.5 75t2 25.5 q0 55 -15.5 93t-41 62.5t-58.5 34.5t-70 10q-61 0 -118.5 -32.5t-104.5 -75.5l-119 -680h-184z" />
<glyph unicode="&#x45c;" horiz-adv-x="1021" d="M66 922l6 41h184q82 0 119 -25t37 -100q0 -12 -2 -28.5t-8.5 -55.5t-17.5 -105.5t-30 -177.5l320 358q55 61 121.5 97.5t167.5 36.5h51l-8 -52q-47 0 -100.5 -19.5t-100.5 -72.5l-281 -317l183 -297q41 -70 90 -113t116 -53l-6 -39q-18 -8 -47 -14t-59 -6 q-78 0 -146.5 38.5t-122.5 124.5l-184 297l-76 -440h-184q33 186 55.5 317.5t38 219.5t23.5 139t12 78.5t5 38t1 16.5q0 53 -25.5 83t-91.5 30h-40zM506 998l186 235h174l-258 -235h-102z" />
<glyph unicode="&#x45e;" horiz-adv-x="1052" d="M35 -411l12 62q45 0 87 9.5t80.5 33t75.5 65.5t71 108l62 113l-187 799q-18 78 -69.5 117t-127.5 47l6 41h174q93 0 146.5 -43t71.5 -121l133 -568l384 712h103l-593 -1097q-45 -84 -88 -138.5t-87.5 -85.5t-91.5 -42.5t-101 -11.5h-61zM454 1213l47 31q33 -39 79 -60.5 t132 -21.5t140.5 21.5t99.5 60.5l35 -31q-49 -70 -122 -117t-173 -47t-154.5 47t-83.5 117z" />
<glyph unicode="&#x45f;" horiz-adv-x="1105" d="M68 922l6 41h174q82 0 118.5 -25t36.5 -100q0 -8 -1 -19.5t-5 -38t-12 -75t-21.5 -130t-35 -202.5t-49.5 -291h409l154 881h184l-168 -963h-317l-86 -307h-82l24 307h-317q33 186 55.5 317.5t37.5 219.5t23.5 139t12.5 78.5t5 38t1 16.5q0 53 -25.5 83t-91.5 30h-30z" />
<glyph unicode="&#x490;" horiz-adv-x="1103" d="M123 0q49 285 84 482.5t57.5 327.5t34.5 203.5t18.5 111.5t7.5 50.5t1 18.5q0 53 -25 85t-92 32h-41l8 41h727q123 0 199 56t98 179h41l-39 -225q-6 -39 -39 -65.5t-69 -26.5h-564l-223 -1270h-184z" />
<glyph unicode="&#x491;" horiz-adv-x="894" d="M74 922l6 41h573q92 0 164 52t88 152h41l-37 -204q-14 -82 -96 -82h-399l-154 -881h-184q33 186 55.5 317.5t37.5 219.5t23.5 139t12.5 78.5t5 38t1 16.5q0 53 -25.5 83t-91.5 30h-20z" />
<glyph unicode="&#x2000;" horiz-adv-x="855" />
<glyph unicode="&#x2001;" horiz-adv-x="1710" />
<glyph unicode="&#x2002;" horiz-adv-x="855" />
<glyph unicode="&#x2003;" horiz-adv-x="1710" />
<glyph unicode="&#x2004;" horiz-adv-x="570" />
<glyph unicode="&#x2005;" horiz-adv-x="427" />
<glyph unicode="&#x2006;" horiz-adv-x="285" />
<glyph unicode="&#x2007;" horiz-adv-x="285" />
<glyph unicode="&#x2008;" horiz-adv-x="213" />
<glyph unicode="&#x2009;" horiz-adv-x="342" />
<glyph unicode="&#x200a;" horiz-adv-x="95" />
<glyph unicode="&#x2010;" horiz-adv-x="796" d="M121 471l24 143h523l-25 -143h-522z" />
<glyph unicode="&#x2011;" horiz-adv-x="796" d="M121 471l24 143h523l-25 -143h-522z" />
<glyph unicode="&#x2012;" horiz-adv-x="796" d="M121 471l24 143h523l-25 -143h-522z" />
<glyph unicode="&#x2013;" horiz-adv-x="1255" d="M127 471l23 123h962l-22 -123h-963z" />
<glyph unicode="&#x2014;" horiz-adv-x="1808" d="M127 471l23 123h1515l-23 -123h-1515z" />
<glyph unicode="&#x2018;" horiz-adv-x="468" d="M180 977q0 68 23.5 128t64.5 113.5t94.5 97.5t112.5 77l17 -31q-86 -53 -141.5 -118.5t-71.5 -158.5l65 21q41 0 67.5 -26.5t26.5 -67.5q0 -55 -44 -98.5t-103 -43.5q-53 0 -82 28t-29 79z" />
<glyph unicode="&#x2019;" horiz-adv-x="471" d="M184 901q86 53 141.5 118.5t71.5 158.5l-65 -21q-41 0 -67.5 26.5t-26.5 67.5q0 55 43 98.5t102 43.5q53 0 83 -27t30 -80q0 -68 -25 -128t-65.5 -113.5t-94 -97.5t-112.5 -77z" />
<glyph unicode="&#x201a;" horiz-adv-x="493" d="M-20 -287q86 53 141 119t72 158l-66 -21q-41 0 -67.5 27t-26.5 65q0 55 43 99.5t102 44.5q53 0 83 -26.5t30 -80.5q0 -68 -24.5 -128t-65.5 -113.5t-94.5 -97.5t-112.5 -76z" />
<glyph unicode="&#x201c;" horiz-adv-x="837" d="M180 977q0 68 23.5 128t64.5 113.5t94.5 97.5t112.5 77l17 -31q-86 -53 -141.5 -118.5t-71.5 -158.5l65 21q41 0 67.5 -26.5t26.5 -67.5q0 -55 -44 -98.5t-103 -43.5q-53 0 -82 28t-29 79zM549 977q0 68 23.5 128t64.5 113.5t94 97.5t113 77l16 -31q-86 -53 -141 -118.5 t-72 -158.5l66 21q41 0 67.5 -26.5t26.5 -67.5q0 -55 -44 -98.5t-104 -43.5q-53 0 -81.5 28t-28.5 79z" />
<glyph unicode="&#x201d;" horiz-adv-x="839" d="M184 901q86 53 141.5 118.5t71.5 158.5l-65 -21q-41 0 -67.5 26.5t-26.5 67.5q0 55 43 98.5t102 43.5q53 0 83 -27t30 -80q0 -68 -25 -128t-65.5 -113.5t-94 -97.5t-112.5 -77zM553 901q86 53 141.5 118.5t71.5 158.5l-66 -21q-41 0 -67.5 26.5t-26.5 67.5q0 55 43 98.5 t103 43.5q53 0 82.5 -27t29.5 -80q0 -68 -24.5 -128t-65.5 -113.5t-94 -97.5t-113 -77z" />
<glyph unicode="&#x201e;" horiz-adv-x="862" d="M-20 -287q86 53 141 119t72 158l-66 -21q-41 0 -67.5 27t-26.5 65q0 55 43 99.5t102 44.5q53 0 83 -26.5t30 -80.5q0 -68 -24.5 -128t-65.5 -113.5t-94.5 -97.5t-112.5 -76zM348 -287q86 53 141.5 119t71.5 158l-65 -21q-41 0 -68 27t-27 65q0 55 43 99.5t103 44.5 q53 0 82.5 -26.5t29.5 -80.5q0 -68 -24.5 -128t-65.5 -113.5t-94 -97.5t-113 -76z" />
<glyph unicode="&#x2022;" horiz-adv-x="694" d="M115 625q0 57 22.5 110t61.5 94t92.5 67t116.5 26q96 0 151 -54.5t55 -142.5q0 -57 -22.5 -110.5t-61 -94.5t-93 -65.5t-115.5 -24.5q-94 0 -150.5 53.5t-56.5 141.5z" />
<glyph unicode="&#x2026;" horiz-adv-x="1320" d="M35 63q0 25 10 48.5t28.5 42t42 30t50.5 11.5q43 0 68.5 -27t25.5 -66q0 -49 -40 -90t-93 -41q-41 0 -66.5 26t-25.5 66zM465 63q0 25 10 48.5t28.5 42t42 30t50.5 11.5q43 0 68.5 -27t25.5 -66q0 -49 -40 -90t-93 -41q-41 0 -66.5 26t-25.5 66zM895 63q0 25 10 48.5 t28.5 42t42 30t50.5 11.5q43 0 68.5 -27t25.5 -66q0 -49 -40 -90t-93 -41q-41 0 -66.5 26t-25.5 66z" />
<glyph unicode="&#x202f;" horiz-adv-x="342" />
<glyph unicode="&#x2039;" horiz-adv-x="624" d="M53 461l430 399h82l-297 -399l156 -400h-82z" />
<glyph unicode="&#x203a;" horiz-adv-x="620" d="M20 61l295 400l-153 399h82l286 -399l-428 -400h-82z" />
<glyph unicode="&#x205f;" horiz-adv-x="427" />
<glyph unicode="&#x20ac;" horiz-adv-x="1497" d="M51 522l37 82h123l20 123h-112l35 82h106q45 125 121 231.5t172 185.5t205.5 123t224.5 44q59 0 139 -11.5t153 -40t123 -81t50 -134.5q0 -41 -6 -90t-17 -100q0 -4 -1 -7t-1 -7h-41q-4 201 -93 295t-259 94q-90 0 -175 -25.5t-159.5 -85t-135 -156t-101.5 -235.5h411 l-34 -82h-400l-20 -123h389l-37 -82h-360v-26q0 -92 21.5 -175t69.5 -144.5t123.5 -98.5t184.5 -37q154 0 277.5 73.5t234.5 213.5l35 -31q-68 -96 -138.5 -160.5t-147.5 -104.5t-161 -56.5t-176 -16.5q-127 0 -225 41t-165 114.5t-101.5 174t-34.5 219.5v14h-154z" />
<glyph unicode="&#x2122;" horiz-adv-x="1812" d="M207 1137l16 92q10 47 39 85t98 38h560l-11 -62h-268l-117 -661h-137l117 661h-78q-70 0 -122 -39t-66 -114h-31zM862 629l127 723h146l139 -508l319 508h138q-23 -129 -38.5 -219.5t-25.5 -151.5t-16 -96t-8.5 -55.5t-3.5 -28.5t-1 -15q0 -66 21.5 -111.5t66.5 -45.5 l-6 -31q-123 0 -172 47t-49 133q0 8 1 23.5t7 57.5t19.5 120t38.5 213l-351 -563h-30l-160 577l-100 -577h-62z" />
<glyph unicode="&#xe000;" horiz-adv-x="962" d="M0 0v963h963v-963h-963z" />
</font>
</defs>
</svg>
